<?xml version="1.0" standalone="no"?>
<!DOCTYPE svg PUBLIC "-//W3C//DTD SVG 1.1//EN" "http://www.w3.org/Graphics/SVG/1.1/DTD/svg11.dtd" >
<svg xmlns="http://www.w3.org/2000/svg" xmlns:xlink="http://www.w3.org/1999/xlink" version="1.1">
<metadata></metadata>
<defs>
<font id="tarokofontregular" horiz-adv-x="2048" vert-adv-y="2048" >
<font-face units-per-em="2048" ascent="1760" descent="-288" />
<missing-glyph horiz-adv-x="1024" />
<glyph horiz-adv-x="0" />
<glyph unicode=" "  horiz-adv-x="1024" />
<glyph unicode="&#x09;" horiz-adv-x="1024" />
<glyph unicode="&#xa0;" horiz-adv-x="1024" />
<glyph unicode="!" horiz-adv-x="1024" />
<glyph unicode="&#x22;" horiz-adv-x="1024" />
<glyph unicode="#" horiz-adv-x="1024" />
<glyph unicode="$" horiz-adv-x="1024" />
<glyph unicode="%" horiz-adv-x="1024" />
<glyph unicode="&#x26;" horiz-adv-x="1024" />
<glyph unicode="'" horiz-adv-x="1024" />
<glyph unicode="(" horiz-adv-x="1024" />
<glyph unicode=")" horiz-adv-x="1024" />
<glyph unicode="*" horiz-adv-x="1024" />
<glyph unicode="+" horiz-adv-x="1024" />
<glyph unicode="," horiz-adv-x="1024" />
<glyph unicode="-" horiz-adv-x="1024" />
<glyph unicode="." horiz-adv-x="1024" />
<glyph unicode="/" horiz-adv-x="1024" />
<glyph unicode="0" horiz-adv-x="1024" />
<glyph unicode="1" horiz-adv-x="1024" />
<glyph unicode="2" horiz-adv-x="1024" />
<glyph unicode="3" horiz-adv-x="1024" />
<glyph unicode="4" horiz-adv-x="1024" />
<glyph unicode="5" horiz-adv-x="1024" />
<glyph unicode="6" horiz-adv-x="1024" />
<glyph unicode="7" horiz-adv-x="1024" />
<glyph unicode="8" horiz-adv-x="1024" />
<glyph unicode="9" horiz-adv-x="1024" />
<glyph unicode=":" horiz-adv-x="1024" />
<glyph unicode=";" horiz-adv-x="1024" />
<glyph unicode="&#x3c;" horiz-adv-x="1024" />
<glyph unicode="=" horiz-adv-x="1024" />
<glyph unicode="&#x3e;" horiz-adv-x="1024" />
<glyph unicode="?" horiz-adv-x="1024" />
<glyph unicode="@" horiz-adv-x="1024" />
<glyph unicode="A" horiz-adv-x="1024" />
<glyph unicode="B" horiz-adv-x="1024" />
<glyph unicode="C" horiz-adv-x="1024" />
<glyph unicode="D" horiz-adv-x="1024" />
<glyph unicode="E" horiz-adv-x="1024" />
<glyph unicode="F" horiz-adv-x="1024" />
<glyph unicode="G" horiz-adv-x="1024" />
<glyph unicode="H" horiz-adv-x="1024" />
<glyph unicode="I" horiz-adv-x="1024" />
<glyph unicode="J" horiz-adv-x="1024" />
<glyph unicode="K" horiz-adv-x="1024" />
<glyph unicode="L" horiz-adv-x="1024" />
<glyph unicode="M" horiz-adv-x="1024" />
<glyph unicode="N" horiz-adv-x="1024" />
<glyph unicode="O" horiz-adv-x="1024" />
<glyph unicode="P" horiz-adv-x="1024" />
<glyph unicode="Q" horiz-adv-x="1024" />
<glyph unicode="R" horiz-adv-x="1024" />
<glyph unicode="S" horiz-adv-x="1024" />
<glyph unicode="T" horiz-adv-x="1024" />
<glyph unicode="U" horiz-adv-x="1024" />
<glyph unicode="V" horiz-adv-x="1024" />
<glyph unicode="W" horiz-adv-x="1024" />
<glyph unicode="X" horiz-adv-x="1024" />
<glyph unicode="Y" horiz-adv-x="1024" />
<glyph unicode="Z" horiz-adv-x="1024" />
<glyph unicode="[" horiz-adv-x="1024" />
<glyph unicode="\" horiz-adv-x="1024" />
<glyph unicode="]" horiz-adv-x="1024" />
<glyph unicode="^" horiz-adv-x="1024" />
<glyph unicode="_" horiz-adv-x="1024" />
<glyph unicode="`" horiz-adv-x="1024" />
<glyph unicode="a" horiz-adv-x="1024" />
<glyph unicode="b" horiz-adv-x="1024" />
<glyph unicode="c" horiz-adv-x="1024" />
<glyph unicode="d" horiz-adv-x="1024" />
<glyph unicode="e" horiz-adv-x="1024" />
<glyph unicode="f" horiz-adv-x="1024" />
<glyph unicode="g" horiz-adv-x="1024" />
<glyph unicode="h" horiz-adv-x="1024" />
<glyph unicode="i" horiz-adv-x="1024" />
<glyph unicode="j" horiz-adv-x="1024" />
<glyph unicode="k" horiz-adv-x="1024" />
<glyph unicode="l" horiz-adv-x="1024" />
<glyph unicode="m" horiz-adv-x="1024" />
<glyph unicode="n" horiz-adv-x="1024" />
<glyph unicode="o" horiz-adv-x="1024" />
<glyph unicode="p" horiz-adv-x="1024" />
<glyph unicode="q" horiz-adv-x="1024" />
<glyph unicode="r" horiz-adv-x="1024" />
<glyph unicode="s" horiz-adv-x="1024" />
<glyph unicode="t" horiz-adv-x="1024" />
<glyph unicode="u" horiz-adv-x="1024" />
<glyph unicode="v" horiz-adv-x="1024" />
<glyph unicode="w" horiz-adv-x="1024" />
<glyph unicode="x" horiz-adv-x="1024" />
<glyph unicode="y" horiz-adv-x="1024" />
<glyph unicode="z" horiz-adv-x="1024" />
<glyph unicode="{" horiz-adv-x="1024" />
<glyph unicode="|" horiz-adv-x="1024" />
<glyph unicode="}" horiz-adv-x="1024" />
<glyph unicode="~" horiz-adv-x="1024" />
<glyph unicode="&#xa1;" horiz-adv-x="1024" />
<glyph unicode="&#xa2;" horiz-adv-x="1024" />
<glyph unicode="&#xa3;" horiz-adv-x="1024" />
<glyph unicode="&#xa4;" horiz-adv-x="1024" />
<glyph unicode="&#xa5;" horiz-adv-x="1024" />
<glyph unicode="&#xa6;" horiz-adv-x="1024" />
<glyph unicode="&#xa7;" />
<glyph unicode="&#xa8;" />
<glyph unicode="&#xa9;" horiz-adv-x="1024" />
<glyph unicode="&#xaa;" horiz-adv-x="1024" />
<glyph unicode="&#xab;" horiz-adv-x="1024" />
<glyph unicode="&#xac;" horiz-adv-x="1024" />
<glyph unicode="&#xad;" horiz-adv-x="1024" />
<glyph unicode="&#xae;" horiz-adv-x="1024" />
<glyph unicode="&#xaf;" horiz-adv-x="1024" />
<glyph unicode="&#xb0;" />
<glyph unicode="&#xb1;" />
<glyph unicode="&#xb2;" horiz-adv-x="1024" />
<glyph unicode="&#xb3;" horiz-adv-x="1024" />
<glyph unicode="&#xb4;" />
<glyph unicode="&#xb5;" horiz-adv-x="1024" />
<glyph unicode="&#xb6;" />
<glyph unicode="&#xb7;" horiz-adv-x="1024" />
<glyph unicode="&#xb8;" horiz-adv-x="1024" />
<glyph unicode="&#xb9;" horiz-adv-x="1024" />
<glyph unicode="&#xba;" horiz-adv-x="1024" />
<glyph unicode="&#xbb;" horiz-adv-x="1024" />
<glyph unicode="&#xbc;" horiz-adv-x="1024" />
<glyph unicode="&#xbd;" horiz-adv-x="1024" />
<glyph unicode="&#xbe;" horiz-adv-x="1024" />
<glyph unicode="&#xbf;" horiz-adv-x="1024" />
<glyph unicode="&#xc0;" horiz-adv-x="1024" />
<glyph unicode="&#xc1;" horiz-adv-x="1024" />
<glyph unicode="&#xc2;" horiz-adv-x="1024" />
<glyph unicode="&#xc3;" horiz-adv-x="1024" />
<glyph unicode="&#xc4;" horiz-adv-x="1024" />
<glyph unicode="&#xc5;" horiz-adv-x="1024" />
<glyph unicode="&#xc6;" horiz-adv-x="1024" />
<glyph unicode="&#xc7;" horiz-adv-x="1024" />
<glyph unicode="&#xc8;" horiz-adv-x="1024" />
<glyph unicode="&#xc9;" horiz-adv-x="1024" />
<glyph unicode="&#xca;" horiz-adv-x="1024" />
<glyph unicode="&#xcb;" horiz-adv-x="1024" />
<glyph unicode="&#xcc;" horiz-adv-x="1024" />
<glyph unicode="&#xcd;" horiz-adv-x="1024" />
<glyph unicode="&#xce;" horiz-adv-x="1024" />
<glyph unicode="&#xcf;" horiz-adv-x="1024" />
<glyph unicode="&#xd0;" horiz-adv-x="1024" />
<glyph unicode="&#xd1;" horiz-adv-x="1024" />
<glyph unicode="&#xd2;" horiz-adv-x="1024" />
<glyph unicode="&#xd3;" horiz-adv-x="1024" />
<glyph unicode="&#xd4;" horiz-adv-x="1024" />
<glyph unicode="&#xd5;" horiz-adv-x="1024" />
<glyph unicode="&#xd6;" horiz-adv-x="1024" />
<glyph unicode="&#xd7;" />
<glyph unicode="&#xd8;" horiz-adv-x="1024" />
<glyph unicode="&#xd9;" horiz-adv-x="1024" />
<glyph unicode="&#xda;" horiz-adv-x="1024" />
<glyph unicode="&#xdb;" horiz-adv-x="1024" />
<glyph unicode="&#xdc;" horiz-adv-x="1024" />
<glyph unicode="&#xdd;" horiz-adv-x="1024" />
<glyph unicode="&#xde;" horiz-adv-x="1024" />
<glyph unicode="&#xdf;" horiz-adv-x="1024" />
<glyph unicode="&#xe0;" horiz-adv-x="1024" />
<glyph unicode="&#xe1;" horiz-adv-x="1024" />
<glyph unicode="&#xe2;" horiz-adv-x="1024" />
<glyph unicode="&#xe3;" horiz-adv-x="1024" />
<glyph unicode="&#xe4;" horiz-adv-x="1024" />
<glyph unicode="&#xe5;" horiz-adv-x="1024" />
<glyph unicode="&#xe6;" horiz-adv-x="1024" />
<glyph unicode="&#xe7;" horiz-adv-x="1024" />
<glyph unicode="&#xe8;" horiz-adv-x="1024" />
<glyph unicode="&#xe9;" horiz-adv-x="1024" />
<glyph unicode="&#xea;" horiz-adv-x="1024" />
<glyph unicode="&#xeb;" horiz-adv-x="1024" />
<glyph unicode="&#xec;" horiz-adv-x="1024" />
<glyph unicode="&#xed;" horiz-adv-x="1024" />
<glyph unicode="&#xee;" horiz-adv-x="1024" />
<glyph unicode="&#xef;" horiz-adv-x="1024" />
<glyph unicode="&#xf0;" horiz-adv-x="1024" />
<glyph unicode="&#xf1;" horiz-adv-x="1024" />
<glyph unicode="&#xf2;" horiz-adv-x="1024" />
<glyph unicode="&#xf3;" horiz-adv-x="1024" />
<glyph unicode="&#xf4;" horiz-adv-x="1024" />
<glyph unicode="&#xf5;" horiz-adv-x="1024" />
<glyph unicode="&#xf6;" horiz-adv-x="1024" />
<glyph unicode="&#xf7;" />
<glyph unicode="&#xf8;" horiz-adv-x="1024" />
<glyph unicode="&#xf9;" horiz-adv-x="1024" />
<glyph unicode="&#xfa;" horiz-adv-x="1024" />
<glyph unicode="&#xfb;" horiz-adv-x="1024" />
<glyph unicode="&#xfc;" horiz-adv-x="1024" />
<glyph unicode="&#xfd;" horiz-adv-x="1024" />
<glyph unicode="&#xfe;" horiz-adv-x="1024" />
<glyph unicode="&#xff;" horiz-adv-x="1024" />
<glyph unicode="&#x100;" horiz-adv-x="1024" />
<glyph unicode="&#x101;" horiz-adv-x="1024" />
<glyph unicode="&#x102;" horiz-adv-x="1024" />
<glyph unicode="&#x103;" horiz-adv-x="1024" />
<glyph unicode="&#x104;" horiz-adv-x="1024" />
<glyph unicode="&#x105;" horiz-adv-x="1024" />
<glyph unicode="&#x106;" horiz-adv-x="1024" />
<glyph unicode="&#x107;" horiz-adv-x="1024" />
<glyph unicode="&#x108;" horiz-adv-x="1024" />
<glyph unicode="&#x109;" horiz-adv-x="1024" />
<glyph unicode="&#x10a;" horiz-adv-x="1024" />
<glyph unicode="&#x10b;" horiz-adv-x="1024" />
<glyph unicode="&#x10c;" horiz-adv-x="1024" />
<glyph unicode="&#x10d;" horiz-adv-x="1024" />
<glyph unicode="&#x10e;" horiz-adv-x="1024" />
<glyph unicode="&#x10f;" horiz-adv-x="1024" />
<glyph unicode="&#x110;" horiz-adv-x="1024" />
<glyph unicode="&#x111;" horiz-adv-x="1024" />
<glyph unicode="&#x112;" horiz-adv-x="1024" />
<glyph unicode="&#x113;" horiz-adv-x="1024" />
<glyph unicode="&#x114;" horiz-adv-x="1024" />
<glyph unicode="&#x115;" horiz-adv-x="1024" />
<glyph unicode="&#x116;" horiz-adv-x="1024" />
<glyph unicode="&#x117;" horiz-adv-x="1024" />
<glyph unicode="&#x118;" horiz-adv-x="1024" />
<glyph unicode="&#x119;" horiz-adv-x="1024" />
<glyph unicode="&#x11a;" horiz-adv-x="1024" />
<glyph unicode="&#x11b;" horiz-adv-x="1024" />
<glyph unicode="&#x11c;" horiz-adv-x="1024" />
<glyph unicode="&#x11d;" horiz-adv-x="1024" />
<glyph unicode="&#x11e;" horiz-adv-x="1024" />
<glyph unicode="&#x11f;" horiz-adv-x="1024" />
<glyph unicode="&#x120;" horiz-adv-x="1024" />
<glyph unicode="&#x121;" horiz-adv-x="1024" />
<glyph unicode="&#x122;" horiz-adv-x="1024" />
<glyph unicode="&#x123;" horiz-adv-x="1024" />
<glyph unicode="&#x124;" horiz-adv-x="1024" />
<glyph unicode="&#x125;" horiz-adv-x="1024" />
<glyph unicode="&#x126;" horiz-adv-x="1024" />
<glyph unicode="&#x127;" horiz-adv-x="1024" />
<glyph unicode="&#x128;" horiz-adv-x="1024" />
<glyph unicode="&#x129;" horiz-adv-x="1024" />
<glyph unicode="&#x12a;" horiz-adv-x="1024" />
<glyph unicode="&#x12b;" horiz-adv-x="1024" />
<glyph unicode="&#x12c;" horiz-adv-x="1024" />
<glyph unicode="&#x12d;" horiz-adv-x="1024" />
<glyph unicode="&#x12e;" horiz-adv-x="1024" />
<glyph unicode="&#x12f;" horiz-adv-x="1024" />
<glyph unicode="&#x130;" horiz-adv-x="1024" />
<glyph unicode="&#x131;" horiz-adv-x="1024" />
<glyph unicode="&#x132;" horiz-adv-x="1024" />
<glyph unicode="&#x133;" horiz-adv-x="1024" />
<glyph unicode="&#x134;" horiz-adv-x="1024" />
<glyph unicode="&#x135;" horiz-adv-x="1024" />
<glyph unicode="&#x136;" horiz-adv-x="1024" />
<glyph unicode="&#x137;" horiz-adv-x="1024" />
<glyph unicode="&#x138;" horiz-adv-x="1024" />
<glyph unicode="&#x139;" horiz-adv-x="1024" />
<glyph unicode="&#x13a;" horiz-adv-x="1024" />
<glyph unicode="&#x13b;" horiz-adv-x="1024" />
<glyph unicode="&#x13c;" horiz-adv-x="1024" />
<glyph unicode="&#x13d;" horiz-adv-x="1024" />
<glyph unicode="&#x13e;" horiz-adv-x="1024" />
<glyph unicode="&#x13f;" horiz-adv-x="1024" />
<glyph unicode="&#x140;" horiz-adv-x="1024" />
<glyph unicode="&#x141;" horiz-adv-x="1024" />
<glyph unicode="&#x142;" horiz-adv-x="1024" />
<glyph unicode="&#x143;" horiz-adv-x="1024" />
<glyph unicode="&#x144;" horiz-adv-x="1024" />
<glyph unicode="&#x145;" horiz-adv-x="1024" />
<glyph unicode="&#x146;" horiz-adv-x="1024" />
<glyph unicode="&#x147;" horiz-adv-x="1024" />
<glyph unicode="&#x148;" horiz-adv-x="1024" />
<glyph unicode="&#x149;" horiz-adv-x="1024" />
<glyph unicode="&#x14a;" horiz-adv-x="1024" />
<glyph unicode="&#x14b;" horiz-adv-x="1024" />
<glyph unicode="&#x14c;" horiz-adv-x="1024" />
<glyph unicode="&#x14d;" horiz-adv-x="1024" />
<glyph unicode="&#x14e;" horiz-adv-x="1024" />
<glyph unicode="&#x14f;" horiz-adv-x="1024" />
<glyph unicode="&#x150;" horiz-adv-x="1024" />
<glyph unicode="&#x151;" horiz-adv-x="1024" />
<glyph unicode="&#x152;" horiz-adv-x="1024" />
<glyph unicode="&#x153;" horiz-adv-x="1024" />
<glyph unicode="&#x154;" horiz-adv-x="1024" />
<glyph unicode="&#x155;" horiz-adv-x="1024" />
<glyph unicode="&#x156;" horiz-adv-x="1024" />
<glyph unicode="&#x157;" horiz-adv-x="1024" />
<glyph unicode="&#x158;" horiz-adv-x="1024" />
<glyph unicode="&#x159;" horiz-adv-x="1024" />
<glyph unicode="&#x15a;" horiz-adv-x="1024" />
<glyph unicode="&#x15b;" horiz-adv-x="1024" />
<glyph unicode="&#x15c;" horiz-adv-x="1024" />
<glyph unicode="&#x15d;" horiz-adv-x="1024" />
<glyph unicode="&#x15e;" horiz-adv-x="1024" />
<glyph unicode="&#x15f;" horiz-adv-x="1024" />
<glyph unicode="&#x160;" horiz-adv-x="1024" />
<glyph unicode="&#x161;" horiz-adv-x="1024" />
<glyph unicode="&#x162;" horiz-adv-x="1024" />
<glyph unicode="&#x163;" horiz-adv-x="1024" />
<glyph unicode="&#x164;" horiz-adv-x="1024" />
<glyph unicode="&#x165;" horiz-adv-x="1024" />
<glyph unicode="&#x166;" horiz-adv-x="1024" />
<glyph unicode="&#x167;" horiz-adv-x="1024" />
<glyph unicode="&#x168;" horiz-adv-x="1024" />
<glyph unicode="&#x169;" horiz-adv-x="1024" />
<glyph unicode="&#x16a;" horiz-adv-x="1024" />
<glyph unicode="&#x16b;" horiz-adv-x="1024" />
<glyph unicode="&#x16c;" horiz-adv-x="1024" />
<glyph unicode="&#x16d;" horiz-adv-x="1024" />
<glyph unicode="&#x16e;" horiz-adv-x="1024" />
<glyph unicode="&#x16f;" horiz-adv-x="1024" />
<glyph unicode="&#x170;" horiz-adv-x="1024" />
<glyph unicode="&#x171;" horiz-adv-x="1024" />
<glyph unicode="&#x172;" horiz-adv-x="1024" />
<glyph unicode="&#x173;" horiz-adv-x="1024" />
<glyph unicode="&#x174;" horiz-adv-x="1024" />
<glyph unicode="&#x175;" horiz-adv-x="1024" />
<glyph unicode="&#x176;" horiz-adv-x="1024" />
<glyph unicode="&#x177;" horiz-adv-x="1024" />
<glyph unicode="&#x178;" horiz-adv-x="1024" />
<glyph unicode="&#x179;" horiz-adv-x="1024" />
<glyph unicode="&#x17a;" horiz-adv-x="1024" />
<glyph unicode="&#x17b;" horiz-adv-x="1024" />
<glyph unicode="&#x17c;" horiz-adv-x="1024" />
<glyph unicode="&#x17d;" horiz-adv-x="1024" />
<glyph unicode="&#x17e;" horiz-adv-x="1024" />
<glyph unicode="&#x17f;" horiz-adv-x="1024" />
<glyph unicode="&#x192;" horiz-adv-x="1024" />
<glyph unicode="&#x1cd;" />
<glyph unicode="&#x1ce;" />
<glyph unicode="&#x1cf;" />
<glyph unicode="&#x1d0;" />
<glyph unicode="&#x1d1;" />
<glyph unicode="&#x1d2;" />
<glyph unicode="&#x1d3;" />
<glyph unicode="&#x1d4;" />
<glyph unicode="&#x1d5;" />
<glyph unicode="&#x1d6;" />
<glyph unicode="&#x1d7;" />
<glyph unicode="&#x1d8;" />
<glyph unicode="&#x1d9;" />
<glyph unicode="&#x1da;" />
<glyph unicode="&#x1db;" />
<glyph unicode="&#x1dc;" />
<glyph unicode="&#x1f5;" />
<glyph unicode="&#x1fa;" horiz-adv-x="1024" />
<glyph unicode="&#x1fb;" horiz-adv-x="1024" />
<glyph unicode="&#x1fc;" horiz-adv-x="1024" />
<glyph unicode="&#x1fd;" horiz-adv-x="1024" />
<glyph unicode="&#x1fe;" horiz-adv-x="1024" />
<glyph unicode="&#x1ff;" horiz-adv-x="1024" />
<glyph unicode="&#x250;" horiz-adv-x="1024" />
<glyph unicode="&#x251;" horiz-adv-x="1024" />
<glyph unicode="&#x252;" horiz-adv-x="1024" />
<glyph unicode="&#x253;" horiz-adv-x="1024" />
<glyph unicode="&#x254;" horiz-adv-x="1024" />
<glyph unicode="&#x255;" horiz-adv-x="1024" />
<glyph unicode="&#x256;" horiz-adv-x="1024" />
<glyph unicode="&#x257;" horiz-adv-x="1024" />
<glyph unicode="&#x258;" horiz-adv-x="1024" />
<glyph unicode="&#x259;" horiz-adv-x="1024" />
<glyph unicode="&#x25a;" horiz-adv-x="1024" />
<glyph unicode="&#x25b;" horiz-adv-x="1024" />
<glyph unicode="&#x25c;" horiz-adv-x="1024" />
<glyph unicode="&#x25d;" horiz-adv-x="1024" />
<glyph unicode="&#x25e;" horiz-adv-x="1024" />
<glyph unicode="&#x25f;" horiz-adv-x="1024" />
<glyph unicode="&#x260;" horiz-adv-x="1024" />
<glyph unicode="&#x261;" horiz-adv-x="1024" />
<glyph unicode="&#x262;" horiz-adv-x="1024" />
<glyph unicode="&#x263;" horiz-adv-x="1024" />
<glyph unicode="&#x264;" horiz-adv-x="1024" />
<glyph unicode="&#x265;" horiz-adv-x="1024" />
<glyph unicode="&#x266;" horiz-adv-x="1024" />
<glyph unicode="&#x267;" horiz-adv-x="1024" />
<glyph unicode="&#x268;" horiz-adv-x="1024" />
<glyph unicode="&#x269;" horiz-adv-x="1024" />
<glyph unicode="&#x26a;" horiz-adv-x="1024" />
<glyph unicode="&#x26b;" horiz-adv-x="1024" />
<glyph unicode="&#x26c;" horiz-adv-x="1024" />
<glyph unicode="&#x26d;" horiz-adv-x="1024" />
<glyph unicode="&#x26e;" horiz-adv-x="1024" />
<glyph unicode="&#x26f;" horiz-adv-x="1024" />
<glyph unicode="&#x270;" horiz-adv-x="1024" />
<glyph unicode="&#x271;" horiz-adv-x="1024" />
<glyph unicode="&#x272;" horiz-adv-x="1024" />
<glyph unicode="&#x273;" horiz-adv-x="1024" />
<glyph unicode="&#x274;" horiz-adv-x="1024" />
<glyph unicode="&#x275;" horiz-adv-x="1024" />
<glyph unicode="&#x276;" horiz-adv-x="1024" />
<glyph unicode="&#x277;" horiz-adv-x="1024" />
<glyph unicode="&#x278;" horiz-adv-x="1024" />
<glyph unicode="&#x279;" horiz-adv-x="1024" />
<glyph unicode="&#x27a;" horiz-adv-x="1024" />
<glyph unicode="&#x27b;" horiz-adv-x="1024" />
<glyph unicode="&#x27c;" horiz-adv-x="1024" />
<glyph unicode="&#x27d;" horiz-adv-x="1024" />
<glyph unicode="&#x27e;" horiz-adv-x="1024" />
<glyph unicode="&#x27f;" horiz-adv-x="1024" />
<glyph unicode="&#x280;" horiz-adv-x="1024" />
<glyph unicode="&#x281;" horiz-adv-x="1024" />
<glyph unicode="&#x282;" horiz-adv-x="1024" />
<glyph unicode="&#x283;" horiz-adv-x="1024" />
<glyph unicode="&#x284;" horiz-adv-x="1024" />
<glyph unicode="&#x285;" horiz-adv-x="1024" />
<glyph unicode="&#x286;" horiz-adv-x="1024" />
<glyph unicode="&#x287;" horiz-adv-x="1024" />
<glyph unicode="&#x288;" horiz-adv-x="1024" />
<glyph unicode="&#x289;" horiz-adv-x="1024" />
<glyph unicode="&#x28a;" horiz-adv-x="1024" />
<glyph unicode="&#x28b;" horiz-adv-x="1024" />
<glyph unicode="&#x28c;" horiz-adv-x="1024" />
<glyph unicode="&#x28d;" horiz-adv-x="1024" />
<glyph unicode="&#x28e;" horiz-adv-x="1024" />
<glyph unicode="&#x28f;" horiz-adv-x="1024" />
<glyph unicode="&#x290;" horiz-adv-x="1024" />
<glyph unicode="&#x291;" horiz-adv-x="1024" />
<glyph unicode="&#x292;" horiz-adv-x="1024" />
<glyph unicode="&#x293;" horiz-adv-x="1024" />
<glyph unicode="&#x294;" horiz-adv-x="1024" />
<glyph unicode="&#x295;" horiz-adv-x="1024" />
<glyph unicode="&#x296;" horiz-adv-x="1024" />
<glyph unicode="&#x297;" horiz-adv-x="1024" />
<glyph unicode="&#x298;" horiz-adv-x="1024" />
<glyph unicode="&#x299;" horiz-adv-x="1024" />
<glyph unicode="&#x29a;" horiz-adv-x="1024" />
<glyph unicode="&#x29b;" horiz-adv-x="1024" />
<glyph unicode="&#x29c;" horiz-adv-x="1024" />
<glyph unicode="&#x29d;" horiz-adv-x="1024" />
<glyph unicode="&#x29e;" horiz-adv-x="1024" />
<glyph unicode="&#x29f;" horiz-adv-x="1024" />
<glyph unicode="&#x2a0;" horiz-adv-x="1024" />
<glyph unicode="&#x2a1;" horiz-adv-x="1024" />
<glyph unicode="&#x2a2;" horiz-adv-x="1024" />
<glyph unicode="&#x2a3;" horiz-adv-x="1024" />
<glyph unicode="&#x2a4;" horiz-adv-x="1024" />
<glyph unicode="&#x2a5;" horiz-adv-x="1024" />
<glyph unicode="&#x2a6;" horiz-adv-x="1024" />
<glyph unicode="&#x2a7;" horiz-adv-x="1024" />
<glyph unicode="&#x2a8;" horiz-adv-x="1024" />
<glyph unicode="&#x2c6;" horiz-adv-x="1024" />
<glyph unicode="&#x2c7;" horiz-adv-x="1024" />
<glyph unicode="&#x2c9;" horiz-adv-x="1024" />
<glyph unicode="&#x2d8;" horiz-adv-x="1024" />
<glyph unicode="&#x2d9;" horiz-adv-x="1024" />
<glyph unicode="&#x2da;" horiz-adv-x="1024" />
<glyph unicode="&#x2db;" horiz-adv-x="1024" />
<glyph unicode="&#x2dc;" horiz-adv-x="1024" />
<glyph unicode="&#x2dd;" horiz-adv-x="1024" />
<glyph unicode="&#x374;" horiz-adv-x="1024" />
<glyph unicode="&#x375;" horiz-adv-x="1024" />
<glyph unicode="&#x37a;" horiz-adv-x="1024" />
<glyph unicode="&#x37e;" horiz-adv-x="1024" />
<glyph unicode="&#x384;" horiz-adv-x="1024" />
<glyph unicode="&#x385;" horiz-adv-x="1024" />
<glyph unicode="&#x386;" horiz-adv-x="1024" />
<glyph unicode="&#x387;" horiz-adv-x="1024" />
<glyph unicode="&#x388;" horiz-adv-x="1024" />
<glyph unicode="&#x389;" horiz-adv-x="1024" />
<glyph unicode="&#x38a;" horiz-adv-x="1024" />
<glyph unicode="&#x38c;" horiz-adv-x="1024" />
<glyph unicode="&#x38e;" horiz-adv-x="1024" />
<glyph unicode="&#x38f;" horiz-adv-x="1024" />
<glyph unicode="&#x390;" horiz-adv-x="1024" />
<glyph unicode="&#x391;" />
<glyph unicode="&#x392;" />
<glyph unicode="&#x393;" />
<glyph unicode="&#x394;" />
<glyph unicode="&#x395;" />
<glyph unicode="&#x396;" />
<glyph unicode="&#x397;" />
<glyph unicode="&#x398;" />
<glyph unicode="&#x399;" />
<glyph unicode="&#x39a;" />
<glyph unicode="&#x39b;" />
<glyph unicode="&#x39c;" />
<glyph unicode="&#x39d;" />
<glyph unicode="&#x39e;" />
<glyph unicode="&#x39f;" />
<glyph unicode="&#x3a0;" />
<glyph unicode="&#x3a1;" />
<glyph unicode="&#x3a3;" />
<glyph unicode="&#x3a4;" />
<glyph unicode="&#x3a5;" />
<glyph unicode="&#x3a6;" />
<glyph unicode="&#x3a7;" />
<glyph unicode="&#x3a8;" />
<glyph unicode="&#x3a9;" />
<glyph unicode="&#x3aa;" horiz-adv-x="1024" />
<glyph unicode="&#x3ab;" horiz-adv-x="1024" />
<glyph unicode="&#x3ac;" horiz-adv-x="1024" />
<glyph unicode="&#x3ad;" horiz-adv-x="1024" />
<glyph unicode="&#x3ae;" horiz-adv-x="1024" />
<glyph unicode="&#x3af;" horiz-adv-x="1024" />
<glyph unicode="&#x3b0;" horiz-adv-x="1024" />
<glyph unicode="&#x3b1;" />
<glyph unicode="&#x3b2;" />
<glyph unicode="&#x3b3;" />
<glyph unicode="&#x3b4;" />
<glyph unicode="&#x3b5;" />
<glyph unicode="&#x3b6;" />
<glyph unicode="&#x3b7;" />
<glyph unicode="&#x3b8;" />
<glyph unicode="&#x3b9;" />
<glyph unicode="&#x3ba;" />
<glyph unicode="&#x3bb;" />
<glyph unicode="&#x3bc;" />
<glyph unicode="&#x3bd;" />
<glyph unicode="&#x3be;" />
<glyph unicode="&#x3bf;" />
<glyph unicode="&#x3c0;" />
<glyph unicode="&#x3c1;" />
<glyph unicode="&#x3c2;" horiz-adv-x="1024" />
<glyph unicode="&#x3c3;" />
<glyph unicode="&#x3c4;" />
<glyph unicode="&#x3c5;" />
<glyph unicode="&#x3c6;" />
<glyph unicode="&#x3c7;" />
<glyph unicode="&#x3c8;" />
<glyph unicode="&#x3c9;" />
<glyph unicode="&#x3ca;" horiz-adv-x="1024" />
<glyph unicode="&#x3cb;" horiz-adv-x="1024" />
<glyph unicode="&#x3cc;" horiz-adv-x="1024" />
<glyph unicode="&#x3cd;" horiz-adv-x="1024" />
<glyph unicode="&#x3ce;" horiz-adv-x="1024" />
<glyph unicode="&#x401;" />
<glyph unicode="&#x402;" horiz-adv-x="1024" />
<glyph unicode="&#x403;" horiz-adv-x="1024" />
<glyph unicode="&#x404;" horiz-adv-x="1024" />
<glyph unicode="&#x405;" horiz-adv-x="1024" />
<glyph unicode="&#x406;" horiz-adv-x="1024" />
<glyph unicode="&#x407;" horiz-adv-x="1024" />
<glyph unicode="&#x408;" horiz-adv-x="1024" />
<glyph unicode="&#x409;" horiz-adv-x="1024" />
<glyph unicode="&#x40a;" horiz-adv-x="1024" />
<glyph unicode="&#x40b;" horiz-adv-x="1024" />
<glyph unicode="&#x40c;" horiz-adv-x="1024" />
<glyph unicode="&#x40e;" horiz-adv-x="1024" />
<glyph unicode="&#x40f;" horiz-adv-x="1024" />
<glyph unicode="&#x410;" />
<glyph unicode="&#x411;" />
<glyph unicode="&#x412;" />
<glyph unicode="&#x413;" />
<glyph unicode="&#x414;" />
<glyph unicode="&#x415;" />
<glyph unicode="&#x416;" />
<glyph unicode="&#x417;" />
<glyph unicode="&#x418;" />
<glyph unicode="&#x419;" />
<glyph unicode="&#x41a;" />
<glyph unicode="&#x41b;" />
<glyph unicode="&#x41c;" />
<glyph unicode="&#x41d;" />
<glyph unicode="&#x41e;" />
<glyph unicode="&#x41f;" />
<glyph unicode="&#x420;" />
<glyph unicode="&#x421;" />
<glyph unicode="&#x422;" />
<glyph unicode="&#x423;" />
<glyph unicode="&#x424;" />
<glyph unicode="&#x425;" />
<glyph unicode="&#x426;" />
<glyph unicode="&#x427;" />
<glyph unicode="&#x428;" />
<glyph unicode="&#x429;" />
<glyph unicode="&#x42a;" />
<glyph unicode="&#x42b;" />
<glyph unicode="&#x42c;" />
<glyph unicode="&#x42d;" />
<glyph unicode="&#x42e;" />
<glyph unicode="&#x42f;" />
<glyph unicode="&#x430;" />
<glyph unicode="&#x431;" />
<glyph unicode="&#x432;" />
<glyph unicode="&#x433;" />
<glyph unicode="&#x434;" />
<glyph unicode="&#x435;" />
<glyph unicode="&#x436;" />
<glyph unicode="&#x437;" />
<glyph unicode="&#x438;" />
<glyph unicode="&#x439;" />
<glyph unicode="&#x43a;" />
<glyph unicode="&#x43b;" />
<glyph unicode="&#x43c;" />
<glyph unicode="&#x43d;" />
<glyph unicode="&#x43e;" />
<glyph unicode="&#x43f;" />
<glyph unicode="&#x440;" />
<glyph unicode="&#x441;" />
<glyph unicode="&#x442;" />
<glyph unicode="&#x443;" />
<glyph unicode="&#x444;" />
<glyph unicode="&#x445;" />
<glyph unicode="&#x446;" />
<glyph unicode="&#x447;" />
<glyph unicode="&#x448;" />
<glyph unicode="&#x449;" />
<glyph unicode="&#x44a;" />
<glyph unicode="&#x44b;" />
<glyph unicode="&#x44c;" />
<glyph unicode="&#x44d;" />
<glyph unicode="&#x44e;" />
<glyph unicode="&#x44f;" />
<glyph unicode="&#x451;" />
<glyph unicode="&#x452;" horiz-adv-x="1024" />
<glyph unicode="&#x453;" horiz-adv-x="1024" />
<glyph unicode="&#x454;" horiz-adv-x="1024" />
<glyph unicode="&#x455;" horiz-adv-x="1024" />
<glyph unicode="&#x456;" horiz-adv-x="1024" />
<glyph unicode="&#x457;" horiz-adv-x="1024" />
<glyph unicode="&#x458;" horiz-adv-x="1024" />
<glyph unicode="&#x459;" horiz-adv-x="1024" />
<glyph unicode="&#x45a;" horiz-adv-x="1024" />
<glyph unicode="&#x45b;" horiz-adv-x="1024" />
<glyph unicode="&#x45c;" horiz-adv-x="1024" />
<glyph unicode="&#x45e;" horiz-adv-x="1024" />
<glyph unicode="&#x45f;" horiz-adv-x="1024" />
<glyph unicode="&#x460;" horiz-adv-x="1024" />
<glyph unicode="&#x461;" horiz-adv-x="1024" />
<glyph unicode="&#x462;" horiz-adv-x="1024" />
<glyph unicode="&#x463;" horiz-adv-x="1024" />
<glyph unicode="&#x464;" horiz-adv-x="1024" />
<glyph unicode="&#x465;" horiz-adv-x="1024" />
<glyph unicode="&#x466;" horiz-adv-x="1024" />
<glyph unicode="&#x467;" horiz-adv-x="1024" />
<glyph unicode="&#x468;" horiz-adv-x="1024" />
<glyph unicode="&#x469;" horiz-adv-x="1024" />
<glyph unicode="&#x46a;" horiz-adv-x="1024" />
<glyph unicode="&#x46b;" horiz-adv-x="1024" />
<glyph unicode="&#x46c;" horiz-adv-x="1024" />
<glyph unicode="&#x46d;" horiz-adv-x="1024" />
<glyph unicode="&#x46e;" horiz-adv-x="1024" />
<glyph unicode="&#x46f;" horiz-adv-x="1024" />
<glyph unicode="&#x470;" horiz-adv-x="1024" />
<glyph unicode="&#x471;" horiz-adv-x="1024" />
<glyph unicode="&#x472;" horiz-adv-x="1024" />
<glyph unicode="&#x473;" horiz-adv-x="1024" />
<glyph unicode="&#x474;" horiz-adv-x="1024" />
<glyph unicode="&#x475;" horiz-adv-x="1024" />
<glyph unicode="&#x476;" horiz-adv-x="1024" />
<glyph unicode="&#x477;" horiz-adv-x="1024" />
<glyph unicode="&#x478;" horiz-adv-x="1024" />
<glyph unicode="&#x479;" horiz-adv-x="1024" />
<glyph unicode="&#x47a;" horiz-adv-x="1024" />
<glyph unicode="&#x47b;" horiz-adv-x="1024" />
<glyph unicode="&#x47c;" horiz-adv-x="1024" />
<glyph unicode="&#x47d;" horiz-adv-x="1024" />
<glyph unicode="&#x47e;" horiz-adv-x="1024" />
<glyph unicode="&#x47f;" horiz-adv-x="1024" />
<glyph unicode="&#x480;" horiz-adv-x="1024" />
<glyph unicode="&#x481;" horiz-adv-x="1024" />
<glyph unicode="&#x482;" horiz-adv-x="1024" />
<glyph unicode="&#x483;" horiz-adv-x="1024" />
<glyph unicode="&#x484;" horiz-adv-x="1024" />
<glyph unicode="&#x485;" horiz-adv-x="1024" />
<glyph unicode="&#x486;" horiz-adv-x="1024" />
<glyph unicode="&#x490;" horiz-adv-x="1024" />
<glyph unicode="&#x491;" horiz-adv-x="1024" />
<glyph unicode="&#x492;" horiz-adv-x="1024" />
<glyph unicode="&#x493;" horiz-adv-x="1024" />
<glyph unicode="&#x494;" horiz-adv-x="1024" />
<glyph unicode="&#x495;" horiz-adv-x="1024" />
<glyph unicode="&#x496;" horiz-adv-x="1024" />
<glyph unicode="&#x497;" horiz-adv-x="1024" />
<glyph unicode="&#x498;" horiz-adv-x="1024" />
<glyph unicode="&#x499;" horiz-adv-x="1024" />
<glyph unicode="&#x49a;" horiz-adv-x="1024" />
<glyph unicode="&#x49b;" horiz-adv-x="1024" />
<glyph unicode="&#x49c;" horiz-adv-x="1024" />
<glyph unicode="&#x49d;" horiz-adv-x="1024" />
<glyph unicode="&#x49e;" horiz-adv-x="1024" />
<glyph unicode="&#x49f;" horiz-adv-x="1024" />
<glyph unicode="&#x4a0;" horiz-adv-x="1024" />
<glyph unicode="&#x4a1;" horiz-adv-x="1024" />
<glyph unicode="&#x4a2;" horiz-adv-x="1024" />
<glyph unicode="&#x4a3;" horiz-adv-x="1024" />
<glyph unicode="&#x4a4;" horiz-adv-x="1024" />
<glyph unicode="&#x4a5;" horiz-adv-x="1024" />
<glyph unicode="&#x4a6;" horiz-adv-x="1024" />
<glyph unicode="&#x4a7;" horiz-adv-x="1024" />
<glyph unicode="&#x4a8;" horiz-adv-x="1024" />
<glyph unicode="&#x4a9;" horiz-adv-x="1024" />
<glyph unicode="&#x4aa;" horiz-adv-x="1024" />
<glyph unicode="&#x4ab;" horiz-adv-x="1024" />
<glyph unicode="&#x4ac;" horiz-adv-x="1024" />
<glyph unicode="&#x4ad;" horiz-adv-x="1024" />
<glyph unicode="&#x4ae;" horiz-adv-x="1024" />
<glyph unicode="&#x4af;" horiz-adv-x="1024" />
<glyph unicode="&#x4b0;" horiz-adv-x="1024" />
<glyph unicode="&#x4b1;" horiz-adv-x="1024" />
<glyph unicode="&#x4b2;" horiz-adv-x="1024" />
<glyph unicode="&#x4b3;" horiz-adv-x="1024" />
<glyph unicode="&#x4b4;" horiz-adv-x="1024" />
<glyph unicode="&#x4b5;" horiz-adv-x="1024" />
<glyph unicode="&#x4b6;" horiz-adv-x="1024" />
<glyph unicode="&#x4b7;" horiz-adv-x="1024" />
<glyph unicode="&#x4b8;" horiz-adv-x="1024" />
<glyph unicode="&#x4b9;" horiz-adv-x="1024" />
<glyph unicode="&#x4ba;" horiz-adv-x="1024" />
<glyph unicode="&#x4bb;" horiz-adv-x="1024" />
<glyph unicode="&#x4bc;" horiz-adv-x="1024" />
<glyph unicode="&#x4bd;" horiz-adv-x="1024" />
<glyph unicode="&#x4be;" horiz-adv-x="1024" />
<glyph unicode="&#x4bf;" horiz-adv-x="1024" />
<glyph unicode="&#x4c0;" horiz-adv-x="1024" />
<glyph unicode="&#x4c1;" horiz-adv-x="1024" />
<glyph unicode="&#x4c2;" horiz-adv-x="1024" />
<glyph unicode="&#x4c3;" horiz-adv-x="1024" />
<glyph unicode="&#x4c4;" horiz-adv-x="1024" />
<glyph unicode="&#x4c7;" horiz-adv-x="1024" />
<glyph unicode="&#x4c8;" horiz-adv-x="1024" />
<glyph unicode="&#x4cb;" horiz-adv-x="1024" />
<glyph unicode="&#x4cc;" horiz-adv-x="1024" />
<glyph unicode="&#x4d0;" horiz-adv-x="1024" />
<glyph unicode="&#x4d1;" horiz-adv-x="1024" />
<glyph unicode="&#x4d2;" horiz-adv-x="1024" />
<glyph unicode="&#x4d3;" horiz-adv-x="1024" />
<glyph unicode="&#x4d4;" horiz-adv-x="1024" />
<glyph unicode="&#x4d5;" horiz-adv-x="1024" />
<glyph unicode="&#x4d6;" horiz-adv-x="1024" />
<glyph unicode="&#x4d7;" horiz-adv-x="1024" />
<glyph unicode="&#x4d8;" horiz-adv-x="1024" />
<glyph unicode="&#x4d9;" horiz-adv-x="1024" />
<glyph unicode="&#x4da;" horiz-adv-x="1024" />
<glyph unicode="&#x4db;" horiz-adv-x="1024" />
<glyph unicode="&#x4dc;" horiz-adv-x="1024" />
<glyph unicode="&#x4dd;" horiz-adv-x="1024" />
<glyph unicode="&#x4de;" horiz-adv-x="1024" />
<glyph unicode="&#x4df;" horiz-adv-x="1024" />
<glyph unicode="&#x4e0;" horiz-adv-x="1024" />
<glyph unicode="&#x4e1;" horiz-adv-x="1024" />
<glyph unicode="&#x4e2;" horiz-adv-x="1024" />
<glyph unicode="&#x4e3;" horiz-adv-x="1024" />
<glyph unicode="&#x4e4;" horiz-adv-x="1024" />
<glyph unicode="&#x4e5;" horiz-adv-x="1024" />
<glyph unicode="&#x4e6;" horiz-adv-x="1024" />
<glyph unicode="&#x4e7;" horiz-adv-x="1024" />
<glyph unicode="&#x4e8;" horiz-adv-x="1024" />
<glyph unicode="&#x4e9;" horiz-adv-x="1024" />
<glyph unicode="&#x4ea;" horiz-adv-x="1024" />
<glyph unicode="&#x4eb;" horiz-adv-x="1024" />
<glyph unicode="&#x4ee;" horiz-adv-x="1024" />
<glyph unicode="&#x4ef;" horiz-adv-x="1024" />
<glyph unicode="&#x4f0;" horiz-adv-x="1024" />
<glyph unicode="&#x4f1;" horiz-adv-x="1024" />
<glyph unicode="&#x4f2;" horiz-adv-x="1024" />
<glyph unicode="&#x4f3;" horiz-adv-x="1024" />
<glyph unicode="&#x4f4;" horiz-adv-x="1024" />
<glyph unicode="&#x4f5;" horiz-adv-x="1024" />
<glyph unicode="&#x4f8;" horiz-adv-x="1024" />
<glyph unicode="&#x4f9;" horiz-adv-x="1024" />
<glyph unicode="&#x1e80;" horiz-adv-x="1024" />
<glyph unicode="&#x1e81;" horiz-adv-x="1024" />
<glyph unicode="&#x1e82;" horiz-adv-x="1024" />
<glyph unicode="&#x1e83;" horiz-adv-x="1024" />
<glyph unicode="&#x1e84;" horiz-adv-x="1024" />
<glyph unicode="&#x1e85;" horiz-adv-x="1024" />
<glyph unicode="&#x1ef2;" horiz-adv-x="1024" />
<glyph unicode="&#x1ef3;" horiz-adv-x="1024" />
<glyph unicode="&#x2000;" horiz-adv-x="1024" />
<glyph unicode="&#x2001;" />
<glyph unicode="&#x2002;" horiz-adv-x="1024" />
<glyph unicode="&#x2003;" />
<glyph unicode="&#x2004;" horiz-adv-x="1024" />
<glyph unicode="&#x2005;" horiz-adv-x="1024" />
<glyph unicode="&#x2006;" horiz-adv-x="1024" />
<glyph unicode="&#x2007;" horiz-adv-x="1024" />
<glyph unicode="&#x2008;" horiz-adv-x="1024" />
<glyph unicode="&#x2009;" horiz-adv-x="1024" />
<glyph unicode="&#x200a;" horiz-adv-x="1024" />
<glyph unicode="&#x200b;" horiz-adv-x="1024" />
<glyph unicode="&#x200c;" horiz-adv-x="1024" />
<glyph unicode="&#x200d;" horiz-adv-x="1024" />
<glyph unicode="&#x200e;" horiz-adv-x="1024" />
<glyph unicode="&#x200f;" horiz-adv-x="1024" />
<glyph unicode="&#x2010;" />
<glyph unicode="&#x2011;" horiz-adv-x="1024" />
<glyph unicode="&#x2012;" horiz-adv-x="1024" />
<glyph unicode="&#x2013;" horiz-adv-x="1024" />
<glyph unicode="&#x2014;" horiz-adv-x="1024" />
<glyph unicode="&#x2015;" />
<glyph unicode="&#x2017;" horiz-adv-x="1024" />
<glyph unicode="&#x2018;" />
<glyph unicode="&#x2019;" />
<glyph unicode="&#x201a;" horiz-adv-x="1024" />
<glyph unicode="&#x201b;" horiz-adv-x="1024" />
<glyph unicode="&#x201c;" />
<glyph unicode="&#x201d;" />
<glyph unicode="&#x201e;" horiz-adv-x="1024" />
<glyph unicode="&#x201f;" horiz-adv-x="1024" />
<glyph unicode="&#x2020;" />
<glyph unicode="&#x2021;" />
<glyph unicode="&#x2022;" horiz-adv-x="1024" />
<glyph unicode="&#x2023;" horiz-adv-x="1024" />
<glyph unicode="&#x2024;" horiz-adv-x="1024" />
<glyph unicode="&#x2025;" />
<glyph unicode="&#x2026;" />
<glyph unicode="&#x2027;" horiz-adv-x="1024" />
<glyph unicode="&#x2028;" horiz-adv-x="1024" />
<glyph unicode="&#x2029;" horiz-adv-x="1024" />
<glyph unicode="&#x202a;" horiz-adv-x="1024" />
<glyph unicode="&#x202b;" horiz-adv-x="1024" />
<glyph unicode="&#x202c;" horiz-adv-x="1024" />
<glyph unicode="&#x202d;" horiz-adv-x="1024" />
<glyph unicode="&#x202e;" horiz-adv-x="1024" />
<glyph unicode="&#x202f;" horiz-adv-x="366" vert-adv-y="0" />
<glyph unicode="&#x2030;" />
<glyph unicode="&#x2031;" horiz-adv-x="1024" />
<glyph unicode="&#x2032;" />
<glyph unicode="&#x2033;" />
<glyph unicode="&#x2034;" horiz-adv-x="1024" />
<glyph unicode="&#x2035;" horiz-adv-x="1024" />
<glyph unicode="&#x2036;" horiz-adv-x="1024" />
<glyph unicode="&#x2037;" horiz-adv-x="1024" />
<glyph unicode="&#x2038;" horiz-adv-x="1024" />
<glyph unicode="&#x2039;" horiz-adv-x="1024" />
<glyph unicode="&#x203a;" horiz-adv-x="1024" />
<glyph unicode="&#x203b;" d="M160 750q72 74 188 44q88 -30 102 -132l-14 -44l14 -44l-14 -44l14 -44l-44 -28q-86 28 -100 102zM248 1394h58l580 -600h44l116 160h30l100 162q190 160 422 220l58 -16v-130q-242 -304 -508 -586v-44l188 -146v-30h30v-28q188 -118 362 -278l16 -44l-116 -16 q-190 44 -350 191t-334 219l-362 -350l-16 -60l-188 -14l-102 74l72 44l102 190l44 14l204 248l58 16v58l-132 116l-14 74l-44 14l-14 44l-44 16q-188 218 -260 482zM712 1438l14 44l160 14l146 -58l28 -102l-102 -146l-100 -16l-44 30q-72 116 -102 234zM828 166 q58 86 160 72l102 -102v-102l-72 -118l-60 -28zM1452 678v72l16 30h28l14 44l102 14l102 -74l14 -86l-14 -60l-44 -28l-28 -88h-58q-88 72 -132 176z" />
<glyph unicode="&#x203c;" horiz-adv-x="1024" />
<glyph unicode="&#x203d;" horiz-adv-x="1024" />
<glyph unicode="&#x203e;" horiz-adv-x="1024" />
<glyph unicode="&#x203f;" horiz-adv-x="1024" />
<glyph unicode="&#x2040;" horiz-adv-x="1024" />
<glyph unicode="&#x2041;" horiz-adv-x="1024" />
<glyph unicode="&#x2042;" horiz-adv-x="1024" />
<glyph unicode="&#x2043;" horiz-adv-x="1024" />
<glyph unicode="&#x2044;" horiz-adv-x="1024" />
<glyph unicode="&#x2045;" horiz-adv-x="1024" />
<glyph unicode="&#x2046;" horiz-adv-x="1024" />
<glyph unicode="&#x205f;" horiz-adv-x="458" vert-adv-y="0" />
<glyph unicode="&#x2070;" horiz-adv-x="1024" />
<glyph unicode="&#x2074;" horiz-adv-x="1024" />
<glyph unicode="&#x2075;" horiz-adv-x="1024" />
<glyph unicode="&#x2076;" horiz-adv-x="1024" />
<glyph unicode="&#x2077;" horiz-adv-x="1024" />
<glyph unicode="&#x2078;" horiz-adv-x="1024" />
<glyph unicode="&#x2079;" horiz-adv-x="1024" />
<glyph unicode="&#x207a;" horiz-adv-x="1024" />
<glyph unicode="&#x207b;" horiz-adv-x="1024" />
<glyph unicode="&#x207c;" horiz-adv-x="1024" />
<glyph unicode="&#x207d;" horiz-adv-x="1024" />
<glyph unicode="&#x207e;" horiz-adv-x="1024" />
<glyph unicode="&#x207f;" horiz-adv-x="1024" />
<glyph unicode="&#x2080;" horiz-adv-x="1024" />
<glyph unicode="&#x2081;" horiz-adv-x="1024" />
<glyph unicode="&#x2082;" horiz-adv-x="1024" />
<glyph unicode="&#x2083;" horiz-adv-x="1024" />
<glyph unicode="&#x2084;" horiz-adv-x="1024" />
<glyph unicode="&#x2085;" horiz-adv-x="1024" />
<glyph unicode="&#x2086;" horiz-adv-x="1024" />
<glyph unicode="&#x2087;" horiz-adv-x="1024" />
<glyph unicode="&#x2088;" horiz-adv-x="1024" />
<glyph unicode="&#x2089;" horiz-adv-x="1024" />
<glyph unicode="&#x208a;" horiz-adv-x="1024" />
<glyph unicode="&#x208b;" horiz-adv-x="1024" />
<glyph unicode="&#x208c;" horiz-adv-x="1024" />
<glyph unicode="&#x208d;" horiz-adv-x="1024" />
<glyph unicode="&#x208e;" horiz-adv-x="1024" />
<glyph unicode="&#x20a0;" horiz-adv-x="1024" />
<glyph unicode="&#x20a1;" horiz-adv-x="1024" />
<glyph unicode="&#x20a2;" horiz-adv-x="1024" />
<glyph unicode="&#x20a3;" horiz-adv-x="1024" />
<glyph unicode="&#x20a4;" horiz-adv-x="1024" />
<glyph unicode="&#x20a5;" horiz-adv-x="1024" />
<glyph unicode="&#x20a6;" horiz-adv-x="1024" />
<glyph unicode="&#x20a7;" horiz-adv-x="1024" />
<glyph unicode="&#x20a8;" horiz-adv-x="1024" />
<glyph unicode="&#x20a9;" horiz-adv-x="1024" />
<glyph unicode="&#x20aa;" horiz-adv-x="1024" />
<glyph unicode="&#x2100;" horiz-adv-x="1024" />
<glyph unicode="&#x2101;" horiz-adv-x="1024" />
<glyph unicode="&#x2102;" horiz-adv-x="1024" />
<glyph unicode="&#x2103;" />
<glyph unicode="&#x2104;" horiz-adv-x="1024" />
<glyph unicode="&#x2105;" horiz-adv-x="1024" />
<glyph unicode="&#x2106;" horiz-adv-x="1024" />
<glyph unicode="&#x2107;" horiz-adv-x="1024" />
<glyph unicode="&#x2108;" horiz-adv-x="1024" />
<glyph unicode="&#x2109;" horiz-adv-x="1024" />
<glyph unicode="&#x210a;" horiz-adv-x="1024" />
<glyph unicode="&#x210b;" horiz-adv-x="1024" />
<glyph unicode="&#x210c;" horiz-adv-x="1024" />
<glyph unicode="&#x210d;" horiz-adv-x="1024" />
<glyph unicode="&#x210e;" horiz-adv-x="1024" />
<glyph unicode="&#x210f;" horiz-adv-x="1024" />
<glyph unicode="&#x2110;" horiz-adv-x="1024" />
<glyph unicode="&#x2111;" horiz-adv-x="1024" />
<glyph unicode="&#x2112;" horiz-adv-x="1024" />
<glyph unicode="&#x2113;" horiz-adv-x="1024" />
<glyph unicode="&#x2114;" horiz-adv-x="1024" />
<glyph unicode="&#x2115;" horiz-adv-x="1024" />
<glyph unicode="&#x2116;" />
<glyph unicode="&#x2117;" horiz-adv-x="1024" />
<glyph unicode="&#x2118;" horiz-adv-x="1024" />
<glyph unicode="&#x2119;" horiz-adv-x="1024" />
<glyph unicode="&#x211a;" horiz-adv-x="1024" />
<glyph unicode="&#x211b;" horiz-adv-x="1024" />
<glyph unicode="&#x211c;" horiz-adv-x="1024" />
<glyph unicode="&#x211d;" horiz-adv-x="1024" />
<glyph unicode="&#x211e;" horiz-adv-x="1024" />
<glyph unicode="&#x211f;" horiz-adv-x="1024" />
<glyph unicode="&#x2120;" horiz-adv-x="1024" />
<glyph unicode="&#x2121;" />
<glyph unicode="&#x2122;" horiz-adv-x="1024" />
<glyph unicode="&#x2123;" horiz-adv-x="1024" />
<glyph unicode="&#x2124;" horiz-adv-x="1024" />
<glyph unicode="&#x2125;" horiz-adv-x="1024" />
<glyph unicode="&#x2126;" horiz-adv-x="1024" />
<glyph unicode="&#x2127;" horiz-adv-x="1024" />
<glyph unicode="&#x2128;" horiz-adv-x="1024" />
<glyph unicode="&#x2129;" horiz-adv-x="1024" />
<glyph unicode="&#x212a;" horiz-adv-x="1024" />
<glyph unicode="&#x212b;" />
<glyph unicode="&#x212c;" horiz-adv-x="1024" />
<glyph unicode="&#x212d;" horiz-adv-x="1024" />
<glyph unicode="&#x212e;" horiz-adv-x="1024" />
<glyph unicode="&#x212f;" horiz-adv-x="1024" />
<glyph unicode="&#x2130;" horiz-adv-x="1024" />
<glyph unicode="&#x2131;" horiz-adv-x="1024" />
<glyph unicode="&#x2132;" horiz-adv-x="1024" />
<glyph unicode="&#x2133;" horiz-adv-x="1024" />
<glyph unicode="&#x2134;" horiz-adv-x="1024" />
<glyph unicode="&#x2135;" horiz-adv-x="1024" />
<glyph unicode="&#x2136;" horiz-adv-x="1024" />
<glyph unicode="&#x2137;" horiz-adv-x="1024" />
<glyph unicode="&#x2138;" horiz-adv-x="1024" />
<glyph unicode="&#x2153;" horiz-adv-x="1024" />
<glyph unicode="&#x2154;" horiz-adv-x="1024" />
<glyph unicode="&#x2155;" horiz-adv-x="1024" />
<glyph unicode="&#x2156;" horiz-adv-x="1024" />
<glyph unicode="&#x2157;" horiz-adv-x="1024" />
<glyph unicode="&#x2158;" horiz-adv-x="1024" />
<glyph unicode="&#x2159;" horiz-adv-x="1024" />
<glyph unicode="&#x215a;" horiz-adv-x="1024" />
<glyph unicode="&#x215b;" horiz-adv-x="1024" />
<glyph unicode="&#x215c;" horiz-adv-x="1024" />
<glyph unicode="&#x215d;" horiz-adv-x="1024" />
<glyph unicode="&#x215e;" horiz-adv-x="1024" />
<glyph unicode="&#x215f;" horiz-adv-x="1024" />
<glyph unicode="&#x2160;" />
<glyph unicode="&#x2161;" />
<glyph unicode="&#x2162;" />
<glyph unicode="&#x2163;" />
<glyph unicode="&#x2164;" />
<glyph unicode="&#x2165;" />
<glyph unicode="&#x2166;" />
<glyph unicode="&#x2167;" />
<glyph unicode="&#x2168;" />
<glyph unicode="&#x2169;" />
<glyph unicode="&#x216a;" />
<glyph unicode="&#x216b;" />
<glyph unicode="&#x216c;" />
<glyph unicode="&#x216d;" />
<glyph unicode="&#x216e;" />
<glyph unicode="&#x216f;" />
<glyph unicode="&#x2170;" />
<glyph unicode="&#x2171;" />
<glyph unicode="&#x2172;" />
<glyph unicode="&#x2173;" />
<glyph unicode="&#x2174;" />
<glyph unicode="&#x2175;" />
<glyph unicode="&#x2176;" />
<glyph unicode="&#x2177;" />
<glyph unicode="&#x2178;" />
<glyph unicode="&#x2179;" />
<glyph unicode="&#x217a;" />
<glyph unicode="&#x217b;" />
<glyph unicode="&#x217c;" />
<glyph unicode="&#x217d;" />
<glyph unicode="&#x217e;" />
<glyph unicode="&#x217f;" />
<glyph unicode="&#x2180;" />
<glyph unicode="&#x2181;" />
<glyph unicode="&#x2182;" />
<glyph unicode="&#x2190;" d="M88 824l28 44l118 116h28l88 118l264 160l58 -44l44 -160l-44 -16v-28l-218 -250l102 -28l174 14q294 -30 586 -51t570 -81v-44q-262 -102 -570 -88l-176 16l-146 -16q-204 44 -438 30l-44 -14v-30l292 -292v-44l-102 -30q-292 206 -542 468q-88 104 -72 250z" />
<glyph unicode="&#x2191;" d="M526 1042q74 190 234 338l118 116l14 58l146 60q162 -132 337 -249t351 -219v-88l-58 -16q-308 104 -572 338q12 -222 0 -440l16 -44l-16 -88l44 -380l-14 -44q90 -286 0 -570h-30q-146 204 -168 453t-36 497l14 30l-14 264l14 190l-44 14l-218 -234h-30l-14 -58h-60z " />
<glyph unicode="&#x2192;" d="M262 552v60q264 58 542 80t570 38l234 -44l16 58l-424 206l-118 222h58q176 -88 366 -177t352 -221l44 -118l-176 -222h-30v-28l-278 -266l-116 -44l-16 74l206 354h-250l-146 -16l-44 16q-322 -46 -642 -104z" />
<glyph unicode="&#x2193;" d="M496 524l104 14l248 -294q14 352 29 691t131 649h60l28 -14v-252q-44 -308 -28 -648l14 -102l-30 -354l16 -44l-30 -266h30q174 310 410 590l86 30q60 -16 44 -90q-204 -280 -408 -574l-60 -58l16 -44h-60q-116 0 -204 72q-88 178 -212 340t-184 354z" />
<glyph unicode="&#x2194;" horiz-adv-x="1024" />
<glyph unicode="&#x2195;" horiz-adv-x="1024" />
<glyph unicode="&#x2196;" horiz-adv-x="1024" />
<glyph unicode="&#x2197;" horiz-adv-x="1024" />
<glyph unicode="&#x2198;" horiz-adv-x="1024" />
<glyph unicode="&#x2199;" horiz-adv-x="1024" />
<glyph unicode="&#x219a;" horiz-adv-x="1024" />
<glyph unicode="&#x219b;" horiz-adv-x="1024" />
<glyph unicode="&#x219c;" horiz-adv-x="1024" />
<glyph unicode="&#x219d;" horiz-adv-x="1024" />
<glyph unicode="&#x219e;" horiz-adv-x="1024" />
<glyph unicode="&#x219f;" horiz-adv-x="1024" />
<glyph unicode="&#x21a0;" horiz-adv-x="1024" />
<glyph unicode="&#x21a1;" horiz-adv-x="1024" />
<glyph unicode="&#x21a2;" horiz-adv-x="1024" />
<glyph unicode="&#x21a3;" horiz-adv-x="1024" />
<glyph unicode="&#x21a4;" horiz-adv-x="1024" />
<glyph unicode="&#x21a5;" horiz-adv-x="1024" />
<glyph unicode="&#x21a6;" horiz-adv-x="1024" />
<glyph unicode="&#x21a7;" horiz-adv-x="1024" />
<glyph unicode="&#x21a8;" horiz-adv-x="1024" />
<glyph unicode="&#x21a9;" horiz-adv-x="1024" />
<glyph unicode="&#x21aa;" horiz-adv-x="1024" />
<glyph unicode="&#x21ab;" horiz-adv-x="1024" />
<glyph unicode="&#x21ac;" horiz-adv-x="1024" />
<glyph unicode="&#x21ad;" horiz-adv-x="1024" />
<glyph unicode="&#x21ae;" horiz-adv-x="1024" />
<glyph unicode="&#x21af;" horiz-adv-x="1024" />
<glyph unicode="&#x21b0;" horiz-adv-x="1024" />
<glyph unicode="&#x21b1;" horiz-adv-x="1024" />
<glyph unicode="&#x21b2;" horiz-adv-x="1024" />
<glyph unicode="&#x21b3;" horiz-adv-x="1024" />
<glyph unicode="&#x21b4;" horiz-adv-x="1024" />
<glyph unicode="&#x21b5;" horiz-adv-x="1024" />
<glyph unicode="&#x21b6;" horiz-adv-x="1024" />
<glyph unicode="&#x21b7;" horiz-adv-x="1024" />
<glyph unicode="&#x21b8;" horiz-adv-x="1024" />
<glyph unicode="&#x21b9;" horiz-adv-x="1024" />
<glyph unicode="&#x21ba;" horiz-adv-x="1024" />
<glyph unicode="&#x21bb;" horiz-adv-x="1024" />
<glyph unicode="&#x21bc;" horiz-adv-x="1024" />
<glyph unicode="&#x21bd;" horiz-adv-x="1024" />
<glyph unicode="&#x21be;" horiz-adv-x="1024" />
<glyph unicode="&#x21bf;" horiz-adv-x="1024" />
<glyph unicode="&#x21c0;" horiz-adv-x="1024" />
<glyph unicode="&#x21c1;" horiz-adv-x="1024" />
<glyph unicode="&#x21c2;" horiz-adv-x="1024" />
<glyph unicode="&#x21c3;" horiz-adv-x="1024" />
<glyph unicode="&#x21c4;" horiz-adv-x="1024" />
<glyph unicode="&#x21c5;" horiz-adv-x="1024" />
<glyph unicode="&#x21c6;" horiz-adv-x="1024" />
<glyph unicode="&#x21c7;" horiz-adv-x="1024" />
<glyph unicode="&#x21c8;" horiz-adv-x="1024" />
<glyph unicode="&#x21c9;" horiz-adv-x="1024" />
<glyph unicode="&#x21ca;" horiz-adv-x="1024" />
<glyph unicode="&#x21cb;" horiz-adv-x="1024" />
<glyph unicode="&#x21cc;" horiz-adv-x="1024" />
<glyph unicode="&#x21cd;" horiz-adv-x="1024" />
<glyph unicode="&#x21ce;" horiz-adv-x="1024" />
<glyph unicode="&#x21cf;" horiz-adv-x="1024" />
<glyph unicode="&#x21d0;" horiz-adv-x="1024" />
<glyph unicode="&#x21d1;" horiz-adv-x="1024" />
<glyph unicode="&#x21d2;" />
<glyph unicode="&#x21d3;" horiz-adv-x="1024" />
<glyph unicode="&#x21d4;" />
<glyph unicode="&#x21d5;" horiz-adv-x="1024" />
<glyph unicode="&#x21d6;" horiz-adv-x="1024" />
<glyph unicode="&#x21d7;" horiz-adv-x="1024" />
<glyph unicode="&#x21d8;" horiz-adv-x="1024" />
<glyph unicode="&#x21d9;" horiz-adv-x="1024" />
<glyph unicode="&#x21da;" horiz-adv-x="1024" />
<glyph unicode="&#x21db;" horiz-adv-x="1024" />
<glyph unicode="&#x21dc;" horiz-adv-x="1024" />
<glyph unicode="&#x21dd;" horiz-adv-x="1024" />
<glyph unicode="&#x21de;" horiz-adv-x="1024" />
<glyph unicode="&#x21df;" horiz-adv-x="1024" />
<glyph unicode="&#x21e0;" horiz-adv-x="1024" />
<glyph unicode="&#x21e1;" horiz-adv-x="1024" />
<glyph unicode="&#x21e2;" horiz-adv-x="1024" />
<glyph unicode="&#x21e3;" horiz-adv-x="1024" />
<glyph unicode="&#x21e4;" horiz-adv-x="1024" />
<glyph unicode="&#x21e5;" horiz-adv-x="1024" />
<glyph unicode="&#x21e6;" horiz-adv-x="1024" />
<glyph unicode="&#x21e7;" horiz-adv-x="1024" />
<glyph unicode="&#x21e8;" horiz-adv-x="1024" />
<glyph unicode="&#x21e9;" horiz-adv-x="1024" />
<glyph unicode="&#x21ea;" horiz-adv-x="1024" />
<glyph unicode="&#x2200;" />
<glyph unicode="&#x2201;" horiz-adv-x="1024" />
<glyph unicode="&#x2202;" />
<glyph unicode="&#x2203;" />
<glyph unicode="&#x2204;" horiz-adv-x="1024" />
<glyph unicode="&#x2205;" horiz-adv-x="1024" />
<glyph unicode="&#x2206;" horiz-adv-x="1024" />
<glyph unicode="&#x2207;" />
<glyph unicode="&#x2208;" />
<glyph unicode="&#x2209;" horiz-adv-x="1024" />
<glyph unicode="&#x220a;" horiz-adv-x="1024" />
<glyph unicode="&#x220b;" />
<glyph unicode="&#x220c;" horiz-adv-x="1024" />
<glyph unicode="&#x220d;" horiz-adv-x="1024" />
<glyph unicode="&#x220e;" horiz-adv-x="1024" />
<glyph unicode="&#x220f;" horiz-adv-x="1024" />
<glyph unicode="&#x2210;" horiz-adv-x="1024" />
<glyph unicode="&#x2211;" />
<glyph unicode="&#x2212;" horiz-adv-x="1024" />
<glyph unicode="&#x2213;" horiz-adv-x="1024" />
<glyph unicode="&#x2214;" horiz-adv-x="1024" />
<glyph unicode="&#x2215;" horiz-adv-x="1024" />
<glyph unicode="&#x2216;" horiz-adv-x="1024" />
<glyph unicode="&#x2217;" horiz-adv-x="1024" />
<glyph unicode="&#x2218;" horiz-adv-x="1024" />
<glyph unicode="&#x2219;" horiz-adv-x="1024" />
<glyph unicode="&#x221a;" />
<glyph unicode="&#x221b;" horiz-adv-x="1024" />
<glyph unicode="&#x221c;" horiz-adv-x="1024" />
<glyph unicode="&#x221d;" />
<glyph unicode="&#x221e;" />
<glyph unicode="&#x221f;" />
<glyph unicode="&#x2220;" />
<glyph unicode="&#x2221;" horiz-adv-x="1024" />
<glyph unicode="&#x2222;" horiz-adv-x="1024" />
<glyph unicode="&#x2223;" horiz-adv-x="1024" />
<glyph unicode="&#x2224;" horiz-adv-x="1024" />
<glyph unicode="&#x2225;" />
<glyph unicode="&#x2226;" horiz-adv-x="1024" />
<glyph unicode="&#x2227;" />
<glyph unicode="&#x2228;" />
<glyph unicode="&#x2229;" />
<glyph unicode="&#x222a;" />
<glyph unicode="&#x222b;" />
<glyph unicode="&#x222c;" />
<glyph unicode="&#x222d;" horiz-adv-x="1024" />
<glyph unicode="&#x222e;" />
<glyph unicode="&#x222f;" horiz-adv-x="1024" />
<glyph unicode="&#x2230;" horiz-adv-x="1024" />
<glyph unicode="&#x2231;" horiz-adv-x="1024" />
<glyph unicode="&#x2232;" horiz-adv-x="1024" />
<glyph unicode="&#x2233;" horiz-adv-x="1024" />
<glyph unicode="&#x2234;" />
<glyph unicode="&#x2235;" />
<glyph unicode="&#x2236;" horiz-adv-x="1024" />
<glyph unicode="&#x2237;" horiz-adv-x="1024" />
<glyph unicode="&#x2238;" horiz-adv-x="1024" />
<glyph unicode="&#x2239;" horiz-adv-x="1024" />
<glyph unicode="&#x223a;" horiz-adv-x="1024" />
<glyph unicode="&#x223b;" horiz-adv-x="1024" />
<glyph unicode="&#x223c;" horiz-adv-x="1024" />
<glyph unicode="&#x223d;" />
<glyph unicode="&#x223e;" horiz-adv-x="1024" />
<glyph unicode="&#x223f;" horiz-adv-x="1024" />
<glyph unicode="&#x2240;" horiz-adv-x="1024" />
<glyph unicode="&#x2241;" horiz-adv-x="1024" />
<glyph unicode="&#x2242;" horiz-adv-x="1024" />
<glyph unicode="&#x2243;" horiz-adv-x="1024" />
<glyph unicode="&#x2244;" horiz-adv-x="1024" />
<glyph unicode="&#x2245;" horiz-adv-x="1024" />
<glyph unicode="&#x2246;" horiz-adv-x="1024" />
<glyph unicode="&#x2247;" horiz-adv-x="1024" />
<glyph unicode="&#x2248;" horiz-adv-x="1024" />
<glyph unicode="&#x2249;" horiz-adv-x="1024" />
<glyph unicode="&#x224a;" horiz-adv-x="1024" />
<glyph unicode="&#x224b;" horiz-adv-x="1024" />
<glyph unicode="&#x224c;" horiz-adv-x="1024" />
<glyph unicode="&#x224d;" horiz-adv-x="1024" />
<glyph unicode="&#x224e;" horiz-adv-x="1024" />
<glyph unicode="&#x224f;" horiz-adv-x="1024" />
<glyph unicode="&#x2250;" horiz-adv-x="1024" />
<glyph unicode="&#x2251;" horiz-adv-x="1024" />
<glyph unicode="&#x2252;" />
<glyph unicode="&#x2253;" horiz-adv-x="1024" />
<glyph unicode="&#x2254;" horiz-adv-x="1024" />
<glyph unicode="&#x2255;" horiz-adv-x="1024" />
<glyph unicode="&#x2256;" horiz-adv-x="1024" />
<glyph unicode="&#x2257;" horiz-adv-x="1024" />
<glyph unicode="&#x2258;" horiz-adv-x="1024" />
<glyph unicode="&#x2259;" horiz-adv-x="1024" />
<glyph unicode="&#x225a;" horiz-adv-x="1024" />
<glyph unicode="&#x225b;" horiz-adv-x="1024" />
<glyph unicode="&#x225c;" horiz-adv-x="1024" />
<glyph unicode="&#x225d;" horiz-adv-x="1024" />
<glyph unicode="&#x225e;" horiz-adv-x="1024" />
<glyph unicode="&#x225f;" horiz-adv-x="1024" />
<glyph unicode="&#x2260;" />
<glyph unicode="&#x2261;" />
<glyph unicode="&#x2262;" horiz-adv-x="1024" />
<glyph unicode="&#x2263;" horiz-adv-x="1024" />
<glyph unicode="&#x2264;" horiz-adv-x="1024" />
<glyph unicode="&#x2265;" horiz-adv-x="1024" />
<glyph unicode="&#x2266;" />
<glyph unicode="&#x2267;" />
<glyph unicode="&#x2268;" horiz-adv-x="1024" />
<glyph unicode="&#x2269;" horiz-adv-x="1024" />
<glyph unicode="&#x226a;" />
<glyph unicode="&#x226b;" />
<glyph unicode="&#x226c;" horiz-adv-x="1024" />
<glyph unicode="&#x226d;" horiz-adv-x="1024" />
<glyph unicode="&#x226e;" horiz-adv-x="1024" />
<glyph unicode="&#x226f;" horiz-adv-x="1024" />
<glyph unicode="&#x2270;" horiz-adv-x="1024" />
<glyph unicode="&#x2271;" horiz-adv-x="1024" />
<glyph unicode="&#x2272;" horiz-adv-x="1024" />
<glyph unicode="&#x2273;" horiz-adv-x="1024" />
<glyph unicode="&#x2274;" horiz-adv-x="1024" />
<glyph unicode="&#x2275;" horiz-adv-x="1024" />
<glyph unicode="&#x2276;" horiz-adv-x="1024" />
<glyph unicode="&#x2277;" horiz-adv-x="1024" />
<glyph unicode="&#x2278;" horiz-adv-x="1024" />
<glyph unicode="&#x2279;" horiz-adv-x="1024" />
<glyph unicode="&#x227a;" horiz-adv-x="1024" />
<glyph unicode="&#x227b;" horiz-adv-x="1024" />
<glyph unicode="&#x227c;" horiz-adv-x="1024" />
<glyph unicode="&#x227d;" horiz-adv-x="1024" />
<glyph unicode="&#x227e;" horiz-adv-x="1024" />
<glyph unicode="&#x227f;" horiz-adv-x="1024" />
<glyph unicode="&#x2280;" horiz-adv-x="1024" />
<glyph unicode="&#x2281;" horiz-adv-x="1024" />
<glyph unicode="&#x2282;" />
<glyph unicode="&#x2283;" />
<glyph unicode="&#x2284;" horiz-adv-x="1024" />
<glyph unicode="&#x2285;" horiz-adv-x="1024" />
<glyph unicode="&#x2286;" />
<glyph unicode="&#x2287;" />
<glyph unicode="&#x2288;" horiz-adv-x="1024" />
<glyph unicode="&#x2289;" horiz-adv-x="1024" />
<glyph unicode="&#x228a;" horiz-adv-x="1024" />
<glyph unicode="&#x228b;" horiz-adv-x="1024" />
<glyph unicode="&#x228c;" horiz-adv-x="1024" />
<glyph unicode="&#x228d;" horiz-adv-x="1024" />
<glyph unicode="&#x228e;" horiz-adv-x="1024" />
<glyph unicode="&#x228f;" horiz-adv-x="1024" />
<glyph unicode="&#x2290;" horiz-adv-x="1024" />
<glyph unicode="&#x2291;" horiz-adv-x="1024" />
<glyph unicode="&#x2292;" horiz-adv-x="1024" />
<glyph unicode="&#x2293;" horiz-adv-x="1024" />
<glyph unicode="&#x2294;" horiz-adv-x="1024" />
<glyph unicode="&#x2295;" horiz-adv-x="1024" />
<glyph unicode="&#x2296;" horiz-adv-x="1024" />
<glyph unicode="&#x2297;" horiz-adv-x="1024" />
<glyph unicode="&#x2298;" horiz-adv-x="1024" />
<glyph unicode="&#x2299;" horiz-adv-x="1024" />
<glyph unicode="&#x229a;" horiz-adv-x="1024" />
<glyph unicode="&#x229b;" horiz-adv-x="1024" />
<glyph unicode="&#x229c;" horiz-adv-x="1024" />
<glyph unicode="&#x229d;" horiz-adv-x="1024" />
<glyph unicode="&#x229e;" horiz-adv-x="1024" />
<glyph unicode="&#x229f;" horiz-adv-x="1024" />
<glyph unicode="&#x22a0;" horiz-adv-x="1024" />
<glyph unicode="&#x22a1;" horiz-adv-x="1024" />
<glyph unicode="&#x22a2;" horiz-adv-x="1024" />
<glyph unicode="&#x22a3;" horiz-adv-x="1024" />
<glyph unicode="&#x22a4;" horiz-adv-x="1024" />
<glyph unicode="&#x22a5;" />
<glyph unicode="&#x22a6;" horiz-adv-x="1024" />
<glyph unicode="&#x22a7;" horiz-adv-x="1024" />
<glyph unicode="&#x22a8;" horiz-adv-x="1024" />
<glyph unicode="&#x22a9;" horiz-adv-x="1024" />
<glyph unicode="&#x22aa;" horiz-adv-x="1024" />
<glyph unicode="&#x22ab;" horiz-adv-x="1024" />
<glyph unicode="&#x22ac;" horiz-adv-x="1024" />
<glyph unicode="&#x22ad;" horiz-adv-x="1024" />
<glyph unicode="&#x22ae;" horiz-adv-x="1024" />
<glyph unicode="&#x22af;" horiz-adv-x="1024" />
<glyph unicode="&#x22b0;" horiz-adv-x="1024" />
<glyph unicode="&#x22b1;" horiz-adv-x="1024" />
<glyph unicode="&#x22b2;" horiz-adv-x="1024" />
<glyph unicode="&#x22b3;" horiz-adv-x="1024" />
<glyph unicode="&#x22b4;" horiz-adv-x="1024" />
<glyph unicode="&#x22b5;" horiz-adv-x="1024" />
<glyph unicode="&#x22b6;" horiz-adv-x="1024" />
<glyph unicode="&#x22b7;" horiz-adv-x="1024" />
<glyph unicode="&#x22b8;" horiz-adv-x="1024" />
<glyph unicode="&#x22b9;" horiz-adv-x="1024" />
<glyph unicode="&#x22ba;" horiz-adv-x="1024" />
<glyph unicode="&#x22bb;" horiz-adv-x="1024" />
<glyph unicode="&#x22bc;" horiz-adv-x="1024" />
<glyph unicode="&#x22bd;" horiz-adv-x="1024" />
<glyph unicode="&#x22be;" horiz-adv-x="1024" />
<glyph unicode="&#x22bf;" />
<glyph unicode="&#x22c0;" horiz-adv-x="1024" />
<glyph unicode="&#x22c1;" horiz-adv-x="1024" />
<glyph unicode="&#x22c2;" horiz-adv-x="1024" />
<glyph unicode="&#x22c3;" horiz-adv-x="1024" />
<glyph unicode="&#x22c4;" horiz-adv-x="1024" />
<glyph unicode="&#x22c5;" horiz-adv-x="1024" />
<glyph unicode="&#x22c6;" horiz-adv-x="1024" />
<glyph unicode="&#x22c7;" horiz-adv-x="1024" />
<glyph unicode="&#x22c8;" horiz-adv-x="1024" />
<glyph unicode="&#x22c9;" horiz-adv-x="1024" />
<glyph unicode="&#x22ca;" horiz-adv-x="1024" />
<glyph unicode="&#x22cb;" horiz-adv-x="1024" />
<glyph unicode="&#x22cc;" horiz-adv-x="1024" />
<glyph unicode="&#x22cd;" horiz-adv-x="1024" />
<glyph unicode="&#x22ce;" horiz-adv-x="1024" />
<glyph unicode="&#x22cf;" horiz-adv-x="1024" />
<glyph unicode="&#x22d0;" horiz-adv-x="1024" />
<glyph unicode="&#x22d1;" horiz-adv-x="1024" />
<glyph unicode="&#x22d2;" horiz-adv-x="1024" />
<glyph unicode="&#x22d3;" horiz-adv-x="1024" />
<glyph unicode="&#x22d4;" horiz-adv-x="1024" />
<glyph unicode="&#x22d5;" horiz-adv-x="1024" />
<glyph unicode="&#x22d6;" horiz-adv-x="1024" />
<glyph unicode="&#x22d7;" horiz-adv-x="1024" />
<glyph unicode="&#x22d8;" horiz-adv-x="1024" />
<glyph unicode="&#x22d9;" horiz-adv-x="1024" />
<glyph unicode="&#x22da;" horiz-adv-x="1024" />
<glyph unicode="&#x22db;" horiz-adv-x="1024" />
<glyph unicode="&#x22dc;" horiz-adv-x="1024" />
<glyph unicode="&#x22dd;" horiz-adv-x="1024" />
<glyph unicode="&#x22de;" horiz-adv-x="1024" />
<glyph unicode="&#x22df;" horiz-adv-x="1024" />
<glyph unicode="&#x22e0;" horiz-adv-x="1024" />
<glyph unicode="&#x22e1;" horiz-adv-x="1024" />
<glyph unicode="&#x22e2;" horiz-adv-x="1024" />
<glyph unicode="&#x22e3;" horiz-adv-x="1024" />
<glyph unicode="&#x22e4;" horiz-adv-x="1024" />
<glyph unicode="&#x22e5;" horiz-adv-x="1024" />
<glyph unicode="&#x22e6;" horiz-adv-x="1024" />
<glyph unicode="&#x22e7;" horiz-adv-x="1024" />
<glyph unicode="&#x22e8;" horiz-adv-x="1024" />
<glyph unicode="&#x22e9;" horiz-adv-x="1024" />
<glyph unicode="&#x22ea;" horiz-adv-x="1024" />
<glyph unicode="&#x22eb;" horiz-adv-x="1024" />
<glyph unicode="&#x22ec;" horiz-adv-x="1024" />
<glyph unicode="&#x22ed;" horiz-adv-x="1024" />
<glyph unicode="&#x22ee;" horiz-adv-x="1024" />
<glyph unicode="&#x22ef;" horiz-adv-x="1024" />
<glyph unicode="&#x22f0;" horiz-adv-x="1024" />
<glyph unicode="&#x22f1;" horiz-adv-x="1024" />
<glyph unicode="&#x2302;" horiz-adv-x="1024" />
<glyph unicode="&#x2310;" horiz-adv-x="1024" />
<glyph unicode="&#x2312;" />
<glyph unicode="&#x2320;" horiz-adv-x="1024" />
<glyph unicode="&#x2321;" horiz-adv-x="1024" />
<glyph unicode="&#x2460;" />
<glyph unicode="&#x2461;" />
<glyph unicode="&#x2462;" />
<glyph unicode="&#x2463;" />
<glyph unicode="&#x2464;" />
<glyph unicode="&#x2465;" />
<glyph unicode="&#x2466;" />
<glyph unicode="&#x2467;" />
<glyph unicode="&#x2468;" />
<glyph unicode="&#x2469;" />
<glyph unicode="&#x246a;" />
<glyph unicode="&#x246b;" />
<glyph unicode="&#x246c;" />
<glyph unicode="&#x246d;" />
<glyph unicode="&#x246e;" />
<glyph unicode="&#x246f;" />
<glyph unicode="&#x2470;" />
<glyph unicode="&#x2471;" />
<glyph unicode="&#x2472;" />
<glyph unicode="&#x2473;" />
<glyph unicode="&#x2474;" />
<glyph unicode="&#x2475;" />
<glyph unicode="&#x2476;" />
<glyph unicode="&#x2477;" />
<glyph unicode="&#x2478;" />
<glyph unicode="&#x2479;" />
<glyph unicode="&#x247a;" />
<glyph unicode="&#x247b;" />
<glyph unicode="&#x247c;" />
<glyph unicode="&#x247d;" />
<glyph unicode="&#x247e;" />
<glyph unicode="&#x247f;" />
<glyph unicode="&#x2480;" />
<glyph unicode="&#x2481;" />
<glyph unicode="&#x2482;" />
<glyph unicode="&#x2483;" />
<glyph unicode="&#x2484;" />
<glyph unicode="&#x2485;" />
<glyph unicode="&#x2486;" />
<glyph unicode="&#x2487;" />
<glyph unicode="&#x2488;" />
<glyph unicode="&#x2489;" />
<glyph unicode="&#x248a;" />
<glyph unicode="&#x248b;" />
<glyph unicode="&#x248c;" />
<glyph unicode="&#x248d;" />
<glyph unicode="&#x248e;" />
<glyph unicode="&#x248f;" />
<glyph unicode="&#x2490;" />
<glyph unicode="&#x2491;" />
<glyph unicode="&#x2492;" />
<glyph unicode="&#x2493;" />
<glyph unicode="&#x2494;" />
<glyph unicode="&#x2495;" />
<glyph unicode="&#x2496;" />
<glyph unicode="&#x2497;" />
<glyph unicode="&#x2498;" />
<glyph unicode="&#x2499;" />
<glyph unicode="&#x249a;" />
<glyph unicode="&#x249b;" />
<glyph unicode="&#x249c;" />
<glyph unicode="&#x249d;" />
<glyph unicode="&#x249e;" />
<glyph unicode="&#x249f;" />
<glyph unicode="&#x24a0;" />
<glyph unicode="&#x24a1;" />
<glyph unicode="&#x24a2;" />
<glyph unicode="&#x24a3;" />
<glyph unicode="&#x24a4;" />
<glyph unicode="&#x24a5;" />
<glyph unicode="&#x24a6;" />
<glyph unicode="&#x24a7;" />
<glyph unicode="&#x24a8;" />
<glyph unicode="&#x24a9;" />
<glyph unicode="&#x24aa;" />
<glyph unicode="&#x24ab;" />
<glyph unicode="&#x24ac;" />
<glyph unicode="&#x24ad;" />
<glyph unicode="&#x24ae;" />
<glyph unicode="&#x24af;" />
<glyph unicode="&#x24b0;" />
<glyph unicode="&#x24b1;" />
<glyph unicode="&#x24b2;" />
<glyph unicode="&#x24b3;" />
<glyph unicode="&#x24b4;" />
<glyph unicode="&#x24b5;" />
<glyph unicode="&#x24b6;" />
<glyph unicode="&#x24b7;" />
<glyph unicode="&#x24b8;" />
<glyph unicode="&#x24b9;" />
<glyph unicode="&#x24ba;" />
<glyph unicode="&#x24bb;" />
<glyph unicode="&#x24bc;" />
<glyph unicode="&#x24bd;" />
<glyph unicode="&#x24be;" />
<glyph unicode="&#x24bf;" />
<glyph unicode="&#x24c0;" />
<glyph unicode="&#x24c1;" />
<glyph unicode="&#x24c2;" />
<glyph unicode="&#x24c3;" />
<glyph unicode="&#x24c4;" />
<glyph unicode="&#x24c5;" />
<glyph unicode="&#x24c6;" />
<glyph unicode="&#x24c7;" />
<glyph unicode="&#x24c8;" />
<glyph unicode="&#x24c9;" />
<glyph unicode="&#x24ca;" />
<glyph unicode="&#x24cb;" />
<glyph unicode="&#x24cc;" />
<glyph unicode="&#x24cd;" />
<glyph unicode="&#x24ce;" />
<glyph unicode="&#x24cf;" />
<glyph unicode="&#x24d0;" />
<glyph unicode="&#x24d1;" />
<glyph unicode="&#x24d2;" />
<glyph unicode="&#x24d3;" />
<glyph unicode="&#x24d4;" />
<glyph unicode="&#x24d5;" />
<glyph unicode="&#x24d6;" />
<glyph unicode="&#x24d7;" />
<glyph unicode="&#x24d8;" />
<glyph unicode="&#x24d9;" />
<glyph unicode="&#x24da;" />
<glyph unicode="&#x24db;" />
<glyph unicode="&#x24dc;" />
<glyph unicode="&#x24dd;" />
<glyph unicode="&#x24de;" />
<glyph unicode="&#x24df;" />
<glyph unicode="&#x24e0;" />
<glyph unicode="&#x24e1;" />
<glyph unicode="&#x24e2;" />
<glyph unicode="&#x24e3;" />
<glyph unicode="&#x24e4;" />
<glyph unicode="&#x24e5;" />
<glyph unicode="&#x24e6;" />
<glyph unicode="&#x24e7;" />
<glyph unicode="&#x24e8;" />
<glyph unicode="&#x24e9;" />
<glyph unicode="&#x24ea;" />
<glyph unicode="&#x2500;" />
<glyph unicode="&#x2501;" />
<glyph unicode="&#x2502;" />
<glyph unicode="&#x2503;" />
<glyph unicode="&#x2504;" horiz-adv-x="1024" />
<glyph unicode="&#x2505;" horiz-adv-x="1024" />
<glyph unicode="&#x2506;" horiz-adv-x="1024" />
<glyph unicode="&#x2507;" horiz-adv-x="1024" />
<glyph unicode="&#x2508;" horiz-adv-x="1024" />
<glyph unicode="&#x2509;" horiz-adv-x="1024" />
<glyph unicode="&#x250a;" horiz-adv-x="1024" />
<glyph unicode="&#x250b;" horiz-adv-x="1024" />
<glyph unicode="&#x250c;" />
<glyph unicode="&#x250d;" horiz-adv-x="1024" />
<glyph unicode="&#x250e;" horiz-adv-x="1024" />
<glyph unicode="&#x250f;" />
<glyph unicode="&#x2510;" />
<glyph unicode="&#x2511;" horiz-adv-x="1024" />
<glyph unicode="&#x2512;" horiz-adv-x="1024" />
<glyph unicode="&#x2513;" />
<glyph unicode="&#x2514;" />
<glyph unicode="&#x2515;" horiz-adv-x="1024" />
<glyph unicode="&#x2516;" horiz-adv-x="1024" />
<glyph unicode="&#x2517;" />
<glyph unicode="&#x2518;" />
<glyph unicode="&#x2519;" horiz-adv-x="1024" />
<glyph unicode="&#x251a;" horiz-adv-x="1024" />
<glyph unicode="&#x251b;" />
<glyph unicode="&#x251c;" />
<glyph unicode="&#x251d;" />
<glyph unicode="&#x251e;" horiz-adv-x="1024" />
<glyph unicode="&#x251f;" horiz-adv-x="1024" />
<glyph unicode="&#x2520;" />
<glyph unicode="&#x2521;" horiz-adv-x="1024" />
<glyph unicode="&#x2522;" horiz-adv-x="1024" />
<glyph unicode="&#x2523;" />
<glyph unicode="&#x2524;" />
<glyph unicode="&#x2525;" />
<glyph unicode="&#x2526;" horiz-adv-x="1024" />
<glyph unicode="&#x2527;" horiz-adv-x="1024" />
<glyph unicode="&#x2528;" />
<glyph unicode="&#x2529;" horiz-adv-x="1024" />
<glyph unicode="&#x252a;" horiz-adv-x="1024" />
<glyph unicode="&#x252b;" />
<glyph unicode="&#x252c;" />
<glyph unicode="&#x252d;" horiz-adv-x="1024" />
<glyph unicode="&#x252e;" horiz-adv-x="1024" />
<glyph unicode="&#x252f;" />
<glyph unicode="&#x2530;" />
<glyph unicode="&#x2531;" horiz-adv-x="1024" />
<glyph unicode="&#x2532;" horiz-adv-x="1024" />
<glyph unicode="&#x2533;" />
<glyph unicode="&#x2534;" />
<glyph unicode="&#x2535;" horiz-adv-x="1024" />
<glyph unicode="&#x2536;" horiz-adv-x="1024" />
<glyph unicode="&#x2537;" />
<glyph unicode="&#x2538;" />
<glyph unicode="&#x2539;" horiz-adv-x="1024" />
<glyph unicode="&#x253a;" horiz-adv-x="1024" />
<glyph unicode="&#x253b;" />
<glyph unicode="&#x253c;" />
<glyph unicode="&#x253d;" horiz-adv-x="1024" />
<glyph unicode="&#x253e;" horiz-adv-x="1024" />
<glyph unicode="&#x253f;" />
<glyph unicode="&#x2540;" horiz-adv-x="1024" />
<glyph unicode="&#x2541;" horiz-adv-x="1024" />
<glyph unicode="&#x2542;" />
<glyph unicode="&#x2543;" horiz-adv-x="1024" />
<glyph unicode="&#x2544;" horiz-adv-x="1024" />
<glyph unicode="&#x2545;" horiz-adv-x="1024" />
<glyph unicode="&#x2546;" horiz-adv-x="1024" />
<glyph unicode="&#x2547;" horiz-adv-x="1024" />
<glyph unicode="&#x2548;" horiz-adv-x="1024" />
<glyph unicode="&#x2549;" horiz-adv-x="1024" />
<glyph unicode="&#x254a;" horiz-adv-x="1024" />
<glyph unicode="&#x254b;" />
<glyph unicode="&#x254c;" horiz-adv-x="1024" />
<glyph unicode="&#x254d;" horiz-adv-x="1024" />
<glyph unicode="&#x254e;" horiz-adv-x="1024" />
<glyph unicode="&#x254f;" horiz-adv-x="1024" />
<glyph unicode="&#x2550;" horiz-adv-x="1024" />
<glyph unicode="&#x2551;" horiz-adv-x="1024" />
<glyph unicode="&#x2552;" horiz-adv-x="1024" />
<glyph unicode="&#x2553;" horiz-adv-x="1024" />
<glyph unicode="&#x2554;" horiz-adv-x="1024" />
<glyph unicode="&#x2555;" horiz-adv-x="1024" />
<glyph unicode="&#x2556;" horiz-adv-x="1024" />
<glyph unicode="&#x2557;" horiz-adv-x="1024" />
<glyph unicode="&#x2558;" horiz-adv-x="1024" />
<glyph unicode="&#x2559;" horiz-adv-x="1024" />
<glyph unicode="&#x255a;" horiz-adv-x="1024" />
<glyph unicode="&#x255b;" horiz-adv-x="1024" />
<glyph unicode="&#x255c;" horiz-adv-x="1024" />
<glyph unicode="&#x255d;" horiz-adv-x="1024" />
<glyph unicode="&#x255e;" horiz-adv-x="1024" />
<glyph unicode="&#x255f;" horiz-adv-x="1024" />
<glyph unicode="&#x2560;" horiz-adv-x="1024" />
<glyph unicode="&#x2561;" horiz-adv-x="1024" />
<glyph unicode="&#x2562;" horiz-adv-x="1024" />
<glyph unicode="&#x2563;" horiz-adv-x="1024" />
<glyph unicode="&#x2564;" horiz-adv-x="1024" />
<glyph unicode="&#x2565;" horiz-adv-x="1024" />
<glyph unicode="&#x2566;" horiz-adv-x="1024" />
<glyph unicode="&#x2567;" horiz-adv-x="1024" />
<glyph unicode="&#x2568;" horiz-adv-x="1024" />
<glyph unicode="&#x2569;" horiz-adv-x="1024" />
<glyph unicode="&#x256a;" horiz-adv-x="1024" />
<glyph unicode="&#x256b;" horiz-adv-x="1024" />
<glyph unicode="&#x256c;" horiz-adv-x="1024" />
<glyph unicode="&#x256d;" horiz-adv-x="1024" />
<glyph unicode="&#x256e;" horiz-adv-x="1024" />
<glyph unicode="&#x256f;" horiz-adv-x="1024" />
<glyph unicode="&#x2570;" horiz-adv-x="1024" />
<glyph unicode="&#x2571;" horiz-adv-x="1024" />
<glyph unicode="&#x2572;" horiz-adv-x="1024" />
<glyph unicode="&#x2573;" horiz-adv-x="1024" />
<glyph unicode="&#x2574;" horiz-adv-x="1024" />
<glyph unicode="&#x2575;" horiz-adv-x="1024" />
<glyph unicode="&#x2576;" horiz-adv-x="1024" />
<glyph unicode="&#x2577;" horiz-adv-x="1024" />
<glyph unicode="&#x2578;" horiz-adv-x="1024" />
<glyph unicode="&#x2579;" horiz-adv-x="1024" />
<glyph unicode="&#x257a;" horiz-adv-x="1024" />
<glyph unicode="&#x257b;" horiz-adv-x="1024" />
<glyph unicode="&#x257c;" horiz-adv-x="1024" />
<glyph unicode="&#x257d;" horiz-adv-x="1024" />
<glyph unicode="&#x257e;" horiz-adv-x="1024" />
<glyph unicode="&#x257f;" horiz-adv-x="1024" />
<glyph unicode="&#x2580;" horiz-adv-x="1024" />
<glyph unicode="&#x2581;" horiz-adv-x="1024" />
<glyph unicode="&#x2582;" horiz-adv-x="1024" />
<glyph unicode="&#x2583;" horiz-adv-x="1024" />
<glyph unicode="&#x2584;" horiz-adv-x="1024" />
<glyph unicode="&#x2585;" horiz-adv-x="1024" />
<glyph unicode="&#x2586;" horiz-adv-x="1024" />
<glyph unicode="&#x2587;" horiz-adv-x="1024" />
<glyph unicode="&#x2588;" horiz-adv-x="1024" />
<glyph unicode="&#x2589;" horiz-adv-x="1024" />
<glyph unicode="&#x258a;" horiz-adv-x="1024" />
<glyph unicode="&#x258b;" horiz-adv-x="1024" />
<glyph unicode="&#x258c;" horiz-adv-x="1024" />
<glyph unicode="&#x258d;" horiz-adv-x="1024" />
<glyph unicode="&#x258e;" horiz-adv-x="1024" />
<glyph unicode="&#x258f;" horiz-adv-x="1024" />
<glyph unicode="&#x2590;" horiz-adv-x="1024" />
<glyph unicode="&#x2591;" horiz-adv-x="1024" />
<glyph unicode="&#x2592;" horiz-adv-x="1024" />
<glyph unicode="&#x2593;" horiz-adv-x="1024" />
<glyph unicode="&#x2594;" horiz-adv-x="1024" />
<glyph unicode="&#x2595;" horiz-adv-x="1024" />
<glyph unicode="&#x25a0;" />
<glyph unicode="&#x25a1;" />
<glyph unicode="&#x25a2;" horiz-adv-x="1024" />
<glyph unicode="&#x25a3;" horiz-adv-x="1024" />
<glyph unicode="&#x25a4;" horiz-adv-x="1024" />
<glyph unicode="&#x25a5;" horiz-adv-x="1024" />
<glyph unicode="&#x25a6;" horiz-adv-x="1024" />
<glyph unicode="&#x25a7;" horiz-adv-x="1024" />
<glyph unicode="&#x25a8;" horiz-adv-x="1024" />
<glyph unicode="&#x25a9;" horiz-adv-x="1024" />
<glyph unicode="&#x25aa;" horiz-adv-x="1024" />
<glyph unicode="&#x25ab;" horiz-adv-x="1024" />
<glyph unicode="&#x25ac;" horiz-adv-x="1024" />
<glyph unicode="&#x25ad;" horiz-adv-x="1024" />
<glyph unicode="&#x25ae;" horiz-adv-x="1024" />
<glyph unicode="&#x25af;" horiz-adv-x="1024" />
<glyph unicode="&#x25b0;" horiz-adv-x="1024" />
<glyph unicode="&#x25b1;" horiz-adv-x="1024" />
<glyph unicode="&#x25b2;" />
<glyph unicode="&#x25b3;" />
<glyph unicode="&#x25b4;" horiz-adv-x="1024" />
<glyph unicode="&#x25b5;" horiz-adv-x="1024" />
<glyph unicode="&#x25b6;" horiz-adv-x="1024" />
<glyph unicode="&#x25b7;" horiz-adv-x="1024" />
<glyph unicode="&#x25b8;" horiz-adv-x="1024" />
<glyph unicode="&#x25b9;" horiz-adv-x="1024" />
<glyph unicode="&#x25ba;" horiz-adv-x="1024" />
<glyph unicode="&#x25bb;" horiz-adv-x="1024" />
<glyph unicode="&#x25bc;" />
<glyph unicode="&#x25bd;" />
<glyph unicode="&#x25be;" horiz-adv-x="1024" />
<glyph unicode="&#x25bf;" horiz-adv-x="1024" />
<glyph unicode="&#x25c0;" horiz-adv-x="1024" />
<glyph unicode="&#x25c1;" horiz-adv-x="1024" />
<glyph unicode="&#x25c2;" horiz-adv-x="1024" />
<glyph unicode="&#x25c3;" horiz-adv-x="1024" />
<glyph unicode="&#x25c4;" horiz-adv-x="1024" />
<glyph unicode="&#x25c5;" horiz-adv-x="1024" />
<glyph unicode="&#x25c6;" />
<glyph unicode="&#x25c7;" />
<glyph unicode="&#x25c8;" horiz-adv-x="1024" />
<glyph unicode="&#x25c9;" horiz-adv-x="1024" />
<glyph unicode="&#x25ca;" horiz-adv-x="1024" />
<glyph unicode="&#x25cb;" />
<glyph unicode="&#x25cc;" horiz-adv-x="1024" />
<glyph unicode="&#x25cd;" horiz-adv-x="1024" />
<glyph unicode="&#x25ce;" />
<glyph unicode="&#x25cf;" />
<glyph unicode="&#x25d0;" horiz-adv-x="1024" />
<glyph unicode="&#x25d1;" horiz-adv-x="1024" />
<glyph unicode="&#x25d2;" horiz-adv-x="1024" />
<glyph unicode="&#x25d3;" horiz-adv-x="1024" />
<glyph unicode="&#x25d4;" horiz-adv-x="1024" />
<glyph unicode="&#x25d5;" horiz-adv-x="1024" />
<glyph unicode="&#x25d6;" horiz-adv-x="1024" />
<glyph unicode="&#x25d7;" horiz-adv-x="1024" />
<glyph unicode="&#x25d8;" horiz-adv-x="1024" />
<glyph unicode="&#x25d9;" horiz-adv-x="1024" />
<glyph unicode="&#x25da;" horiz-adv-x="1024" />
<glyph unicode="&#x25db;" horiz-adv-x="1024" />
<glyph unicode="&#x25dc;" horiz-adv-x="1024" />
<glyph unicode="&#x25dd;" horiz-adv-x="1024" />
<glyph unicode="&#x25de;" horiz-adv-x="1024" />
<glyph unicode="&#x25df;" horiz-adv-x="1024" />
<glyph unicode="&#x25e0;" horiz-adv-x="1024" />
<glyph unicode="&#x25e1;" horiz-adv-x="1024" />
<glyph unicode="&#x25e2;" horiz-adv-x="1024" />
<glyph unicode="&#x25e3;" horiz-adv-x="1024" />
<glyph unicode="&#x25e4;" horiz-adv-x="1024" />
<glyph unicode="&#x25e5;" horiz-adv-x="1024" />
<glyph unicode="&#x25e6;" horiz-adv-x="1024" />
<glyph unicode="&#x25e7;" horiz-adv-x="1024" />
<glyph unicode="&#x25e8;" horiz-adv-x="1024" />
<glyph unicode="&#x25e9;" horiz-adv-x="1024" />
<glyph unicode="&#x25ea;" horiz-adv-x="1024" />
<glyph unicode="&#x25eb;" horiz-adv-x="1024" />
<glyph unicode="&#x25ec;" horiz-adv-x="1024" />
<glyph unicode="&#x25ed;" horiz-adv-x="1024" />
<glyph unicode="&#x25ee;" horiz-adv-x="1024" />
<glyph unicode="&#x25ef;" />
<glyph unicode="&#x25fc;" horiz-adv-x="1000" vert-adv-y="2000" d="M0 0z" />
<glyph unicode="&#x2600;" />
<glyph unicode="&#x2601;" />
<glyph unicode="&#x2602;" />
<glyph unicode="&#x2603;" />
<glyph unicode="&#x2604;" />
<glyph unicode="&#x2605;" />
<glyph unicode="&#x2606;" />
<glyph unicode="&#x2607;" />
<glyph unicode="&#x2608;" />
<glyph unicode="&#x2609;" />
<glyph unicode="&#x260a;" />
<glyph unicode="&#x260b;" />
<glyph unicode="&#x260c;" />
<glyph unicode="&#x260d;" />
<glyph unicode="&#x260e;" />
<glyph unicode="&#x260f;" />
<glyph unicode="&#x2610;" />
<glyph unicode="&#x2611;" />
<glyph unicode="&#x2612;" />
<glyph unicode="&#x2613;" />
<glyph unicode="&#x261a;" />
<glyph unicode="&#x261b;" />
<glyph unicode="&#x261c;" />
<glyph unicode="&#x261d;" />
<glyph unicode="&#x261e;" />
<glyph unicode="&#x261f;" />
<glyph unicode="&#x2620;" />
<glyph unicode="&#x2621;" />
<glyph unicode="&#x2622;" />
<glyph unicode="&#x2623;" />
<glyph unicode="&#x2624;" />
<glyph unicode="&#x2625;" />
<glyph unicode="&#x2626;" />
<glyph unicode="&#x2627;" />
<glyph unicode="&#x2628;" />
<glyph unicode="&#x2629;" />
<glyph unicode="&#x262a;" />
<glyph unicode="&#x262b;" />
<glyph unicode="&#x262c;" />
<glyph unicode="&#x262d;" />
<glyph unicode="&#x262e;" />
<glyph unicode="&#x262f;" />
<glyph unicode="&#x2630;" />
<glyph unicode="&#x2631;" />
<glyph unicode="&#x2632;" />
<glyph unicode="&#x2633;" />
<glyph unicode="&#x2634;" />
<glyph unicode="&#x2635;" />
<glyph unicode="&#x2636;" />
<glyph unicode="&#x2637;" />
<glyph unicode="&#x2638;" />
<glyph unicode="&#x2639;" horiz-adv-x="1024" />
<glyph unicode="&#x263a;" horiz-adv-x="1024" />
<glyph unicode="&#x263b;" horiz-adv-x="1024" />
<glyph unicode="&#x263c;" horiz-adv-x="1024" />
<glyph unicode="&#x263d;" />
<glyph unicode="&#x263e;" />
<glyph unicode="&#x263f;" />
<glyph unicode="&#x2640;" d="M292 370v30l498 58l204 -16v132q-278 60 -498 278q-146 176 -130 424q28 190 190 322q146 104 322 132q234 14 408 -146v-30h30l74 -130h28q88 -162 102 -366q0 -220 -146 -380l-190 -88l-14 -148q308 -42 600 -116l14 -58q-190 -44 -394 -60l-176 30q-44 -278 -58 -556 l-60 -14q-102 292 -116 614l-658 58v30h-30zM628 1072q16 -160 162 -264l234 -88l44 16v28q204 220 204 528l-102 204l-58 14q-176 -14 -322 -116q-146 -132 -162 -322z" />
<glyph unicode="&#x2641;" />
<glyph unicode="&#x2642;" d="M234 472q44 162 160 292q220 234 556 176l146 -44q146 176 315 322t329 264h-176l-540 -88l-58 88q190 102 409 124t453 8l44 -16l74 30l130 -162q-102 -204 -72 -452l14 -88l-14 -44l14 -44l-44 -132l-116 -28l-74 58l-14 366l14 146h-44l-248 -220h-30v-30l-220 -218 v-60q132 -160 148 -380l-74 -218q-292 -192 -658 -162l-132 58l-88 118l-58 14q-118 146 -146 322zM410 384q58 -116 174 -204l278 -30l74 30l234 204l14 146l-102 118l-58 30q-118 72 -250 72q-174 0 -292 -146z" />
<glyph unicode="&#x2643;" />
<glyph unicode="&#x2644;" />
<glyph unicode="&#x2645;" />
<glyph unicode="&#x2646;" />
<glyph unicode="&#x2647;" />
<glyph unicode="&#x2648;" />
<glyph unicode="&#x2649;" />
<glyph unicode="&#x264a;" />
<glyph unicode="&#x264b;" />
<glyph unicode="&#x264c;" />
<glyph unicode="&#x264d;" />
<glyph unicode="&#x264e;" />
<glyph unicode="&#x264f;" />
<glyph unicode="&#x2650;" />
<glyph unicode="&#x2651;" />
<glyph unicode="&#x2652;" />
<glyph unicode="&#x2653;" />
<glyph unicode="&#x2654;" />
<glyph unicode="&#x2655;" />
<glyph unicode="&#x2656;" />
<glyph unicode="&#x2657;" />
<glyph unicode="&#x2658;" />
<glyph unicode="&#x2659;" />
<glyph unicode="&#x265a;" />
<glyph unicode="&#x265b;" />
<glyph unicode="&#x265c;" />
<glyph unicode="&#x265d;" />
<glyph unicode="&#x265e;" />
<glyph unicode="&#x265f;" />
<glyph unicode="&#x2660;" horiz-adv-x="1024" />
<glyph unicode="&#x2661;" horiz-adv-x="1024" />
<glyph unicode="&#x2662;" horiz-adv-x="1024" />
<glyph unicode="&#x2663;" horiz-adv-x="1024" />
<glyph unicode="&#x2664;" horiz-adv-x="1024" />
<glyph unicode="&#x2665;" horiz-adv-x="1024" />
<glyph unicode="&#x2666;" horiz-adv-x="1024" />
<glyph unicode="&#x2667;" horiz-adv-x="1024" />
<glyph unicode="&#x2668;" />
<glyph unicode="&#x2669;" horiz-adv-x="1024" />
<glyph unicode="&#x266a;" d="M350 214q44 88 132 132l424 148q30 162 44 338l-14 44l44 442l-14 104l28 58l58 16q16 -118 88 -222l410 -308q176 -192 162 -458l-60 -118h-58v-28h-58v-30h-44v-60l-132 -28v176l44 384l-88 116l-204 148l-16 -220l16 -44l-16 -46l16 -442q-44 -206 -176 -382 q-162 -104 -352 -88l-218 190z" />
<glyph unicode="&#x266b;" horiz-adv-x="1024" />
<glyph unicode="&#x266c;" horiz-adv-x="1024" />
<glyph unicode="&#x266d;" />
<glyph unicode="&#x266e;" horiz-adv-x="1024" />
<glyph unicode="&#x266f;" />
<glyph unicode="&#x2701;" />
<glyph unicode="&#x2702;" />
<glyph unicode="&#x2703;" />
<glyph unicode="&#x2704;" />
<glyph unicode="&#x2706;" />
<glyph unicode="&#x2707;" />
<glyph unicode="&#x2708;" />
<glyph unicode="&#x2709;" />
<glyph unicode="&#x270c;" />
<glyph unicode="&#x270d;" />
<glyph unicode="&#x270e;" />
<glyph unicode="&#x270f;" />
<glyph unicode="&#x2710;" />
<glyph unicode="&#x2711;" />
<glyph unicode="&#x2712;" />
<glyph unicode="&#x2713;" />
<glyph unicode="&#x2714;" />
<glyph unicode="&#x2715;" />
<glyph unicode="&#x2716;" />
<glyph unicode="&#x2717;" />
<glyph unicode="&#x2718;" />
<glyph unicode="&#x2719;" />
<glyph unicode="&#x271a;" />
<glyph unicode="&#x271b;" />
<glyph unicode="&#x271c;" />
<glyph unicode="&#x271d;" />
<glyph unicode="&#x271e;" />
<glyph unicode="&#x271f;" />
<glyph unicode="&#x2720;" />
<glyph unicode="&#x2721;" />
<glyph unicode="&#x2722;" />
<glyph unicode="&#x2723;" />
<glyph unicode="&#x2724;" />
<glyph unicode="&#x2725;" />
<glyph unicode="&#x2726;" />
<glyph unicode="&#x2727;" />
<glyph unicode="&#x2729;" />
<glyph unicode="&#x272a;" />
<glyph unicode="&#x272b;" />
<glyph unicode="&#x272c;" />
<glyph unicode="&#x272d;" />
<glyph unicode="&#x272e;" />
<glyph unicode="&#x272f;" />
<glyph unicode="&#x2730;" />
<glyph unicode="&#x2731;" />
<glyph unicode="&#x2732;" />
<glyph unicode="&#x2733;" />
<glyph unicode="&#x2734;" />
<glyph unicode="&#x2735;" />
<glyph unicode="&#x2736;" />
<glyph unicode="&#x2737;" />
<glyph unicode="&#x2738;" />
<glyph unicode="&#x2739;" />
<glyph unicode="&#x273a;" />
<glyph unicode="&#x273b;" />
<glyph unicode="&#x273c;" />
<glyph unicode="&#x273d;" />
<glyph unicode="&#x273e;" />
<glyph unicode="&#x273f;" />
<glyph unicode="&#x2740;" />
<glyph unicode="&#x2741;" />
<glyph unicode="&#x2742;" />
<glyph unicode="&#x2743;" />
<glyph unicode="&#x2744;" />
<glyph unicode="&#x2745;" />
<glyph unicode="&#x2746;" />
<glyph unicode="&#x2747;" />
<glyph unicode="&#x2748;" />
<glyph unicode="&#x2749;" />
<glyph unicode="&#x274a;" />
<glyph unicode="&#x274b;" />
<glyph unicode="&#x274d;" />
<glyph unicode="&#x274f;" />
<glyph unicode="&#x2750;" />
<glyph unicode="&#x2751;" />
<glyph unicode="&#x2752;" />
<glyph unicode="&#x2756;" />
<glyph unicode="&#x2758;" />
<glyph unicode="&#x2759;" />
<glyph unicode="&#x275a;" />
<glyph unicode="&#x275b;" />
<glyph unicode="&#x275c;" />
<glyph unicode="&#x275d;" />
<glyph unicode="&#x275e;" />
<glyph unicode="&#x2761;" />
<glyph unicode="&#x2762;" />
<glyph unicode="&#x2763;" />
<glyph unicode="&#x2764;" />
<glyph unicode="&#x2765;" />
<glyph unicode="&#x2766;" />
<glyph unicode="&#x2767;" />
<glyph unicode="&#x2776;" />
<glyph unicode="&#x2777;" />
<glyph unicode="&#x2778;" />
<glyph unicode="&#x2779;" />
<glyph unicode="&#x277a;" />
<glyph unicode="&#x277b;" />
<glyph unicode="&#x277c;" />
<glyph unicode="&#x277d;" />
<glyph unicode="&#x277e;" />
<glyph unicode="&#x277f;" />
<glyph unicode="&#x2780;" />
<glyph unicode="&#x2781;" />
<glyph unicode="&#x2782;" />
<glyph unicode="&#x2783;" />
<glyph unicode="&#x2784;" />
<glyph unicode="&#x2785;" />
<glyph unicode="&#x2786;" />
<glyph unicode="&#x2787;" />
<glyph unicode="&#x2788;" />
<glyph unicode="&#x2789;" />
<glyph unicode="&#x278a;" />
<glyph unicode="&#x278b;" />
<glyph unicode="&#x278c;" />
<glyph unicode="&#x278d;" />
<glyph unicode="&#x278e;" />
<glyph unicode="&#x278f;" />
<glyph unicode="&#x2790;" />
<glyph unicode="&#x2791;" />
<glyph unicode="&#x2792;" />
<glyph unicode="&#x2793;" />
<glyph unicode="&#x2794;" />
<glyph unicode="&#x2798;" />
<glyph unicode="&#x2799;" />
<glyph unicode="&#x279a;" />
<glyph unicode="&#x279b;" />
<glyph unicode="&#x279c;" />
<glyph unicode="&#x279d;" />
<glyph unicode="&#x279e;" />
<glyph unicode="&#x279f;" />
<glyph unicode="&#x27a0;" />
<glyph unicode="&#x27a1;" />
<glyph unicode="&#x27a2;" />
<glyph unicode="&#x27a3;" />
<glyph unicode="&#x27a4;" />
<glyph unicode="&#x27a5;" />
<glyph unicode="&#x27a6;" />
<glyph unicode="&#x27a7;" />
<glyph unicode="&#x27a8;" />
<glyph unicode="&#x27a9;" />
<glyph unicode="&#x27aa;" />
<glyph unicode="&#x27ab;" />
<glyph unicode="&#x27ac;" />
<glyph unicode="&#x27ad;" />
<glyph unicode="&#x27ae;" />
<glyph unicode="&#x27af;" />
<glyph unicode="&#x27b1;" />
<glyph unicode="&#x27b2;" />
<glyph unicode="&#x27b3;" />
<glyph unicode="&#x27b4;" />
<glyph unicode="&#x27b5;" />
<glyph unicode="&#x27b6;" />
<glyph unicode="&#x27b7;" />
<glyph unicode="&#x27b8;" />
<glyph unicode="&#x27b9;" />
<glyph unicode="&#x27ba;" />
<glyph unicode="&#x27bb;" />
<glyph unicode="&#x27bc;" />
<glyph unicode="&#x27bd;" />
<glyph unicode="&#x27be;" />
<glyph unicode="&#x3000;" />
<glyph unicode="&#x3001;" d="M134 302h102l178 -162q146 -118 250 -280v-132l-88 -16l-178 118q-236 192 -264 472z" />
<glyph unicode="&#x3002;" d="M146 96v118q44 132 146 250q102 104 264 74l132 -88l72 -192l-14 -104l14 -132l-72 -58l-30 -44q-132 -74 -292 -60q-148 88 -220 236zM366 66l72 -44l16 14q58 74 42 192l-72 44z" />
<glyph unicode="&#x3003;" d="M380 720q74 192 227 352t299 322l74 30q72 -30 102 -118v-88l-176 -190l-132 -190l-44 -14l-14 -74l-132 -116l-28 -60l-44 -14l-102 58zM834 208v104l102 248l44 14l72 146l74 44l14 30h30l30 74l86 44l44 86q104 104 234 118q74 -118 88 -264l-234 -174l-14 -30 l-74 -14v-30q-160 -162 -262 -352h-30l-14 -72l-118 -44z" />
<glyph unicode="&#x3004;" />
<glyph unicode="&#x3005;" />
<glyph unicode="&#x3006;" />
<glyph unicode="&#x3007;" />
<glyph unicode="&#x3008;" />
<glyph unicode="&#x3009;" />
<glyph unicode="&#x300a;" />
<glyph unicode="&#x300b;" />
<glyph unicode="&#x300c;" />
<glyph unicode="&#x300d;" />
<glyph unicode="&#x300e;" />
<glyph unicode="&#x300f;" />
<glyph unicode="&#x3010;" />
<glyph unicode="&#x3011;" />
<glyph unicode="&#x3012;" d="M278 642v88q190 28 387 36t403 8q350 0 658 -118l28 -104q-102 -28 -218 -44l-366 16l-14 -148l44 -442l-88 -132l-30 14q-102 338 -102 708l-162 14q-198 14 -394 -30zM278 1172v28l44 148q174 60 380 74l88 -14l88 14q234 -30 460 -67t416 -183l16 -60l-88 -14l-58 14 q-162 -58 -352 -58l-44 14q-132 -44 -278 -30l-102 16l-14 -16q-294 30 -556 134z" />
<glyph unicode="&#x3013;" />
<glyph unicode="&#x3014;" />
<glyph unicode="&#x3015;" />
<glyph unicode="&#x3016;" />
<glyph unicode="&#x3017;" />
<glyph unicode="&#x3018;" />
<glyph unicode="&#x3019;" />
<glyph unicode="&#x301a;" />
<glyph unicode="&#x301b;" />
<glyph unicode="&#x301c;" />
<glyph unicode="&#x301d;" />
<glyph unicode="&#x301e;" />
<glyph unicode="&#x301f;" />
<glyph unicode="&#x3020;" />
<glyph unicode="&#x3030;" />
<glyph unicode="&#x3031;" />
<glyph unicode="&#x3032;" />
<glyph unicode="&#x3033;" />
<glyph unicode="&#x3034;" />
<glyph unicode="&#x3035;" />
<glyph unicode="&#x3036;" />
<glyph unicode="&#x3037;" />
<glyph unicode="&#x3041;" d="M160 180l118 234l292 160l14 146q-160 0 -292 60l-30 102q132 88 308 88l30 88l-16 88l30 72l44 14q44 -116 72 -234l572 -86v-60q-234 -132 -542 -116v-132l220 -58l146 146h44l30 -14v-74l-30 -88l160 -102q118 -146 104 -336q-16 -104 -88 -190q-88 -74 -206 -74 l-14 88l146 322q-102 102 -264 88l-42 -16l-88 -116l-74 -30v-248l44 -132h-30l-102 58l-116 146h-44q-102 -86 -234 -116l-118 102zM366 78l58 14l160 88l16 102l-60 74l-160 -190zM760 340l44 -14l30 58h-74v-44z" />
<glyph unicode="&#x3042;" d="M14 228q176 296 466 458l160 72l14 310l-58 30l-218 -44q-102 30 -188 118l-16 58q262 44 508 118l44 236l58 14q74 -58 44 -146l-14 -44q72 -46 174 -30l422 14l318 -88l16 -44q-234 -30 -451 -74t-451 -74l-14 -280q44 -74 146 -58l72 14l188 -14l132 250l44 14l58 -44 l28 -132l-58 -118q204 -74 364 -236q160 -176 116 -442l-44 -102h-30v-30l-86 -30l-44 16l-304 -46v30q158 132 232 310l-102 162q-116 102 -276 102l-44 -14l-72 -102l-262 -192l-14 -148l44 -280h-30l-130 132q-14 104 -74 148q-232 -176 -536 -176q-88 190 -132 382z M218 96l88 -30l72 30l290 176l14 104l-28 88l-58 14l-248 -146zM842 420l30 -30l14 16l102 118h-58l-72 -30z" />
<glyph unicode="&#x3043;" d="M190 530q0 176 102 294l88 -60l58 -642h74l204 72l58 -58q-72 -146 -218 -234l-132 -30l-58 44l-162 190zM892 648l102 14q132 -190 162 -424l-44 -72h-30l-74 42q-86 206 -116 440z" />
<glyph unicode="&#x3044;" d="M176 706q28 366 190 688l72 14l132 -102l30 -292q-60 -220 -44 -468l28 -250h30q248 104 512 162v-30l-160 -88q-92 -146 -206 -278l-204 -72l-16 44l-116 28l-44 60q-74 0 -118 58q-130 234 -86 526zM1448 764l102 528l102 28l132 -146l30 -116v-776l-74 -74l-102 -14 l-88 58q-116 234 -102 512z" />
<glyph unicode="&#x3045;" d="M350 524q146 132 380 102q250 0 440 -148l102 -190l-58 -148q-118 -162 -292 -280l-192 -58l-116 72q204 208 454 354v74l-88 88l-308 60l-204 -30zM366 1186l116 30q264 -74 484 -222l14 -88l-58 -74l-118 30l-74 -14l-306 162q-74 74 -58 176z" />
<glyph unicode="&#x3046;" d="M296 906q280 14 552 59t568 29q176 -28 308 -162q118 -146 74 -354q-58 -190 -220 -338q-280 -220 -634 -250q-118 58 -236 74l-14 58q190 104 382 199t354 257q58 90 44 192q-206 44 -428 30l-308 -30q-178 0 -310 74zM310 1584l60 30q264 -60 559 -52t531 -154l14 -90 q-118 -146 -294 -162l-222 16l-58 -16q-250 44 -472 192q-44 118 -118 236z" />
<glyph unicode="&#x3047;" d="M278 596v46q234 58 496 58l148 -88q58 -74 58 -178l-74 -220q118 -132 176 -280q132 -44 278 -30v-30q-102 -116 -264 -102l-88 30l-174 280l-60 14q-190 -60 -380 -162l-28 118l72 118l278 192l58 146l-86 16q-148 0 -264 -60zM322 1230h204q220 -44 396 -206l14 -162 l-44 -14q-264 102 -512 250z" />
<glyph unicode="&#x3048;" d="M266 892q176 58 368 80t398 8q222 -14 398 -176l44 -134q-108 -214 -280 -382l60 -44l118 -192l102 -16q176 74 398 60l58 -30v-30l-102 -162q-178 -88 -384 -116h-44q-206 146 -324 382h-58q-310 -118 -604 -250l-60 44v162l60 88q206 74 390 199t360 273l16 58l-280 30 l-502 -44zM442 1598l208 16l102 -16l44 16q324 14 546 -222l30 -206l-74 -30l-104 118q-324 0 -618 88z" />
<glyph unicode="&#x3049;" d="M248 804l322 44l44 118h58q44 -74 44 -162l308 -90l28 -88q-146 -44 -292 -74l-30 -162l104 -28l306 28q146 -74 234 -206l30 -162l-88 -132q-102 -88 -234 -88l-190 146v74l116 30l44 -16q104 0 190 60l16 58q-74 74 -176 74l-74 -14l-306 14q-30 -192 -146 -338 l-176 -60q-74 134 -74 310q60 132 190 192l118 30l14 176l-28 58h-74l-58 -28l-14 -30h-44l-60 14q-88 104 -102 252zM496 126l44 14l16 44h-30zM1170 994l30 60h58q146 -206 190 -458l-44 -44l-204 162z" />
<glyph unicode="&#x304a;" d="M218 1274q220 60 440 118l14 236h44l58 -44l30 -176q322 28 570 -148l30 -118q-292 82 -570 -30l-16 -58l60 -340q248 0 497 -7t423 -199l60 -264q-30 -208 -220 -354q-160 -74 -352 -74l-102 104l-58 162l44 58l-14 44h28q88 -58 206 -58l174 88l44 102l-58 134l-498 44 l-174 -30q-30 -324 -206 -574l-116 -44q-88 44 -118 118q-160 206 -146 500q176 148 396 222l28 146l-72 266l-162 30l-88 -44q-132 72 -176 190zM482 302l132 -148l14 16l74 250l-74 14l-132 -88zM1550 1510l14 44h30l118 -102l72 -222l-44 -236l-72 -14q-148 236 -118 530 z" />
<glyph unicode="&#x304b;" d="M248 1014v58l14 30q188 102 406 130q30 162 116 308h30l14 -204l-14 -74q174 -58 377 -65t335 -169q116 -176 86 -394q-86 -338 -260 -630l-132 -58l-202 88l-44 58l-58 30l-16 72l160 14l132 -14q188 248 202 556l-42 88q-248 58 -510 74l-58 -44q-42 -250 -86 -498 t-190 -440l-28 16l-58 204q116 322 188 674l-58 28l-86 -28zM1438 1496l88 30l202 -162l116 -234q-42 -58 -130 -58l-28 14l-16 -14q-160 190 -232 424z" />
<glyph unicode="&#x304c;" d="M116 1142q146 44 322 44q0 222 88 398l44 14q44 -176 44 -382l88 -16l72 16q192 -44 338 -192q160 -206 130 -486q-28 -206 -130 -384l-44 -14l-16 -58h-28l-16 -60l-190 -88l-88 58l-58 -14l-14 74l176 102q174 252 174 576q-28 118 -146 206l-102 14l-146 -44 q-30 -250 -66 -493t-154 -449l-132 -60q-44 104 -28 222q72 176 124 368t66 382l-74 30l-88 -30q-130 104 -146 266zM1170 1466l58 14q162 -146 278 -324q118 -206 206 -426q-60 -74 -148 -44q-130 176 -211 382t-183 398zM1478 1526l14 28h44q106 -202 262 -368l-72 -74 h-58q-104 74 -162 192zM1740 1526v132l58 14q132 -132 162 -310l-44 -14q-118 60 -176 178z" />
<glyph unicode="&#x304d;" d="M234 1350q220 102 454 160l28 74l-14 88l72 14l74 -146q380 -30 672 -248l16 -44h-146l-104 14l-44 -14l-42 14l-60 -14l-146 14v-58l162 -220q278 30 496 -58l16 -58l-60 -16l-44 16v-44l-248 -44v-60l74 -160l-60 -14l-174 116l-74 88h-234q-204 -14 -394 -72l-132 72 l-30 74q308 116 658 130v44l-132 220l-58 14q-220 -42 -438 -72q-30 102 -88 190zM410 414l86 14q74 -102 132 -204q322 -74 630 -146v-88q-190 -118 -424 -88l-234 88q-206 176 -190 424z" />
<glyph unicode="&#x304e;" d="M204 720q308 118 658 132v44l-88 278l-58 16l-262 -30l-162 176l454 44l14 306h102l104 -72l14 -220l146 -30l74 16l262 -88l30 -88q-206 -58 -424 -58l-16 -44l88 -250q338 -14 644 -88v-72l-102 -14l-44 14v-30q-176 -14 -352 -44v-58l88 -248l-88 -30 q-218 118 -336 336h-292l-308 -44zM380 400h58l88 -44q88 -162 248 -220q250 -74 498 -176v-30l-14 -72l-206 -44l-512 234q-174 132 -160 352zM1520 1554l118 30q116 -160 146 -352l-102 -28l-102 72zM1828 1642l88 16q88 -148 74 -338l-30 -14l-74 30q-88 130 -58 306z " />
<glyph unicode="&#x304f;" d="M324 838l60 74q236 160 486 321t516 249l14 -118q-118 -146 -250 -270t-280 -256h-30l-14 -44l-44 -14l-16 -30l-116 -132q190 -160 419 -211t419 -199l16 -42h-132q-236 0 -443 51t-383 197q-176 190 -222 424z" />
<glyph unicode="&#x3050;" d="M278 804l58 102l74 30v30l86 44l88 58q118 88 250 132v30q262 192 584 236l44 -132l-88 -118l-424 -310v-30q-72 -72 -176 -88v-30l-130 -58l-16 -58q220 -134 432 -296t460 -250l16 -44l-294 -30q-218 88 -416 243t-416 273zM1286 788l30 88h118q72 -132 58 -294 l-30 -14l-116 44q-74 74 -60 176zM1668 862l28 74h88q58 -118 44 -266l-30 -28q-86 14 -116 102z" />
<glyph unicode="&#x3051;" d="M266 926q44 248 176 438l74 -28q60 -104 60 -234l-16 -60l16 -44l-44 -248q-6 -270 14 -542l-30 -72h-58l-118 72q-88 338 -74 718zM840 998q236 88 502 88q30 220 44 454h88l30 -14v-44h30q102 -176 116 -380l296 -88l14 -60l-14 -28h-30v-30l-132 -14l-88 14 q-60 -176 -60 -380l14 -264q-14 -160 -102 -292l-60 -14q-58 220 -87 454t-45 468l-206 28l-192 -58l-58 30z" />
<glyph unicode="&#x3052;" d="M102 472q30 190 37 380t95 352l102 14l74 -234q-56 -494 -44 -994v-30l-148 58q-130 206 -116 454zM730 926l308 14l176 -14q44 190 72 380h44l88 -58q88 -146 74 -322q262 14 482 -88l16 -88q-246 -16 -484 -44l-14 -248l14 -162q14 -190 -72 -336h-60 q-132 146 -132 344v402l-116 44q-160 -30 -322 -44zM1536 1554h72q104 -88 132 -218l-102 -30l-88 102zM1754 1658l44 14l88 -30l60 -116l-104 -16l-58 30z" />
<glyph unicode="&#x3053;" d="M410 1438q146 116 350 102q118 -44 248 -44l206 14q146 -14 264 -102l190 -262h-44l-44 14l-30 -14q-132 72 -308 58l-116 -30l-44 16l-58 -16q-146 58 -322 74q-74 -44 -162 -30q-116 88 -130 220zM438 400h44v-30q234 -176 526 -204q294 72 616 86l116 -14v-44 q-278 -248 -644 -278q-306 14 -526 234q-116 102 -132 250z" />
<glyph unicode="&#x3054;" d="M232 454l58 14q116 -146 276 -248q176 -42 378 -28q306 58 610 86v-42l-28 -176l-74 -28l-14 -30q-246 -116 -552 -116l-72 16l-30 -16q-260 74 -450 306q-116 102 -102 262zM232 1368q234 102 524 88q304 -58 580 -218l30 -146l-58 -14l-58 14l-204 -14q-174 72 -364 86 l-174 -28q-86 72 -188 116zM1540 1542h72l30 -14l44 -290l-30 -58h-44q-116 144 -72 362zM1802 1572l14 44h44q116 -160 116 -364l-88 -30q-116 132 -86 350z" />
<glyph unicode="&#x3055;" d="M262 1160q322 160 704 176l14 72l-44 162l58 14l88 -248q336 14 586 -176l14 -58q-220 -60 -454 -88l-14 -88l58 -278l-14 -44l14 -58l-30 -30q-130 220 -190 468q-302 28 -598 -14l-162 72l-14 60zM380 560l58 30l30 -16q44 -160 102 -306q176 -102 366 -161t394 -89 v-28q-190 -44 -394 -88q-206 14 -352 160l-14 44h-30l-86 162h-30z" />
<glyph unicode="&#x3056;" d="M116 1086q190 16 371 38t355 66l16 102l-16 88l58 204h44q74 -176 88 -380q362 44 638 -132v-44q-218 -146 -478 -160l-16 -44l146 -366l-44 -30q-144 102 -246 250l-74 174l-144 30l-480 -58l-116 116l-72 30zM392 546l14 44l74 14l58 -44l144 -394q276 -162 612 -220 v-30l-190 -72q-290 -16 -508 160q-232 220 -204 542zM1526 1584l58 14q102 -132 130 -306l-14 -30h-30l-102 102zM1830 1510l14 104l74 28q72 -160 58 -350l-14 -16q-102 104 -132 234z" />
<glyph unicode="&#x3057;" d="M438 926q30 306 132 600l74 14l58 -44q34 -426 14 -848q14 -248 132 -454l146 -44q308 102 614 206l-72 -148l-74 -14l-28 -58l-118 -102l-44 -16l-30 -58l-248 -58q-234 58 -424 234q-116 160 -124 365t-8 425z" />
<glyph unicode="&#x3058;" d="M414 612q14 204 36 400t52 400l118 14q88 -204 102 -436l-14 -44q14 -216 22 -434t110 -394l134 -14q324 116 618 320v-30l-118 -304l-74 -44l-44 -14l-44 -58l-74 -14q-132 -88 -308 -74q-222 44 -398 204q-162 218 -118 522zM1224 1398l58 14q74 -146 134 -306l-30 -86 l-88 -14q-104 174 -74 392zM1562 1324l30 160h44q74 -174 88 -362l-74 -74q-88 116 -88 276z" />
<glyph unicode="&#x3059;" d="M176 1310q234 72 482 101t512 45q0 116 58 174l44 -174q190 -16 373 -52t329 -166l16 -58q-294 -160 -660 -160q-44 -116 -44 -262q118 -160 88 -392q-28 -232 -146 -436l-72 -28l-30 72l102 392h-28l-44 -14l-30 -44q-118 -116 -292 -88l-190 116q-118 160 -88 364 q44 174 174 306l176 42l250 -86l14 72q-146 58 -308 72l-58 -14l-74 14l-248 -28l-292 144zM688 570q102 -116 248 -132l44 30l146 160l14 174q-116 86 -248 102l-132 -88q-88 -102 -72 -246z" />
<glyph unicode="&#x305a;" d="M132 1262q204 88 438 125t468 51l14 44l-28 116h44l88 -160q248 -30 467 -110t409 -242v-44q-116 -58 -262 -58l-58 14q-220 -58 -454 -102l-16 -176q60 -146 60 -320q0 -308 -162 -556l-72 -30l-30 14v30l118 336h-30q-88 -116 -234 -102l-118 74q-86 190 -58 424 q14 160 146 278l60 72q-220 0 -418 59t-358 191zM834 428l58 -102h116l88 88l30 204l-44 162l-88 28l-132 -130zM1638 1598l44 16l88 -88v-102l-44 -16q-88 74 -88 190zM1842 1570v58h30l88 -44l14 -74l-28 -58z" />
<glyph unicode="&#x305b;" d="M350 918v58q190 102 424 116q30 188 88 364l60 14l28 -130l-28 -248h234l248 44q58 116 44 246h58l58 -42v-88l-14 -130q234 -30 410 -190l14 -58q-234 -44 -454 -86l-86 -306h-60l-28 146l28 174q-102 44 -218 28l-234 -28l-44 -204l14 -44l-14 -260l102 -132 q160 -72 350 -44l468 16v-30l-116 -116q-162 -72 -352 -102q-292 0 -496 190q-176 232 -132 552l28 174h-72l-74 -44z" />
<glyph unicode="&#x305c;" d="M58 848q190 88 396 118l28 382l-14 30l28 132h44q88 -250 118 -516l44 -14l424 58l44 428h44q88 -192 72 -428q250 -28 468 -102l60 -30l28 -88l-58 -30q-204 -102 -482 -102q-30 -162 -118 -310l-58 -14l-30 308q-190 60 -408 60v-192q0 -250 174 -412q146 -104 352 -90 l394 60v-30q-174 -162 -408 -220q-118 0 -206 44v30q-234 72 -424 280q-102 234 -102 500q-206 14 -396 104zM1536 1496l14 74h44l102 -118l30 -192l-44 -44l-102 88zM1858 1598h44l58 -28q44 -104 30 -236l-44 -44q-118 132 -88 308z" />
<glyph unicode="&#x305d;" d="M364 750q130 162 297 293t341 233v44h-130l-174 -44q-102 60 -160 162l-14 44l-30 14v44q376 -38 756 14l202 -130l16 -74q-174 -292 -480 -438q-174 -60 -320 -192l-72 -102h58q232 60 457 118t457 116l146 -102l14 -88l-174 -132l-320 -322v-58l44 -102l174 -102 l16 -58l-58 -74h-74l-188 102q-116 132 -116 322q28 190 174 336h-88l-318 -72l-74 14l-116 -14q-160 -30 -218 102q-44 58 -28 146z" />
<glyph unicode="&#x305e;" d="M262 714l616 486v60l-250 30l-88 -30q-174 118 -262 324h58l160 -14l44 14l44 -14l688 72l248 -250l-58 -88l-234 -148v-28h-28v-30q-308 -162 -600 -368v-30l58 -30q234 44 468 89t468 89q102 -90 102 -222q-190 -74 -380 -177t-350 -249l-16 -60q250 -88 528 -88 l102 14v-30l-146 -146l-278 -16l-264 104l-14 44h-30q-74 104 -58 250l248 280q-342 0 -688 -44l-58 44zM1580 1274l58 16l88 -104v-74q0 -88 -74 -132q-116 118 -72 294zM1858 1304l44 14q88 -72 72 -190l-28 -60l-60 -14z" />
<glyph unicode="&#x305f;" d="M160 1336q240 -4 480 28l86 264h58q74 -44 44 -132l-14 -116q188 -30 399 -37t385 -95l14 -58q-202 -44 -398 -88t-414 -60q-88 -278 -103 -585t-159 -555q-88 234 -58 512q-14 300 72 600l-160 44l-144 116q-30 88 -88 162zM916 296l102 60q290 -206 668 -220v-30 l-16 -44q-130 -102 -304 -116l-334 102zM1046 852h30q304 0 580 -102l14 -88q-116 -28 -232 -44q-144 74 -320 74z" />
<glyph unicode="&#x3060;" d="M90 1292l412 28q14 146 74 264h44q58 -118 58 -248l162 -16l414 30q206 14 338 -118v-58q-192 -116 -412 -146l-44 14l-44 -14l-46 14l-88 -14l-88 14l-44 -14l-104 14q-102 -278 -139 -577t-81 -593l-74 58q-132 220 -88 512q44 294 88 586q-176 74 -324 204zM826 122 l132 14q104 -58 222 -44l368 30l192 -30q-74 -102 -178 -146l-176 -16l-206 16l-60 -16q-162 16 -280 148zM900 780l426 28q178 -28 340 -116v-44l-44 -14l-16 -30q-206 -58 -412 -74q-162 60 -280 206zM1636 1598h74l58 -262l-58 -16q-104 118 -74 278zM1872 1584l14 44h74 l16 -74q0 -116 -46 -190q-88 88 -58 220z" />
<glyph unicode="&#x3061;" d="M192 1218l442 58l30 338h58q148 -118 104 -322q470 56 898 -132l16 -58q-118 -88 -280 -60l-134 16q-234 -30 -456 -74l-44 -438h88q280 116 590 146q162 -88 280 -220l14 -234l-162 -308q-132 -146 -324 -130l-14 58q206 248 264 556l-74 88h-58l-618 -162l-118 88 q-90 264 -104 570q-206 60 -382 176z" />
<glyph unicode="&#x3062;" d="M14 1086q248 60 482 132l30 336h58q88 -130 104 -292q234 -14 475 -22t431 -124v-102q-204 -60 -438 -67t-454 -21q-44 -220 -30 -468l102 -16q264 74 556 104q176 0 308 -118q74 -88 74 -220q-16 -234 -206 -380q-72 -44 -160 -28l-162 28v44q146 44 220 190l58 234 l-44 60h-132q-320 -44 -614 -132q-132 58 -204 190v438h-44l-118 -14l-218 116zM1418 1584l44 14l74 -72l28 -176l-72 -44q-102 118 -74 278zM1726 1584l44 14q88 -102 58 -248l-44 -14q-88 102 -58 248z" />
<glyph unicode="&#x3063;" d="M278 780q234 88 512 72q278 0 482 -218q74 -88 74 -220q-44 -220 -190 -396q-132 -160 -352 -130l-44 14v72q176 148 264 352l28 176q-174 88 -394 88l-44 -16q-190 16 -322 146z" />
<glyph unicode="&#x3064;" d="M102 1232l930 132q188 0 377 -36t319 -182q146 -162 146 -366q-14 -366 -290 -614l-232 -162q-146 -102 -350 -116l-28 72q-160 -14 -204 102l306 190l420 440l30 132l-58 88q-204 102 -429 160t-473 30l-362 -30l-58 44z" />
<glyph unicode="&#x3065;" d="M132 1058q174 116 379 182t439 52q366 0 614 -264q162 -204 148 -482q-60 -308 -234 -556q-132 -132 -308 -162l-190 44v102q262 132 410 382l14 336l-88 132q-278 116 -614 116q-206 -58 -380 -160l-74 44q-102 102 -116 234zM1550 1570h30l160 -220v-102l-102 -44 l-30 14zM1872 1642l14 30h30l58 -44l58 -292l-72 -16q-88 146 -88 322z" />
<glyph unicode="&#x3066;" d="M174 1482q248 14 495 51t507 21q248 16 408 -174l14 -74l-58 -58l-232 -132v-30q-174 -102 -290 -278q-102 -146 -102 -322q-30 -204 130 -320q248 -118 522 -192l16 -58q-174 -28 -364 -58q-188 30 -348 176q-146 204 -130 482q28 366 304 614l72 88l-42 14l-712 -86 q-132 146 -190 336z" />
<glyph unicode="&#x3067;" d="M190 1510l116 16l44 -16l338 44l42 -14q294 74 616 58q116 -28 204 -132l14 -58l-44 -102q-86 -116 -204 -160l-58 -44l-336 -322q-176 -176 -162 -440l102 -248q206 -190 484 -190l14 -44l-220 -88h-28q-190 30 -352 160q-160 206 -160 484q28 220 145 410t279 350 l44 16l14 102h-44q-308 -88 -644 -102l-58 42q-118 118 -146 278zM1330 824l60 14q88 -118 102 -264l-30 -44h-44q-116 118 -88 294zM1652 852l16 30h28l102 -132v-102l-58 -44q-72 116 -88 248z" />
<glyph unicode="&#x3068;" d="M366 428q58 190 160 366l-14 44h-30q-146 278 -102 644q0 102 74 132l86 -88q118 -264 190 -542l44 -14q294 220 630 306v30h74l58 -30l14 -102l-72 -88q-278 -204 -556 -394l-322 -366l-16 -118l132 -130q352 -60 674 -132q-250 -88 -512 -118l-308 146 q-190 192 -204 454z" />
<glyph unicode="&#x3069;" d="M208 428q88 176 190 352q-176 292 -176 672l14 30h44q118 -74 162 -190l134 -338l58 -14q324 190 678 278l60 -28l28 -74q-14 -118 -88 -190q-338 -118 -618 -380q-162 -176 -222 -380l60 -88l176 -88h736l74 14l30 -14v-30l-118 -44l-14 -58q-222 -88 -472 -118 q-280 0 -502 148q-220 234 -234 540zM1416 1466l72 44l104 -130q74 -118 74 -250l-104 -14q-132 160 -146 350zM1784 1526l14 44h44l74 -60l30 -248l-44 -14l-104 102z" />
<glyph unicode="&#x306a;" d="M160 1204l74 58l44 -14q102 58 234 58l102 264l44 14l44 -234l-14 -44q218 -44 424 -116l28 -88l-468 -104q-72 -350 -190 -672h-28q-88 116 -74 264l58 394q-132 -14 -220 44zM614 -40v88l116 234q162 118 366 132q30 234 60 454h28q102 -148 118 -338l-16 -58l30 -58 q248 -74 438 -278l30 -88l-160 -74q-176 104 -366 162l-190 -248l-264 -132zM774 62l132 -14q88 58 102 160h-116l-102 -72zM1360 1496l74 14v-28l44 -16q146 -248 234 -512l-44 -58l-148 118q-160 204 -160 482z" />
<glyph unicode="&#x306b;" d="M102 346q30 296 88 575t132 545h44q102 -88 88 -220l-74 -900l14 -426l-102 -16l-102 44q-102 178 -88 398zM702 420l102 14q58 -102 176 -176l306 -30q234 74 498 118v-44l-30 -58l-130 -134q-206 -132 -468 -118q-220 44 -382 192q-72 104 -72 236zM878 1422h28l60 30 q204 -30 372 -111t330 -199q58 -104 44 -250h-44l-30 58q-396 0 -658 296l-14 58l-44 14z" />
<glyph unicode="&#x306c;" d="M146 414q72 264 248 498q-58 190 -72 394l72 44l146 -336l88 -16q162 88 352 132l204 440l74 14l44 -118q-74 -116 -60 -276q236 14 396 -148q146 -160 160 -364l-14 -88l14 -44l-72 -250q190 -160 248 -366l-132 -14l-28 14l-176 162h-44q-146 -146 -352 -132l-160 146 l-30 250l16 44l-16 72q104 88 250 74q116 -104 262 -146l60 292q0 116 -88 204q-146 58 -336 44l-74 -28q-74 -176 -161 -352t-147 -352l74 -72q-292 -58 -526 -248q-132 86 -206 234zM306 268l132 -146l16 14q86 72 102 190l-88 220h-44q-118 -118 -118 -278zM658 692 l72 -118l118 264h-44l-132 -74z" />
<glyph unicode="&#x306d;" d="M102 516q160 132 348 190l16 102q-132 30 -234 132l-86 162h58l290 -88q30 268 44 540h58q72 -322 116 -658h44q160 88 319 183t363 81q174 -44 320 -190q130 -190 86 -454l-86 -264l102 -86q58 -104 58 -220l-44 -16q-116 118 -246 176l-146 -88v-28 q-130 -118 -320 -102l-58 28q-146 118 -116 292l102 162q116 88 290 72l174 -58q146 190 116 440l-116 146l-202 14q-176 -72 -335 -168t-319 -226l-74 -660h-42q-176 192 -146 454l14 58l-14 30h-58l-174 -58zM1308 238l72 -30l14 16l44 14v58h-86l-44 -14v-44z" />
<glyph unicode="&#x306e;" d="M176 700q102 162 182 331t212 317l44 14l58 104q206 118 468 104q176 -30 322 -134q176 -176 242 -390t66 -464q-16 -266 -132 -486h-58l-30 14l-14 148l72 456q0 280 -190 486l-204 74l-14 -58q58 -178 42 -398q-58 -206 -116 -398t-176 -368q-234 -162 -482 -266 l-58 44l-16 44l-116 134q-118 324 -102 692zM482 376l74 -132l72 -16l16 16q174 132 292 324q88 236 146 486l-44 206l-44 14l-204 -146q-162 -148 -235 -340t-73 -412z" />
<glyph unicode="&#x306f;" d="M30 998q0 294 160 484l144 -88v-88q-44 -234 -28 -482q28 -206 50 -418t66 -402h-16l-202 74q-132 190 -146 431t-28 489zM712 238l102 204q144 74 320 104l14 394l-72 58l-176 -58l-100 44l-58 146l348 102q2 146 14 294h44l86 -88l16 -190q202 -16 392 -88l44 -88 q-146 -30 -276 -74l-88 16l-14 -176l28 -352q248 0 422 -204l28 -102l-72 -44q-188 116 -392 176l-130 -234q-102 -104 -248 -118l-116 58l-14 60h-30v28l-42 16zM930 282l72 -44l74 132h-44l-102 -44v-44z" />
<glyph unicode="&#x3070;" d="M160 758q16 370 162 678l72 16q88 -74 74 -192q-88 -294 -95 -626t-51 -656l-132 148q-44 308 -30 632zM644 258l146 176q116 74 278 74l174 -30q60 236 44 502q-44 74 -130 44l-88 -30v-28h-60l-146 146v74l366 74l44 294l44 16q30 -148 58 -296l366 -74l30 -88 q-162 -74 -352 -74l-14 -44q44 -206 30 -442l-16 -118q190 -72 352 -220q88 -74 72 -192l-130 -14q-192 132 -396 206l-88 -162q-160 -118 -350 -148q-74 60 -162 60q-102 118 -72 294zM892 170l116 -16l132 148l-102 14l-132 -88zM1608 1570l44 14l88 -192h-44 q-88 74 -88 178zM1842 1642l44 16l60 -44l14 -118l-30 -16l-58 30z" />
<glyph unicode="&#x3071;" d="M72 936q60 236 176 442h44l74 -162q-74 -178 -81 -376t-7 -406l28 -398l-14 -102h-30q-174 192 -182 464t-8 538zM540 272q30 118 148 206q160 90 336 104l14 236l-30 74l-86 14l-88 -14q-146 14 -250 102l-14 60l30 88l366 44l42 354l44 14q44 -176 74 -368l512 -88 l14 -44q-204 -162 -468 -178l-14 -58l30 -294q218 -90 394 -236l74 -192h-60q-218 162 -452 266q-88 -104 -132 -222q-176 -74 -352 -176q-102 146 -132 308zM804 258l58 14l74 44v46h-44zM1594 1554l58 88q60 60 162 46l146 -134l14 -132l-88 -118l-190 -58 q-132 132 -102 308zM1652 1422l60 -74h42l16 14l132 134l-60 88l-102 30l-58 -44z" />
<glyph unicode="&#x3072;" d="M88 1318q248 118 540 118l234 -102l60 -148q-118 -102 -220 -220h-30v-30h-28q-88 -178 -183 -340t-95 -368l160 -176l132 -30q234 30 410 222q146 190 234 404t160 436l-28 102q58 88 160 74q30 -176 74 -354l-16 -44q118 -206 176 -442q-44 -58 -132 -44 q-116 176 -160 398h-58q-16 -192 -111 -354t-211 -310q-220 -236 -528 -250q-132 14 -234 88l-160 222l-16 220l88 252h30q132 264 234 530h-88l-292 -30l-88 88z" />
<glyph unicode="&#x3073;" d="M116 1336q176 88 366 124t396 50l160 -146l14 -88l-102 -146h-28l-176 -248l-132 -118q-220 -204 -264 -482l118 -190l262 -58q250 58 440 234q160 262 248 570l176 58q58 -146 102 -306q118 -148 146 -338l-14 -44l-132 -14l-132 264l-44 14q-58 -190 -204 -350 q-264 -220 -600 -294q-248 0 -424 206q-132 174 -102 424q88 190 227 365t255 351h-132l-234 -14l-130 72l-16 60zM1492 1496l44 14l132 -320l-44 -30q-118 146 -132 336zM1712 1614l58 14q116 -132 132 -308l-16 -28h-44q-116 146 -130 322z" />
<glyph unicode="&#x3074;" d="M218 1262q306 132 668 132l102 -146l-88 -74q-130 -248 -282 -490t-196 -518q58 -118 174 -176h160q160 58 304 176q146 190 219 409t173 423l146 44q30 -364 160 -702l-30 -88l-72 -28l-130 350h-44q-58 -292 -262 -526q-276 -248 -682 -220q-190 88 -290 278v190 q58 250 174 462t218 446h-116q-102 -58 -218 -88zM1482 1364l58 118l188 72l176 -88q58 -102 42 -234l-130 -116l-160 -14l-160 146zM1554 1306q58 -88 146 -88l58 30l58 116l-44 88l-58 14l-146 -72z" />
<glyph unicode="&#x3075;" d="M116 494l132 236l118 88l44 -118q-16 -222 -118 -412l-58 -30q-102 104 -118 236zM394 52q190 102 402 132t360 236l44 132l-104 104l-174 74q-60 88 -60 206l308 148l14 88l-234 132v30l-248 88l-74 192l132 14q278 -74 512 -220q102 -118 118 -280l-88 -134l-220 -118 l-14 -58q160 -44 292 -192l102 -236q-44 -146 -132 -264q-234 -236 -556 -266q-190 44 -364 132zM1624 892l146 -118q116 -236 160 -502l-44 -58h-72q-250 280 -190 678z" />
<glyph unicode="&#x3076;" d="M190 464q58 178 174 324h42l30 -220q-58 -192 -146 -368q-100 102 -100 264zM494 1598h72q378 0 668 -206q102 -118 88 -280l-28 -58l-88 -44l-102 -90h-58v-28l-28 -60q158 -74 276 -236l28 -308l-102 -236l-232 -222h-160q-102 44 -188 118q-88 104 -102 236h58 l116 -14q188 14 348 118l88 190l-58 118q-160 60 -290 208l-16 176l218 206v44q-86 60 -188 44l-58 -28l-74 102q-86 14 -158 88q14 90 -30 162zM1496 832h58q174 -132 276 -324q88 -146 88 -338q-30 -60 -116 -60l-132 90q-160 278 -174 632zM1568 1510l44 16l116 -148 l30 -132l-14 -16l-146 118zM1830 1584h58q88 -104 74 -250h-58q-88 102 -74 250z" />
<glyph unicode="&#x3077;" d="M132 516l204 352l58 14q74 -74 60 -190q-60 -220 -104 -454l-72 -14l-132 132zM672 150v58l162 16l72 -16l278 132q74 88 74 206l-132 160l-204 102q-60 88 -44 190q130 132 190 294l-264 160l-44 118h58q220 -60 410 -206l58 -132q0 -116 -72 -204l-146 -102l-16 -44 q148 -44 264 -162q176 -160 162 -408q-16 -132 -104 -220l-58 -14v-60l-204 -72l-60 14l-190 -30l-102 88l-30 88zM1462 1364l88 162l162 28l190 -102l72 -160l-88 -146l-204 -60l-146 88zM1594 1232l88 -28l146 132v58q-44 58 -132 44l-72 -44zM1638 794h74 q204 -308 248 -672l-74 -30l-102 58q-132 292 -146 644z" />
<glyph unicode="&#x3078;" d="M132 486q102 192 182 382t182 380l250 44q146 -44 262 -146q192 -176 352 -374t278 -402q74 -88 88 -204h-102l-176 86q-118 190 -271 381t-329 365l-118 30q-146 -278 -350 -542l-74 -72l-28 -88h-60z" />
<glyph unicode="&#x3079;" d="M88 524q72 190 166 367t226 355l174 88q232 -16 406 -222l16 -44l86 -58l190 -252h28q146 -206 313 -390t151 -448h-28q-102 28 -188 102l-814 1046h-44l-72 -58q-218 -296 -334 -634l-44 -14v-30h-102l-116 88zM1380 1436h30l116 -264l-58 -44q-102 132 -88 308z M1714 1496h58l72 -222q0 -74 -58 -88q-86 132 -72 310z" />
<glyph unicode="&#x307a;" d="M102 340v30q30 132 102 234h30q116 278 292 542q88 72 204 72q206 -44 352 -205t308 -307l570 -628v-60l-118 -44q-204 88 -380 264q-132 190 -293 380t-351 336h-72l-292 -408l-74 -74l-30 -160l-132 -44l-86 44v28h-30zM1302 1232v132l88 118l218 28l118 -58l88 -262 l-74 -118l-204 -88q-176 74 -234 248zM1374 1204l74 -88h72l44 30l132 102v88q-58 88 -160 102l-146 -162z" />
<glyph unicode="&#x307b;" d="M190 509v445l72 308h44q44 -160 30 -336l-14 -396l28 -364l-44 -74h-28q-88 190 -88 417zM628 896l512 16v42l-14 74l14 30l88 -176q220 -30 424 -88v-44l-28 -58q-162 -44 -338 -58l-14 -148q308 -102 570 -292q88 -102 74 -248l-102 -30l-250 146l-44 60 q-116 72 -248 102l-146 -278l-146 -74l-44 16l-74 -30l-132 30q-86 102 -86 248l72 220q176 174 424 160l30 132q-176 58 -366 58l-58 -14q-88 88 -118 204zM804 150h102l74 44l116 146h-116l-146 -88zM862 1540l88 14q206 -28 381 -94t351 -168l44 -102l-44 -60h-58 q-294 88 -616 132l-116 132z" />
<glyph unicode="&#x307c;" d="M132 428q0 250 43 476t87 460h44q88 -262 60 -570l-30 -160l14 -44l-14 -60l14 -44l-14 -102l30 -512l-60 -14l-28 14l-30 44h-30q-116 220 -86 512zM614 252l102 206q162 88 352 116l14 74q-220 30 -424 58l-30 88l424 44l16 88l-44 264q-146 -16 -250 86l-58 118 q118 88 278 58q292 0 542 -146l58 -160h-30l-28 44h-132l-308 -16v-28l60 -308q204 14 380 -74l14 -58l-380 -44v-44l58 -72q308 -74 542 -294q88 -102 72 -234q-44 -58 -130 -44q-250 192 -528 322q-14 -146 -102 -262l-220 -88q-102 0 -190 58q-88 102 -58 248zM774 180 l74 -14l146 58l58 132l-102 28l-146 -88zM1608 1570l60 28q58 -146 116 -278l-88 -28q-88 116 -88 278zM1886 1628l60 44q72 -118 58 -278l-58 -30q-60 118 -60 264z" />
<glyph unicode="&#x307d;" d="M116 736l102 600h44q44 -294 44 -608t44 -606l-44 -132h-28l-118 116q-44 308 -44 630zM540 136q16 116 104 190q218 88 482 88l14 204q-278 44 -526 146l-14 74q264 22 526 14v234l-44 88l-292 162l-16 44l88 28q380 -28 674 -234l14 -44l-72 -14l-74 30l-74 -16l-72 16 l-30 -60l58 -218q264 14 426 -132q-192 -88 -410 -118q-44 -102 -30 -218q234 -44 410 -206l72 -220h-116q-220 88 -438 192l-104 -148h-28l-16 -44l-160 -58v-28l-102 -30l-234 176zM774 122l176 -74l16 14l102 162l-132 14l-146 -44zM1594 1438l118 160h102 q160 -58 218 -218l16 -104l-88 -204l-176 -58l-146 146zM1740 1262l58 -102l88 -14l16 14q28 102 44 204l-74 118l-58 14q-102 -88 -74 -234z" />
<glyph unicode="&#x307e;" d="M278 824q322 88 672 102v102l-72 220l-148 14l-130 -30q-118 60 -250 74l-28 132l58 14v44l410 88l14 102h30l72 -116q220 -16 396 -118q88 -88 88 -220l-44 -14l-74 44l-248 -30v-146l44 -160q262 -14 482 -118l58 -88q-234 -72 -512 -72l-14 -146q292 -30 526 -206 l30 -160l-14 -30q-104 -72 -234 -44l-352 104q-88 -162 -234 -250q-132 -72 -308 -58l-58 44q-116 88 -102 220l88 190q248 130 526 146l30 190l-206 44l-380 -14zM512 92l132 -58l116 58l102 146l-160 14l-176 -86z" />
<glyph unicode="&#x307f;" d="M204 414l74 132h28l30 58q264 146 570 190l16 176q-16 176 -148 306q-116 30 -234 44l-44 -14l-130 118v58q28 102 116 132v-30h30l102 14q160 -14 278 -132q190 -276 220 -628l102 -14l190 44l58 468h30q58 -220 58 -468q176 0 308 -118l14 -58l-118 -102l-204 -30 q30 -366 -132 -658q-72 220 -58 482l14 176l-306 14q-118 -278 -322 -526l-234 -88q-132 0 -220 74q-74 174 -88 380zM380 312l102 -132h58l74 44q176 146 234 350h-160q-148 -14 -264 -102q-58 -72 -44 -160z" />
<glyph unicode="&#x3080;" d="M148 1190q250 130 560 146v174l-14 88l72 44q90 -132 104 -292q294 0 530 -118q-250 -116 -516 -174q0 -234 -29 -461t-73 -447q88 -102 220 -102q354 102 694 220l58 -30q60 -102 44 -234q-58 -102 -162 -160q-176 -88 -382 -74q-310 30 -532 278l-88 176 q-176 -30 -294 88l-118 204q58 190 192 336l132 44l148 -28l14 116q-310 -14 -546 162zM414 560l58 -132h74q118 102 132 250q-74 72 -176 42zM1416 736v146q72 146 206 278l74 30q102 -104 88 -264l-192 -336h-30z" />
<glyph unicode="&#x3081;" d="M102 486q30 192 176 322l176 132v58q-88 148 -74 352h58l102 -102l74 -220h58q206 58 410 102l160 366l60 14l28 -58h30v-132l-30 -190q250 -28 440 -218q116 -192 146 -410q-30 -220 -146 -396q-132 -58 -264 -88l-44 118q146 264 250 526q-74 132 -220 176l-250 14 q-160 -292 -364 -556q102 -160 146 -350h-44q-132 72 -206 204h-58q-190 -190 -438 -262l-74 116q-116 220 -102 482zM248 340l74 -160h102l176 116l58 104l-132 336h-44l-132 -88q-88 -132 -102 -308zM702 764l58 -174l44 14l132 248h-118l-116 -28v-60z" />
<glyph unicode="&#x3082;" d="M176 530l554 104q-20 196 0 394l-72 14l-234 -14q-88 132 -118 278l16 58l394 16l30 204h28q60 -102 88 -220q176 -44 308 -160q102 -102 146 -234h-146l-102 28l-44 -14l-132 44l-14 -220l44 -130q248 0 482 -74v-44q-204 -118 -454 -132l-14 -44q14 -160 146 -278 l176 -44q262 60 512 132v-58l-102 -132l-118 -44l-14 -44q-162 -88 -366 -72q-146 44 -248 174q-118 162 -148 352l-116 14q-190 -44 -396 -58q-86 88 -86 204z" />
<glyph unicode="&#x3083;" d="M190 384v44q14 74 102 88l204 162v72l-28 292l14 30h30q88 -146 102 -322l102 -14l176 72l88 322h44l14 -88l-30 -218q234 28 396 -118q102 -132 116 -292l-72 -118l-176 -160l-190 -30l-146 118v102q234 -30 380 132l14 44l-58 88l-132 14l-190 -74l-44 -102h-44v102 h-88l-72 -28l-14 -118q102 -218 72 -482q-190 234 -204 526h-74l-132 -102l-44 -44z" />
<glyph unicode="&#x3084;" d="M248 648q118 132 248 204l16 132q-58 248 -58 512l14 74h28q104 -294 176 -600l74 -16q234 118 482 220q30 220 88 410h30l28 -394q250 28 424 -118q162 -190 162 -454q-44 -218 -220 -380q-204 -132 -468 -116q-102 58 -72 174l42 16l60 -16q248 44 424 250l14 116 q0 118 -102 190q-118 60 -248 60l-104 -264l-44 -14l-28 248l-74 14l-394 -160l-16 -44q44 -190 81 -380t67 -382q0 -72 -44 -116q-118 74 -176 190q-102 308 -132 644h-58q-74 -88 -176 -88q-58 14 -44 88z" />
<glyph unicode="&#x3085;" d="M218 574l44 264h44l88 -102v-74l-28 -220l44 -14l130 176l322 176l16 102l-16 220l60 72l44 -350q204 0 364 -132q104 -132 74 -308q-30 -160 -132 -292q-132 -88 -306 -88q0 -102 -60 -190l-102 264l-74 44q-86 102 -102 234h-44q-130 -190 -174 -410l-30 -16l-14 -42 l-44 42l-60 44q-72 278 -44 600zM730 458l118 -118l30 206l-60 14zM966 268q86 -44 204 -44l58 28q74 88 58 220l-102 118l-204 14z" />
<glyph unicode="&#x3086;" d="M190 604q0 220 73 417t103 417h44q116 -118 116 -278q-44 -248 -30 -512h30q264 264 570 438l60 498l44 14q42 -190 28 -394l-14 -44l88 -30l190 30q190 -30 322 -176q190 -234 146 -556l-132 -220q-146 -146 -350 -130l-236 44q-42 -132 -130 -220q-74 204 -162 410 l16 28h72l44 468h-30q-160 -58 -292 -204q-190 -322 -248 -688h-30l-190 118q-132 248 -102 570zM1214 356l102 -30l220 30l58 -16l132 60l116 130v118q-72 204 -262 322l-132 14l-206 -72q-26 -278 -28 -556z" />
<glyph unicode="&#x3087;" d="M248 166l74 130q146 118 336 132l30 102l-88 484h28l44 -30l58 -176h74l278 88l102 -28v-44l-58 -104l-132 -72l-116 14q-74 -72 -44 -176l28 -86q176 0 278 -118l16 -74h-162l-116 30l-44 -14q0 -190 -118 -322q-102 -74 -234 -58l-72 44q-118 116 -162 278zM468 150 h116l44 102l-72 16l-88 -74v-44z" />
<glyph unicode="&#x3088;" d="M160 268q58 174 206 306q234 104 512 104l88 -16q42 58 28 132q-72 190 -131 395t-103 409h30l146 -146l44 -102l102 -14l14 44q206 130 484 130l146 -72l14 -74l-146 -132h-30l-58 -102l-116 -44l-132 16l-132 -44l-14 -60q72 -160 88 -350q234 0 408 -132 q74 -88 60 -220h-74l-394 104q-44 -234 -192 -440q-190 -160 -452 -176l-176 16l-58 102l-146 132zM438 224q118 -176 322 -176l88 44q160 146 146 350q-146 44 -322 30q-102 -14 -176 -102z" />
<glyph unicode="&#x3089;" d="M488 1116l72 264h30q74 -60 60 -148q-46 -204 -30 -438l30 -58h102q280 72 590 72l264 -130q118 -148 90 -366q-46 -206 -222 -352q-148 -58 -280 -116l-14 72q236 264 308 600l-88 102l-146 16q-296 -60 -560 -162l-192 176zM930 1774q250 -102 456 -264 q148 -116 132 -292l-88 -14q-162 28 -294 146l-74 74q-148 146 -132 350z" />
<glyph unicode="&#x308a;" d="M334 686l14 44l-14 72q44 362 116 712h30q174 -190 116 -480q-30 -334 -72 -640l-146 102zM930 -26q116 378 247 755t175 785l-16 102h30l14 -44l58 -16q130 -260 88 -594l-16 -44l16 -174q-16 -204 -88 -393t-204 -349q-116 -86 -260 -116q-58 16 -44 88z" />
<glyph unicode="&#x308b;" d="M292 1482q404 -118 834 28l176 -116v-44l-74 -118h-28l-88 -116q-234 -162 -382 -396q226 52 454 30l30 14q248 -14 438 -204q60 -118 44 -278l-72 -132q-132 -160 -322 -248t-396 -102q-146 0 -248 146l-30 102l88 132l292 72q206 -28 382 -116l160 160v88 q-58 102 -176 146l-322 30l-44 -14l-116 14q-278 -30 -526 -146l-30 146l600 716h-190q-190 0 -352 -44zM892 34l220 -16l88 16v58l-220 14l-88 -28v-44z" />
<glyph unicode="&#x308c;" d="M190 1180l14 42l-14 44q176 -116 350 -160q44 190 60 378l-16 116h44l88 -58l14 -58h30q-4 -308 30 -610h44q190 146 395 255t453 137l102 -72l30 -88q-60 -218 -155 -421t-153 -421q74 -86 176 -58l322 58v-44l-58 -130q-162 -146 -382 -160l-160 72q-88 102 -74 248 q30 218 132 407t146 391h-58q-176 -42 -337 -137t-307 -211l-116 -130l-16 -116l16 -132q-30 -246 -132 -450l-44 30q-58 246 -74 522h-44l-86 -88h-44l-148 132v44l322 144l16 218q-146 14 -264 116z" />
<glyph unicode="&#x308d;" d="M176 1426q204 58 431 65t431 51l44 -14q154 -2 308 28q116 -28 218 -86v-30l60 -28l44 -102q-162 -88 -323 -196t-307 -226l-30 -72q366 0 660 -218q86 -116 72 -262l-102 -188q-176 -174 -410 -204v-28l-102 -14l-176 14v28q248 132 484 320q58 88 42 204l-130 116 q-294 72 -616 86l-58 -28l-72 174q218 276 452 508l-482 16l-176 -44q-160 0 -262 130z" />
<glyph unicode="&#x308e;" d="M88 846h116l176 -58l88 376h44l58 -42q4 -270 14 -538h44q220 174 512 146l206 -102q160 -160 116 -408q-58 -144 -160 -260l-44 -16v-28l-74 -30l-146 74l-14 86q160 44 278 174l28 132l-102 160q-102 42 -220 28q-218 -28 -380 -174q0 -276 -88 -494l-86 72l-74 234 h-30l-72 -30l-132 130l248 176v188h-88l-116 -44q-88 102 -102 248z" />
<glyph unicode="&#x308f;" d="M146 458v72l350 176q44 102 30 234l-58 30l-132 -30q-88 118 -132 264h30q146 -58 322 -88l58 512q204 -308 190 -702l58 -14q264 218 616 190q174 -60 320 -206q148 -176 132 -424q-28 -220 -160 -380q-132 -146 -336 -132l-118 58l-14 132q204 44 350 190 q74 118 44 278q-58 146 -190 250q-116 58 -264 44l-380 -234q-116 -206 -72 -470l14 -42l-14 -44l14 -88q-14 -146 -116 -234q-206 278 -176 642l-44 16l-190 -118z" />
<glyph unicode="&#x3090;" d="M280 540l60 102q264 204 590 290q88 102 88 248l-502 42l-28 -14l-30 -14l-16 44l-88 102l-14 188q386 -54 766 -14l148 -146v-28h28v-30q-132 -160 -176 -364q310 0 544 -144q164 -190 148 -436l-58 -188l-162 -160q-178 -88 -370 -146l-176 58q-88 116 -88 276l88 146 q176 130 398 130l206 -72l30 174l-60 86q-264 102 -574 102l-102 -28l-326 -480q-88 -86 -220 -86q-104 158 -104 362zM488 468l14 -44h44l74 30l146 246h-44l-190 -116zM1150 178q58 -74 162 -60l14 16l192 116l16 58l-178 44l-162 -58z" />
<glyph unicode="&#x3091;" d="M438 1466v60q190 58 388 73t402 15l58 -44l88 -206l-88 -160l-72 -58v-44q160 0 278 -104l58 -218q-14 -132 -88 -220q-248 -190 -540 -292l-30 -88h44l204 58l88 -44l44 -58h44q132 116 292 132q132 -44 190 -176l30 -190l-88 -58l-116 190l-74 28l-102 -44l-118 -160 h-58l-88 72l-44 88l-132 16q-146 -88 -306 -162l-30 88q102 132 146 308q-160 44 -322 102l-14 72l176 236l234 72l58 -30l58 -174l74 -16l322 206l14 44q-306 132 -672 88l-74 -16v146l132 132q146 16 264 132l14 58l-278 44l-44 -14l-146 14l-74 -14zM658 530 q102 -28 220 -44l14 16l30 116l-104 44l-146 -88z" />
<glyph unicode="&#x3092;" d="M234 1364q190 74 394 132l30 176h30l130 -146l338 -16l44 -58v30h28q176 -16 322 -118l30 -102q-162 -132 -366 -146l-146 30l-74 -16l-234 30q-72 -146 -72 -308h28q74 74 190 60l220 -104l44 -58h58l220 162l14 -104l-132 -146v-44q118 -102 104 -262l-74 -44l-220 190 q-146 -146 -204 -322q176 -102 410 -88l190 14l14 -132q-132 -130 -336 -116q-146 58 -292 146q-88 146 -118 322l248 292q-86 74 -204 60q-176 -148 -234 -338h-44q-146 102 -116 264l116 498q-160 44 -292 116q-60 58 -44 146z" />
<glyph unicode="&#x3093;" d="M116 92q88 410 284 775t384 731l58 16q102 -118 102 -278q-116 -220 -188 -468l86 -30l102 14l190 -102q144 -248 218 -512q174 -102 376 -132l74 -146q-132 -58 -276 -102l-276 146q-146 308 -262 630l-58 14q-174 -14 -306 -146q-86 -176 -137 -352t-167 -336l-88 44 q-58 116 -116 234z" />
<glyph unicode="&#x3094;" />
<glyph unicode="&#x309b;" d="M132 1364h58q176 -102 264 -278v-44l-88 -14l-206 204zM380 1540l58 74h58q176 -206 308 -424l-14 -30h-60l-248 160z" />
<glyph unicode="&#x309c;" d="M174 1306l74 146q130 146 334 146l174 -88l14 -58l58 -44q88 -116 58 -278l-28 -44h-30l-28 -58q-132 -74 -292 -88q-160 30 -276 132q-72 102 -58 234zM334 1130q58 -88 174 -72l74 44l28 102l-72 146l-58 14l-132 -132z" />
<glyph unicode="&#x309d;" d="M292 1190l14 72h104l218 -278q162 -102 323 -212t307 -242l44 -130l-30 -44l-44 -16l-14 -28l-162 -88l-14 -30l-176 -14l-14 -44l-146 -74l-14 74q58 220 146 424l-16 44q-190 102 -350 278z" />
<glyph unicode="&#x309e;" d="M146 1146v72l102 30l638 -556l44 -102l88 -44q72 -74 86 -162l58 -28l30 -132l-44 -30l-30 -102h-28l-44 -58l-174 -30l-58 14l-88 -28l-14 58l102 336l-44 74q-160 160 -334 328t-290 360zM726 1232q58 44 146 30l188 -116v-30h30v-30l86 -44l160 -218q-58 -60 -144 -44 q-210 90 -364 262q-44 104 -102 190zM1206 1452l14 30h44q116 -30 218 -118v-28l188 -162l30 -160l-116 -16q-214 86 -350 278l16 44z" />
<glyph unicode="&#x30a1;" d="M190 1130q204 30 416 59t432 15l264 -58v-30l176 -132l28 -102l-14 -44l14 -88l-88 -190l-88 -30l-58 -88q-204 -102 -424 -204q-30 -160 -132 -278l-44 190q58 308 102 630h60l72 -44l16 -102l-16 -44h44l278 204v58l-14 44h-88q-102 -58 -234 -58q-300 -14 -586 74v28 l-44 14q-72 74 -72 176zM644 1102h44v44h-44v-44z" />
<glyph unicode="&#x30a2;" d="M146 1496h30l160 -16q220 90 476 97t518 7q220 0 366 -148q146 -146 118 -368q-74 -280 -264 -500l-308 -192l-42 14l-74 -14l-58 14q-44 -264 -162 -500l-116 -30v30l-30 162q44 236 95 471t51 487h44l58 -30q44 -162 104 -280l218 220h30l58 266q-346 20 -688 30 q-130 -88 -292 -104q-146 104 -234 250z" />
<glyph unicode="&#x30a3;" d="M306 332v132l264 250l160 74l44 60h30l14 44l162 88l14 44h30v30l88 74h28l16 -104l44 -14l14 -148l-44 -132l-132 -44l-14 -60l-74 -30l-14 -470l14 -44l-14 -60l14 -44q0 -88 -88 -88q-102 132 -72 294l14 236l-58 30q-162 -134 -380 -148zM1096 980l44 -14v44h-44v-30 z" />
<glyph unicode="&#x30a4;" d="M366 662l146 250l72 72q250 190 513 358t527 330l72 -58v-44l102 -30l16 -220l-44 -116q-264 -206 -542 -396l-14 -44q72 -190 72 -402t16 -416l-16 -58l16 -44l-74 -88l-132 72l-28 250q44 292 58 584h-44l-88 -28l-44 14q-190 -132 -394 -206l-146 88z" />
<glyph unicode="&#x30a5;" d="M380 552l44 236q88 -44 190 -30l58 30q8 244 16 486l234 -190v-46l-44 -146l58 -118q248 0 438 -118q60 -104 44 -236l-132 -236q-248 -236 -556 -294q-58 44 -42 118q156 186 364 308l30 46l102 162l-44 14l-132 -30l-86 30l-382 -88q0 -148 -44 -280l-58 -16 q-88 178 -58 398z" />
<glyph unicode="&#x30a6;" d="M292 618l14 44l-14 102l44 352l118 -102l262 -16l58 16v44q-28 218 -44 438l30 278h44q162 -160 234 -350l-14 -176l58 -190q308 -30 614 -104l146 -234q-44 -146 -116 -292q-118 -204 -301 -372t-373 -316q-102 -86 -248 -72q-88 58 -58 190l146 176h30l102 146l58 28 l44 60h30q28 88 116 160l220 278q-118 44 -264 44l-58 -14l-264 28q-204 16 -366 -72l-14 -102l14 -234l-44 -88l-42 -16l-74 74q-88 132 -88 292z" />
<glyph unicode="&#x30a7;" d="M334 794h30l28 -44l146 -14l522 14l248 -102l14 -74q-146 -58 -304 -72l-60 14q-86 -160 -72 -366l14 -160l176 -16l130 16l246 -74l16 -72q-102 -74 -234 -60l-28 16l-232 -60q-320 60 -610 162l-16 44l234 14l100 -14l60 28l14 484l-88 44l-144 -44q-118 72 -160 204 l14 44h-30z" />
<glyph unicode="&#x30a8;" d="M218 1466q220 44 440 59t454 15q336 30 556 -206l102 -162l-58 -74q-294 -30 -572 -74l-14 -250l30 -74l-16 -206l16 -44q-44 -74 -30 -178l14 -44l-14 -74q380 -14 716 -102l30 -148q-278 -102 -586 -118l-248 30q-240 8 -482 -14l-60 44l-72 58l-44 148l600 58l14 206 q0 340 -58 650l-58 14l-104 -14l-44 14l-58 -30q-146 134 -350 162zM1784 -22v-30h30l14 16z" />
<glyph unicode="&#x30a9;" d="M132 200l86 132q206 118 410 220l30 74l-176 16l-72 -16l-44 16l-60 -16l-28 16l-60 146l426 30l58 310h28q44 -148 88 -310q308 -14 572 -132l14 -60q-102 -74 -234 -58l-44 14l-102 -30l-190 30l-16 -58q6 -332 -14 -664l14 -44l-28 -58l-60 -16l-58 30l-28 382l14 46 l-14 44h-88q-176 -148 -410 -162z" />
<glyph unicode="&#x30aa;" d="M176 1246l42 14l88 -14q234 0 454 36t454 36q14 178 28 354h30q146 -132 132 -338q336 14 570 -206l16 -60q-278 -118 -572 -162l-28 -102l14 -90l-14 -58l14 -88l-14 -60q4 -176 14 -354q14 -264 -102 -456q-74 30 -88 104l-44 88l14 58l-14 44l14 44l-14 90l14 44 l-14 44q0 154 14 310l-58 14l-380 -368l-30 -44q-176 -252 -454 -252l-28 60q176 206 350 428l190 264l162 192h30v30q-176 28 -352 58l-88 -44l-102 74v30l-206 118z" />
<glyph unicode="&#x30ab;" d="M190 1028q334 30 652 102l176 454l42 14l74 -58l58 -204q-58 -88 -44 -206q304 44 494 -190q44 -102 28 -234q-58 -350 -260 -628l-74 -30v-30h-144l-74 104q190 306 218 686h-58q-116 0 -188 -72q-58 -206 -167 -388t-211 -374l-58 -86l-102 -88h-44l-86 58v44 q58 264 144 526h30q14 146 58 264l-58 28l-232 -42q-174 130 -174 350z" />
<glyph unicode="&#x30ac;" d="M292 1058q248 58 512 88q44 174 118 336h28q102 -132 88 -322l176 -14l58 14q146 -14 264 -118q102 -146 88 -350q-44 -250 -161 -462t-235 -430l-72 -30l-132 58l-16 74l88 58q104 220 191 432t87 476l-44 58h-262l-132 -118q-44 -248 -132 -482t-264 -438l-116 -30 q-88 14 -74 102q88 206 169 410t153 424l-58 30l-88 -44l-190 146zM1492 1598l190 -174q72 -88 58 -220l-72 -14l-44 58l-88 58q-58 132 -44 292zM1754 1570l30 116l14 -44l44 -28q118 -118 148 -278l-30 -88h-58q-148 132 -148 322z" />
<glyph unicode="&#x30ad;" d="M278 414l526 102l14 190l-28 206l-88 14l-190 -44l-44 30v28l-44 14l-58 162l424 102q-16 190 44 352h58l58 -162l-14 -116l14 -30h206l86 14l44 -14l148 14q130 0 218 -86l44 -104q-234 -102 -512 -132l-44 16l-116 -44l-16 -308l30 -72l44 -16l352 16l58 -16l88 16 l102 -74l30 -88q-322 -58 -630 -146l-14 -132l28 -160l-28 -102h-44q-118 146 -162 336l-174 14l-104 -44q-28 -58 -102 -44l-146 102zM1082 428l44 14l14 16l-58 14v-44z" />
<glyph unicode="&#x30ae;" d="M204 326l586 102l14 132l-14 44l14 58l-14 44l-234 14l-74 -28q-160 176 -176 394q236 -40 468 44q-14 250 74 454h30q130 -176 102 -424q322 14 584 -74l74 -116h30l14 -88q-118 -14 -204 -74l-88 16q-206 0 -366 -88l-16 -44l44 -264q308 0 600 -44l74 16l72 -118 l-160 -58l-44 14q-234 -44 -482 -72l-16 -44l30 -264l-30 -44l-116 74l-118 248l-58 14l-160 -58l-44 14l-176 -28l-146 88zM790 808h28v30h-28v-30zM1374 1380v234h30q146 -132 146 -338l-44 -14zM1418 312l16 -16l14 16h-30zM1652 1614l16 44h28l30 -16q132 -132 132 -306 l-74 -74l-102 118z" />
<glyph unicode="&#x30af;" d="M322 764q102 220 292 396l88 72q44 118 132 206l44 14q88 -58 204 -58q206 6 410 14l44 -14l44 14q146 -28 248 -132l44 -116q-146 -220 -264 -454q-204 -220 -416 -454t-462 -424l-86 -14l-60 30v58l176 264l44 14q74 146 204 278q132 146 286 307t270 321l16 104 l-190 28l-74 -28l-58 14v-30h-30l-72 16l-308 -74q-74 -220 -248 -410l-88 -88l-132 -44q-58 88 -58 190z" />
<glyph unicode="&#x30b0;" d="M262 758l132 296l44 14q58 192 206 340h28l44 102h30l72 -162q338 -74 630 -220l72 -74l16 -162q-206 -236 -424 -502l-16 -44h-28l-74 -146l-44 -16l-28 -74h-30l-14 -44l-88 -58l-30 -60l-336 -162l-14 44l278 340h28l234 338l44 30q162 236 278 500l-468 104 q-116 -236 -264 -442l-146 -162h-102zM1170 670h30l-16 16zM1506 1510l14 74l30 -44l58 -30q104 -132 132 -294l-44 -60h-44l-14 16l-30 -16q-160 134 -102 354zM1814 1496l28 162h30q102 -132 146 -296l-28 -58l-88 -14q-88 88 -88 206z" />
<glyph unicode="&#x30b1;" d="M262 590v190q44 204 88 409t162 381h44q88 -190 116 -396q222 -18 440 -14l160 14q336 -28 644 -116l58 -104q-222 8 -438 16l-44 14v-30h-30q0 -320 -139 -591t-343 -505l-102 -44l-88 88l-44 248q58 176 153 337t197 307l44 14l16 74h28l30 88l-44 14l-74 -14l-44 14 l-394 -30q-44 -306 -146 -584h-74l-88 44l-44 146l-14 30h-30zM482 1466h30l-16 16zM1434 954h28v30h-28v-30z" />
<glyph unicode="&#x30b2;" d="M322 750q14 204 80 387t154 359l44 14q102 -72 72 -204l-28 -190q262 0 518 -15t490 -73v-30h30q88 -72 102 -190l-190 -14l-220 14q16 -336 -167 -585t-345 -511l-116 -16l-44 88l14 44l-14 74q58 234 139 461t183 445q-176 44 -380 30l-88 -74l-88 -408h-58 q-104 174 -88 394zM1330 1364l60 234h44q130 -190 130 -424l-102 -14l-88 88v58h-28zM1682 1364q0 132 72 234h30l58 -28l44 -294l-28 -72l-88 -30q-88 74 -88 190z" />
<glyph unicode="&#x30b3;" d="M424 322q444 -4 878 0q44 348 88 698q-148 58 -338 44l-102 -16l-262 16l-44 -16q-132 88 -220 248v58h30l116 -30q336 58 702 44q292 14 482 -204l30 -130q-44 -246 -102 -479t-132 -465l-292 -58l-44 14l-74 -14l-292 28l-234 -28l-88 44q-72 116 -102 246z" />
<glyph unicode="&#x30b4;" d="M232 1350h102q276 -44 567 -29t493 -191q102 -190 102 -410l-72 -408l14 -44l-28 -102l116 -60v-58q-174 -146 -414 -146t-444 -74l-276 146l-28 104q188 58 384 65t386 65q52 292 14 586l-44 190q-362 14 -682 88l-160 146zM1496 1526l14 28h44l14 -44l44 -14 q116 -160 116 -380l-100 -30l-118 146zM1744 1438l14 58l-14 44l42 88l-14 44q146 -88 218 -234v-44q-14 -102 -102 -162q-116 60 -144 206z" />
<glyph unicode="&#x30b5;" d="M278 954l278 74q88 264 174 512h30l132 -116l74 -352h248l58 30l146 424h30v44l132 -118q72 -132 88 -278l-60 -102l264 -44l14 -88q-116 -72 -278 -88q-58 -262 -131 -533t-249 -491l-88 -44q-44 338 -44 702l60 294l-88 14l-132 -44l-88 -498l-102 -14 q-132 88 -206 234l-28 278l-190 102z" />
<glyph unicode="&#x30b6;" d="M-28 852q14 146 86 250l306 -16l188 30q44 248 116 468h44q72 -58 58 -160l-28 -308l86 -30l248 30q72 278 218 526l28 -14q160 -204 130 -482l-14 -60q174 -58 348 -146l44 -116l-44 -104q-202 -58 -420 -86q-58 -234 -87 -476t-145 -446l-44 58l-58 58 q-132 162 -88 396l44 380l-276 14l-58 -102l14 -44l-28 -190h-30q-86 146 -116 322l-58 14l-146 -44l-58 44v30l-130 44zM1656 1482l30 88l42 14q74 -132 102 -292l-72 -60l-72 74zM1860 1394v190l72 58q116 -116 102 -278l-30 -44h-58z" />
<glyph unicode="&#x30b7;" d="M208 1470q58 72 162 58q162 -102 361 -138t345 -168l30 -130l-310 -44l-44 16l-44 -16q-206 58 -398 132zM252 802l44 14q294 -86 604 -130l30 -116q-296 -58 -576 -146q-118 160 -102 378zM310 -56q222 88 412 234l16 42l264 190l206 174h30v28q236 176 502 248 q44 44 132 58l88 28v-42l-74 -146q-176 -102 -308 -290h-44l-134 -174l-206 -190q-176 -116 -360 -225t-376 -181q-118 102 -148 246zM354 1194h30l-30 28v-28z" />
<glyph unicode="&#x30b8;" d="M116 706v30l352 28q292 0 526 -130l30 -148l-16 -28q-160 -102 -380 -74q-218 102 -424 264l-44 58h-44zM176 -54q102 58 248 44v28q306 104 606 235t638 161v-58l-176 -190l-146 -74v-30q-206 -102 -418 -190t-432 -146l-14 -30h-44l-220 220zM218 1438h30v-30 q190 -58 388 -109t372 -169l16 -44l-16 -72q-102 14 -160 -60q-248 60 -468 220v44l-146 88zM1360 1232l30 206l-30 44h30q88 0 146 -74q88 -218 116 -454l-28 -58l-104 -44l-116 118zM1754 1466h30q58 -28 58 -102q60 -116 60 -262l-60 -60q-102 190 -88 424z" />
<glyph unicode="&#x30b9;" d="M348 -112q176 320 393 613t451 585l42 16l16 102q-322 -16 -640 0l-44 -14v28l-116 74l-28 72q188 16 370 52t384 50l58 -14l132 74q218 -44 378 -206l14 -160q-58 -176 -174 -329t-204 -315q102 -160 211 -321t167 -351l-160 -74l-72 58v30l-44 30q-174 204 -218 468 h-58l-72 -118l-116 -58v-30l-132 -116q-232 -162 -508 -220zM930 180l58 14l-58 14v-28z" />
<glyph unicode="&#x30ba;" d="M176 1310l102 -14q190 58 387 72t403 30q190 -16 322 -146l44 -102q-74 -348 -206 -682l162 -218l278 -290l14 -74q-44 -72 -132 -58q-204 190 -366 422l-44 102h-44q-150 -262 -408 -436l-60 -14v-30l-204 -72q-74 44 -44 130q190 290 366 574t322 588h-264l-482 -72 l-74 28q-44 132 -72 262zM1258 1208h44v44h-30zM1564 1498h30q102 -144 102 -334l-72 -58q-88 174 -60 392zM1784 1354l14 188l118 -72l14 -262l-58 -72l-58 44z" />
<glyph unicode="&#x30bb;" d="M278 882l468 160q72 278 176 556h44q86 -72 86 -174l-58 -294h74q248 88 496 132l278 -176l16 -44q-118 -336 -338 -614q-130 -102 -306 -102l-30 88q176 248 234 540h-28l-440 -130q-88 -278 -88 -600l88 -132l644 -118v-44q-204 -102 -454 -102q-190 0 -336 118 q-220 234 -176 584l30 190l-58 30l-250 -44z" />
<glyph unicode="&#x30bc;" d="M204 574q234 206 484 366q28 308 86 586l-14 58h30l102 -74l44 -190l-14 -248l58 -30l438 118l220 -58l44 -234q-88 -220 -220 -426l-132 -116h-44l-72 116l116 454h-58l-306 -190l-44 -570l72 -88l234 -30l58 16l74 -16l58 16l44 -16l308 60l-44 -30l-30 -88 q-248 -102 -512 -160q-234 0 -410 146l-58 102l-44 14q-58 176 -44 380l16 104l-88 14q-88 -74 -206 -88zM1404 1658h44q146 -16 264 -118l86 -264q-28 -58 -102 -44l-116 74q-74 176 -176 352zM1842 1716l162 -58q58 -132 58 -294l-58 -28l-58 28q-104 162 -104 352z" />
<glyph unicode="&#x30bd;" d="M366 1320h44l102 -72v-30l44 -28l116 -118v-30h30q132 -146 116 -364l-116 -44l-146 72q-176 278 -190 614zM614 -26q146 322 351 622t409 608l44 14l206 292h28l176 -116l14 -146q-102 -132 -160 -278l-44 -16q-44 -146 -176 -262l-146 -146q-160 -308 -394 -586 l-44 -14l-16 -44q-72 -58 -174 -74q-74 60 -74 146z" />
<glyph unicode="&#x30be;" d="M276 1276h30l218 -146q174 -248 218 -540l-30 -60l-146 -28l-116 88q-174 306 -174 686zM610 -40l102 264h30q100 248 282 460t356 432l58 14q58 -102 44 -234q-116 -262 -348 -482l-176 -190l-14 -44h-28q-88 -146 -160 -308l-102 -28zM1540 1424v28l14 74h44 q130 -176 174 -380l-44 -16l-130 88l-30 206h-28zM1860 1554l14 74l88 -58v-60l42 -14q74 -102 58 -248l-28 -16l-88 44q-86 118 -86 278z" />
<glyph unicode="&#x30bf;" d="M366 552q88 252 197 495t285 449l44 14l44 44l102 -132q336 30 600 -104q132 -118 88 -294q-44 -236 -190 -435t-278 -389h-30l-204 -296q-132 -118 -308 -146l-28 58q174 176 262 398l44 14l58 148q-190 162 -248 382l-44 16l-58 -118l-146 -88l-44 -104l-132 -74z M804 1378h44v30l-44 14v-44zM892 950l308 -354l14 16q234 250 306 560q-230 28 -468 28l-72 -28z" />
<glyph unicode="&#x30c0;" d="M176 692q42 278 218 498l60 42l42 104l278 306h44l104 -190q394 58 642 -220q74 -102 74 -248q-30 -160 -132 -278l-88 -44l-116 -146l-44 -14q-162 -234 -322 -468l-58 -44v-60l-278 -248h-74l-44 102q220 294 380 616q-132 204 -218 424l-60 14l-88 -160l-42 -16 l-118 -204l-44 -16q-116 104 -116 250zM292 516h44v44h-44v-44zM716 940l162 -248h28l102 -88l104 160h28q118 190 206 396l-294 30l-130 -44l-118 44l-14 -88h-30zM1594 1570l176 -146h44q0 160 72 248q146 -132 132 -336h-72q-88 14 -162 58v-30l14 -88l-86 -28l-74 58 q-58 118 -44 264z" />
<glyph unicode="&#x30c1;" d="M424 774h58l74 -16l44 16l174 -16l220 30l132 472h-146l-308 -60l-58 46l-14 132q190 74 366 162q190 74 424 58l204 -88l88 -148l-322 -72l-14 -60l14 -88l-102 -354q262 -14 512 -74l28 -118l-116 -28l-44 14l-118 -30l-190 16l-130 -44q-44 -340 -176 -634l-74 -74 l-88 -14l-28 88q28 310 88 618h-148l-174 -44l-44 14q-102 134 -132 296z" />
<glyph unicode="&#x30c2;" d="M190 648q190 14 380 29t366 59q102 176 102 394l-204 44q-104 -28 -190 -58l-104 88l-44 220q264 58 556 42q278 -14 512 -146l88 -146l-14 -28l-468 -60l-30 -366q352 0 630 -146l28 -116q-174 -58 -379 -66t-395 -52q-88 -278 -220 -540l-88 -44l-28 58q42 292 116 556 l-88 14l-234 -58h-28q-118 44 -206 116l-14 44l14 44l-44 30zM1652 1570h30l132 -118l44 -190l-60 -30l-28 60l-74 44zM1872 1628h58q88 -102 88 -248l-14 -16l-118 60z" />
<glyph unicode="&#x30c3;" d="M248 984q0 102 74 132q58 -44 58 -118q146 -204 176 -468l-74 -44l-190 206zM672 954l30 176h28l44 -28q132 -220 118 -512l-88 -16q-146 162 -132 380zM746 -10q88 306 350 556l60 14l14 58h30l86 132l294 176v28l88 44l28 -320l-176 -118l-28 -44l-176 -176h-30 q-72 -146 -204 -278t-292 -174z" />
<glyph unicode="&#x30c4;" d="M306 1010l100 220l44 16q174 -310 204 -694l-116 -28l-132 118l-28 72q-72 134 -72 296zM770 -22q58 280 248 500l58 46l28 102q-116 -14 -188 74q-116 220 -116 500l72 222h28q118 -162 168 -354t66 -398h28l58 74l262 266h28l16 44l58 14l44 88l334 222 q42 -206 28 -428l-58 -132h-28l-74 -162h-28q-88 -148 -204 -266l-44 -14q-102 -176 -260 -324l-44 -16l-30 -58l-144 -148h-44v-28l-88 -16l-28 44l-132 60zM944 1156h30l14 16l-44 14v-30zM1656 596h30l-16 16z" />
<glyph unicode="&#x30c5;" d="M132 1112q0 118 86 162q60 -74 74 -190q162 -208 220 -442l-58 -30v-30l-30 -14l-206 176q-86 162 -86 368zM482 1290l74 206l44 14q102 -176 204 -360t102 -406l-88 -58l-102 58q-204 236 -234 546zM570 22l58 74h44l30 58l292 236v30l220 148v28q234 178 454 398 l14 104h30l42 -148q-28 -206 -145 -390t-263 -346q-176 -104 -337 -229t-381 -125zM1302 1496l58 132l44 14q102 -162 102 -368l-72 -14l-104 58zM1668 1702l28 44h30q132 -162 116 -384l-14 -28h-30q-160 146 -130 368z" />
<glyph unicode="&#x30c6;" d="M320 692l14 58h30l130 -44q644 110 1278 -28l30 -132q-234 -118 -494 -132q-88 -292 -290 -542l-74 44v146l146 308q-72 44 -160 30q-218 -16 -422 -60l-102 88q-100 102 -86 264zM406 1408l30 74h58l44 -16q232 74 494 60q304 -44 596 -146l28 -104q-146 -102 -334 -102 l-102 16l-44 -16l-130 16q-232 0 -422 -74l-116 44q-86 102 -102 248zM842 1204l16 14l-16 14v-28z" />
<glyph unicode="&#x30c7;" d="M176 750h28l30 -44q658 -14 1316 -14q132 -14 234 -88l44 -102q-322 -162 -702 -176q-44 -264 -220 -454l-116 -44l-30 16v58q102 220 176 438q-58 44 -146 30q-250 14 -440 -102l-102 72q-72 190 -72 410zM248 1466q234 60 498 44q190 -28 387 -57t345 -177l14 -86 q-220 -74 -440 -132q-174 58 -380 58l-176 -44l-160 74q-74 146 -88 320zM1594 1380l44 174h44q88 -174 102 -364l-72 -74q-118 102 -118 264zM1842 1614l60 14q102 -132 116 -308l-58 -72q-132 160 -118 366z" />
<glyph unicode="&#x30c8;" d="M262 912q-14 364 60 702l132 -132l28 -58q118 -264 132 -572q264 -58 534 -73t504 -101l16 -88l-176 -148l-88 -14q-176 30 -351 74t-365 72l-60 -44v-72q30 -220 44 -454q-28 -132 -102 -234l-176 190q-58 234 -87 468t-45 484z" />
<glyph unicode="&#x30c9;" d="M190 852l28 206l74 468q176 -162 212 -381t96 -425q234 -72 475 -123t475 -139v-30l146 -28l16 -60q-162 -44 -338 -44q-204 44 -402 103t-388 147l-14 -190l14 -264q-44 -132 -116 -204l-88 58q-118 204 -161 431t-29 475zM980 1336l14 28h30l28 -72h30 q88 -162 102 -338l-72 -28q-162 160 -132 410zM1374 1306l30 88h30q116 -176 130 -410l-58 -44q-160 146 -132 366z" />
<glyph unicode="&#x30ca;" d="M102 1146l308 44h658q72 204 160 394h30l72 -146q-58 -118 -58 -248q366 14 644 -162l30 -116q-148 -118 -338 -140t-366 -66q-58 -366 -306 -658l-146 -146l-74 -14v-30l-88 -44l-58 30v28q146 190 256 402t168 432l-190 14q-190 0 -366 -42l-102 58l-58 -16l-60 30 q-102 176 -116 396z" />
<glyph unicode="&#x30cb;" d="M278 224l452 44h674q220 -44 410 -146v-44l-44 -16q-16 -58 -88 -44q-176 -88 -380 -88h-776l-102 -28l-118 132zM380 1102v204q454 36 906 44q162 -30 294 -132l72 -204q-306 -146 -672 -132l-162 30l-248 -60l-44 16l-30 -16q-86 118 -86 250h-30z" />
<glyph unicode="&#x30cc;" d="M278 1466h44q218 -28 445 -28t433 -44l160 14q160 -58 278 -204l58 -176q-88 -190 -190 -380l-88 -88l-72 -146l380 -248v-30h28l118 -190l-44 -118l-190 -88q-102 16 -176 118l-146 190l-132 74l-28 44l-118 28l-350 -248l-30 -58l-74 -30v-30l-218 -88l-30 16l-44 102 l132 72l14 44l132 88l88 146h30q72 104 102 220q-74 118 -74 278h30l248 -116l132 160l74 58l58 146q-162 60 -336 60l-104 -16l-58 16l-204 -44l-190 132q-74 174 -88 364z" />
<glyph unicode="&#x30cd;" d="M410 1262h28q234 -58 484 -72l14 42l-102 88l-30 234l44 234h30q218 -262 248 -598l322 -44l132 -220q-88 -220 -264 -410l454 -278l28 -102l-14 -44l-160 -14l-352 204q14 -234 -116 -394l-30 14l-44 220l44 262h-30q-278 -204 -614 -278l-44 88q132 58 250 146l14 30 l454 438v60l-396 14l-204 -30q-132 176 -146 410z" />
<glyph unicode="&#x30ce;" d="M278 52h28q118 192 250 383t262 369l44 14l60 102l262 252h30v28l220 162v30l174 162l16 44h44q130 -132 130 -308l-160 -280l-44 -16l-14 -44q-450 -356 -850 -766l-14 -44h-28l-74 -104l-278 -102z" />
<glyph unicode="&#x30cf;" d="M204 326q86 322 232 614h30l58 176h28v-30l44 -14q102 -88 102 -204q-88 -206 -153 -411t-139 -409l-100 -14q-88 132 -102 292zM1278 1364l58 88q222 -220 350 -512h28q116 -262 190 -540q-16 -118 -88 -220l-88 -58l-160 130q-116 264 -188 542t-102 570z" />
<glyph unicode="&#x30d0;" d="M146 316q30 192 139 362t183 346h28l132 -162q-58 -236 -131 -464t-147 -450h-72q-162 148 -132 368zM1082 980l30 104h28l234 -266q146 -222 322 -442h30v-30h28q132 -146 148 -354l-132 -44q-132 44 -234 148q-162 206 -301 412t-153 472zM1360 1348l44 192h30l28 -60 l58 -28q88 -148 74 -324q-30 -90 -102 -104q-118 132 -132 324zM1754 1452l30 162h44l58 -44q118 -134 74 -324l-58 -148l-30 -14q-146 146 -118 368z" />
<glyph unicode="&#x30d1;" d="M176 272q42 222 145 413t235 369h28l74 -60q58 -102 44 -250q-102 -206 -175 -427t-161 -443l-60 -14q-160 162 -130 412zM1140 936l60 264h28l74 -58l14 -44q146 -206 322 -428q220 -294 278 -648q-58 -74 -162 -74q-262 148 -424 428q-130 266 -190 560zM1390 1362 q14 134 116 236l206 74q116 -14 204 -132q88 -148 58 -354l-44 -14v-88l-72 -74l-162 -44q-116 58 -218 132q-74 118 -88 264zM1536 1318l88 -162l72 -14l44 30l30 118q0 118 -58 206l-104 30q-88 -90 -72 -208z" />
<glyph unicode="&#x30d2;" d="M178 560q30 234 66 461t80 445l-44 88l44 16l192 -176q0 -250 -28 -498h44q176 102 353 198t383 124l310 -102v-44l-104 -58l-14 -44l-74 -74v-28l-118 -74l-14 -44q-296 -132 -590 -264l-132 16q-44 -60 -30 -132l58 -118q134 -58 280 -72q324 72 694 72q162 0 250 -58 l-88 -28v-30q-178 -132 -377 -220t-449 -58q-354 72 -618 336q-90 162 -74 366z" />
<glyph unicode="&#x30d3;" d="M160 552l16 104l-16 74q0 206 29 397t73 383l-58 44h30l176 -88q86 -58 86 -162l-28 -338l72 -30q206 88 418 154t432 126l28 398l88 -60q30 -192 102 -354l74 -58v-74l-58 -58h-60l-102 -162q-292 -148 -600 -236l-44 -60h-58l-190 60q-58 -44 -44 -134 q30 -190 190 -338q118 -74 278 -74l454 16l204 -30l74 30v-30q-30 -118 -132 -148q-278 -206 -658 -162q-308 16 -512 250q-234 236 -264 560zM1726 1480l44 134h28l88 -162l-28 -104l14 -118l-44 -58q-102 132 -102 308z" />
<glyph unicode="&#x30d4;" d="M116 516q30 220 59 439t103 425l-30 72l30 14l88 -58q146 -116 146 -292l-16 -74l30 -116l44 -14q278 146 614 174l102 -14l30 74q-74 72 -44 174q44 132 146 234q118 118 308 104l88 -44l28 -88l60 -44l72 -410l-44 -102h-28l-44 -88q-132 -102 -278 -146 q-176 72 -338 190l-102 -88q-292 -176 -614 -292l-14 -74q14 -176 132 -292q306 -88 658 -102l88 14l234 -30l204 74v-58l-88 -104h-44v-28q-160 -132 -365 -147t-395 -59q-248 -14 -440 132v30h-28v28l-234 192q-118 174 -118 394zM1434 954q14 -58 86 -42l148 72 q58 118 44 278l-44 146l-104 44q-174 -204 -130 -498z" />
<glyph unicode="&#x30d5;" d="M262 1262h30q146 -72 322 -44l570 88q294 44 468 -220l30 -132q-58 -130 -146 -248q-220 -146 -396 -366l-14 -44h-58q0 -116 -102 -190l-60 -14q-46 -112 -132 -190q-116 -102 -278 -118l-42 30v58q116 220 270 432t284 432l192 248v44l-192 14l-174 -14q-278 0 -528 88 zM306 1190l16 -16l14 16h-30zM1112 780l14 -16l14 16l16 14l-44 14v-28z" />
<glyph unicode="&#x30d6;" d="M190 1348q602 20 1204 60l132 -74l14 -44l72 -44q58 -74 58 -178q-14 -206 -160 -354l-304 -382l-116 -132l-44 -16l-28 -88l-320 -294l-190 -90l-28 104q160 310 356 604t340 618l-116 30l-624 -74l-146 60q-72 146 -100 294zM1438 258l30 162h28q88 -192 88 -412 q-44 -60 -102 -60q-58 134 -44 310zM1728 288l44 132h30q86 -74 58 -206l-16 -44l16 -162l-88 -44q-72 146 -44 324z" />
<glyph unicode="&#x30d7;" d="M190 1320h28q88 -44 204 -28q386 52 770 72q174 -44 318 -132q0 176 74 322q116 132 290 104l160 -148l28 -262l-86 -234q-116 -60 -248 -60l-116 30q-44 -204 -167 -373t-225 -359l-130 -146v-44h-30v-28h-28l-14 -60h-30v-28l-422 -250l-72 44l-28 74q130 292 290 570 t262 586l-74 28l-262 -28l-42 14l-174 -30l-160 60q-74 146 -116 306zM1670 1204l44 -58h102l88 44q86 102 58 248l-74 102h-72q-146 -132 -146 -336z" />
<glyph unicode="&#x30d8;" d="M58 486q88 206 190 411t264 379l204 44q176 -44 308 -174l146 -176q116 -176 248 -352t146 -394l-28 -74l14 -44h-30q-160 162 -278 366q-160 278 -364 526l-88 44l-88 -102h-30l-102 -234h-30q-58 -220 -160 -410l-132 -28l-88 44z" />
<glyph unicode="&#x30d9;" d="M44 180q44 220 131 417t247 373h28l74 116q86 74 188 74q160 -74 312 -191t298 -249q188 -190 341 -409t313 -423v-60l-88 -44q-160 16 -260 146l-16 44h-28q-190 250 -393 484t-449 424l-102 -58q-248 -278 -320 -644l-262 -44zM1220 1424q190 -132 290 -322l30 -162 l-88 -44q-188 234 -232 528zM1628 1510h28l88 -86l14 -60h28q74 -174 88 -366l-44 -14q-188 234 -202 526z" />
<glyph unicode="&#x30da;" d="M132 380q146 174 212 385t212 385q102 102 248 88q190 -44 336 -190l338 -450l42 -28l44 -74l44 -14q146 -160 256 -341t110 -415h-58l-220 146v30h-28l-206 290l-44 14l-350 610l-44 30q-102 116 -234 130l-60 -30l-72 -216l-132 -146q-72 -160 -176 -306l-102 -28z M1360 1310l74 188l44 16l14 42q116 74 262 60l118 -60q102 -158 74 -362l-44 -174h-30l-44 -102q-102 -72 -220 -72l-88 58v28l-72 44q-118 146 -88 334zM1448 1078l146 -88l58 30q102 102 102 246l-42 146l-162 28q-116 -144 -102 -362zM1550 438h30l-16 16z" />
<glyph unicode="&#x30db;" d="M248 208q44 278 248 484h30q74 -74 74 -190l-16 -190l16 -44l-104 -352l-86 -44l-74 102l-74 74zM292 1116l14 44h60l44 -14l556 116q42 132 28 278l-28 58h42l118 -58l14 -88l-28 -132q44 -72 116 -58l146 14l484 -116l14 -58q-160 -74 -343 -140t-359 -110 q-88 -322 -88 -686l14 -104q16 -174 -102 -292q-190 220 -132 556l60 468q-308 0 -542 160zM1448 604l30 102h28q118 -146 220 -307t116 -351l-44 -74q-130 16 -204 104q-176 218 -146 526z" />
<glyph unicode="&#x30dc;" d="M204 194q58 206 190 380h44q74 -88 74 -190q-146 -218 -176 -482l-88 72q-58 88 -44 220zM306 1042q338 44 644 176l44 396h30q102 -118 88 -278l-16 -60q88 -72 220 -44l132 16l72 -16v44l-42 278h28q102 -146 118 -322q146 -28 262 -130l30 -118q-204 -132 -438 -160 v-30q-176 0 -322 -74l-30 -292l14 -102q-28 -308 -132 -570l-72 -16q-176 220 -132 512l58 556h-174l-132 -14l-162 132v28l-44 16zM1374 530l16 30l72 -88h30q204 -190 262 -454q-42 -58 -116 -44l-88 30q-204 220 -176 526zM1754 1364v220h44q118 -132 104 -322l-30 -30z " />
<glyph unicode="&#x30dd;" d="M190 194q72 162 176 322h28l44 -30l44 -130q-102 -234 -146 -498l-118 116zM204 1042l74 -14l526 132l132 498h30q102 -220 102 -484l292 -14l44 14l132 -28v28l-88 234q0 132 88 220q102 74 248 44l74 -74q88 -174 116 -380l-102 -176l-146 -44l-14 -58 q-278 -146 -616 -160q-58 -264 -73 -549t-161 -505l-44 30q-116 218 -116 482t-30 512l-44 14l-44 -14l-116 44l-44 -14l-206 174zM1404 546h30l116 -88q118 -206 176 -440l-102 -28l-44 14l-102 118q-88 190 -74 424zM1550 1306l58 -146h88q74 72 44 190l-72 132l-44 14 l-74 -58v-132z" />
<glyph unicode="&#x30de;" d="M132 1336l44 14l102 -30q278 60 578 60t562 86q220 -14 366 -218q58 -74 58 -162q-102 -174 -218 -350l-308 -278h-30l-14 -44h-30l-42 -102l234 -234l44 -118l-44 -58l-162 -74q-132 60 -264 146l-320 382q-104 130 -118 306h30q160 -116 350 -176q102 294 278 556 q-88 44 -190 30q-320 24 -644 0q-116 0 -204 58z" />
<glyph unicode="&#x30df;" d="M410 180q248 -30 460 -110t416 -182l30 -88l-102 -104l-234 -28q-220 58 -410 204l-102 176h-30zM468 1658h28q132 -74 294 -74q350 -74 658 -248l72 -74l74 -264l-74 -14l-116 14l-44 -28l-176 28v30q-278 58 -512 176l-146 190zM496 926q234 -74 469 -118t425 -174 l88 -176l-30 -88l-366 -44l-352 176q-86 146 -218 248zM1214 678l14 -16l14 16l16 14l-44 14v-28z" />
<glyph unicode="&#x30e0;" d="M262 370l362 672l44 16q160 262 248 556h28l248 -206l28 -116l-14 -44l28 -58q-100 -60 -174 -176l-58 -118l-44 -14l-158 -264h-30q-102 -176 -160 -366l116 -14q320 74 668 102l16 424l-30 88l160 -88q102 -190 167 -394t109 -424l-88 -74l-188 118l-58 102l-58 14 q-160 -102 -356 -139t-386 -65q-144 14 -276 88q-130 160 -144 380z" />
<glyph unicode="&#x30e1;" d="M248 78q102 174 234 313t278 271v44l-72 58l-250 206q-102 204 -146 438h30l160 -58l14 -58l104 -74q204 -160 438 -292l102 116h30l30 60l350 350v44h44l102 -88v-58q-90 -228 -262 -396q-104 -116 -132 -262l176 -146l190 -190l28 -104l-44 -14l-14 -72l-118 -30 q-234 132 -468 278l-394 -352q-146 -88 -322 -116l-58 28z" />
<glyph unicode="&#x30e2;" d="M218 838h58q190 -58 392 -44l74 14l42 -14q102 176 132 366q-234 44 -436 132l-74 116q594 96 1162 -28l102 -162q-188 -116 -392 -176l-130 44q-88 -116 -58 -278l262 -14l42 14l248 -88q72 -72 86 -160l-100 -118q-276 -58 -582 -58l-14 -88q0 -116 72 -190l290 -88 l450 30v-58l-116 -88l-42 -74q-146 -72 -334 -58q-176 44 -334 132l-234 278l-86 190l-44 14l-88 -14l-188 116z" />
<glyph unicode="&#x30e3;" d="M248 706v58q248 60 482 132l30 410q132 -146 118 -352l102 -14l350 44l190 -72l16 -44l72 -30l44 -118l-72 -42v-30q44 -30 28 -102q-116 -220 -336 -322l-102 -16l-88 44l-14 60l72 44q146 116 146 278h-218l-146 -60l-30 -234l14 -306l-44 -118l-44 -14q0 -74 -58 -74 q-160 206 -116 498l44 204l-88 30l-74 -58z" />
<glyph unicode="&#x30e4;" d="M234 852v74l424 190l14 44l-14 44l14 278l-58 88h44l146 -74q44 -146 44 -306h74q174 72 372 109t388 65l234 -174l44 -176q-58 -294 -264 -528l-58 -28l-74 -132q-160 -102 -350 -146l-44 14l-44 146q220 264 394 556h-116q-264 -44 -498 -160l-14 -454q58 -190 58 -394 q-44 -74 -72 -132l-104 116q-72 190 -79 402t-37 418l-102 14l-118 -44z" />
<glyph unicode="&#x30e5;" d="M234 -26q324 -40 644 30l58 454q-102 58 -234 58l-234 -88q-146 146 -190 336l218 -14l176 30l44 -16l44 16q234 28 396 -146q44 -118 28 -264l-88 -352q74 -44 176 -28l248 14l118 -74l-14 -42q-264 -176 -616 -132l-248 28q-204 -14 -380 -72q-102 116 -146 262z" />
<glyph unicode="&#x30e6;" d="M248 200q402 -50 804 44q44 206 96 412t52 428q-118 28 -250 44q-220 0 -410 -60l-58 44l-146 250q220 16 446 31t418 87q146 -28 262 -132q176 -192 132 -472q-58 -308 -132 -618l118 -30l58 16q234 -16 424 -134v-44l-132 -118q-262 -132 -600 -88h-44q-366 52 -730 14 l-162 90l-28 72l-74 30z" />
<glyph unicode="&#x30e7;" d="M324 516l370 44q188 2 382 -14l16 44q0 102 -74 160l-162 30q-178 0 -340 -44q-102 132 -146 306h72l30 -14q280 58 590 44q132 -30 220 -132q118 -262 74 -584q-30 -234 -132 -454l-222 -74l-44 16q-192 -30 -382 -88l-30 14v30l-44 14l-74 132l648 72v234 q-192 60 -426 44l-90 -44l-176 132z" />
<glyph unicode="&#x30e8;" d="M176 1380q234 28 460 101t476 89l190 -16l160 30l308 -248q116 -578 0 -1156q-58 -132 -102 -264l-88 -28l-16 42h-58q-176 -86 -394 -86l-60 14l-44 -14h-72q-336 -30 -586 146l-28 102l116 14l58 -14q206 30 425 44t439 0l118 -44l28 204l-58 264h-58l-132 -30 q-356 42 -718 30l-130 88l-44 102q174 30 357 59t389 15l336 -44v248l-44 88q-308 30 -622 52t-592 138z" />
<glyph unicode="&#x30e9;" d="M322 1408q190 74 351 198t379 96q294 0 512 -220l88 -190q-88 -44 -190 -88l-44 14q-58 -88 -146 -116l-72 -16q-250 30 -462 118t-416 204zM394 662q336 102 674 190l88 -14l146 14q262 30 452 -132l30 -72l58 -44v-146q-28 -146 -116 -278l-146 -102l-16 -44l-146 -74 l-58 -72q-146 -104 -336 -132l-74 88q132 130 271 255t271 257l44 116q-456 18 -908 -30l-218 162z" />
<glyph unicode="&#x30ea;" d="M204 1028l72 438l-44 176h74l246 -278l14 -102l-28 -220l14 -44q-14 -350 -102 -672l-44 -14l-174 130q-66 292 -28 586zM858 -26v220q100 336 231 651t205 651l-44 118l28 116l44 14q130 -58 188 -190q38 -270 0 -540l-28 -60l14 -72q-58 -220 -101 -447t-189 -417 l-102 -44l-72 -102l-74 -14z" />
<glyph unicode="&#x30eb;" d="M248 380q74 204 140 407t66 435l-44 88l58 14l132 -72l58 -146l-14 -318l14 -58q-14 -350 -146 -670h-30l-28 -58l-44 -14v-28l-74 72l-44 14q-58 146 -44 334zM966 148v116q14 290 65 566t81 568l-16 58h30l74 -44q160 -262 130 -596q6 -210 -14 -422l102 -14 q294 174 644 218v-28l-234 -320l-132 -72l-44 -88q-174 -204 -410 -218l-86 44z" />
<glyph unicode="&#x30ec;" d="M262 252q60 294 96 601t124 599l-44 88l58 14l74 -58v-30h58q60 -160 60 -350q-30 -190 -37 -380t-7 -396h28q294 206 623 330t679 182v-88q-190 -160 -380 -306l-380 -292l-58 -88q-264 -220 -600 -264l-132 116q-88 162 -162 322z" />
<glyph unicode="&#x30ed;" d="M222 830l30 392l-16 30h74l132 -44q222 58 458 65t472 7q234 -28 412 -188q132 -160 102 -378q-162 -290 -264 -610q-60 -72 -148 -72l-102 44l-354 -58l-134 14l-190 -88l-178 88q-132 102 -206 232q-102 262 -88 566zM458 888q58 -334 132 -652l60 -16l190 30l44 -14 q220 6 442 14l30 -14l16 14q132 320 190 654l-58 86l-88 30l-148 -14l-310 28q-236 -14 -426 -102l-74 14v-58z" />
<glyph unicode="&#x30ee;" d="M248 1034q474 -106 966 -44l176 -102l44 -158q-44 -262 -206 -466l-58 -14l-102 -160q-118 -146 -294 -160l322 740q-190 60 -394 60l-234 -30q-44 -72 -30 -174l16 -160l-30 -72h-30q-116 160 -109 356t-37 384z" />
<glyph unicode="&#x30ef;" d="M146 1262l44 220l-30 44h30q260 -60 566 -44q496 -2 988 14l202 -146l16 -88q-44 -190 -124 -366t-196 -336l-74 -74h-42l-44 -86l-116 -162q-218 -204 -466 -366l-116 -14l-28 58q72 278 290 505t378 475l58 44l130 308q-144 28 -304 58l-44 30l-44 -16l-362 16 l-480 -16v-58q116 -234 130 -512l-58 -190l-72 -14l-160 116q-102 264 -72 600zM1786 926l30 -30l14 16v58h-44v-44z" />
<glyph unicode="&#x30f0;" d="M292 312q234 -16 438 58l16 58l-16 14v600l-306 104l-58 86l964 44l16 278h28q74 -116 74 -278q190 16 322 -86v-44l-58 -74l-220 -30l-44 16l-30 -264l16 -58l-44 -308l44 -14l190 28l424 -42v-44q-220 -190 -512 -206l-118 16q-44 -132 -116 -264l-44 -14 q-58 116 -58 262l-118 16l-102 -16l-44 16q-278 14 -512 -60zM848 560l30 -176h116l190 30h44q74 278 74 584q-118 60 -250 60l-44 -16l-102 16q-88 -234 -58 -498z" />
<glyph unicode="&#x30f1;" d="M262 1398l264 -16l118 30l44 -14l672 14q278 28 454 -160l14 -44q-88 -276 -308 -494l-102 -44v-42l-72 -58l-74 -30v-28l-176 -88l-28 102l380 580l-264 30l-58 -14q-400 -28 -790 100zM424 178l14 42h30q146 -72 322 -42q-4 346 28 696h30l118 -144q18 -260 28 -524 q380 44 658 -116l30 -102q-176 -86 -380 -130h-30l-234 28l-44 -14q-248 14 -468 102q-102 86 -102 204z" />
<glyph unicode="&#x30f2;" d="M292 1364q220 30 439 81t469 37l146 -16l204 16q146 -30 264 -132q72 -58 72 -146q-72 -322 -306 -586l-102 -116h-30q-218 -344 -570 -556q-60 -102 -162 -146l-204 58v44l14 44q278 234 424 540q-132 -16 -262 0l-118 -28l-176 160l-14 102l672 30l104 -14 q190 160 248 366q-118 58 -264 58q-336 6 -672 14q-132 74 -176 190z" />
<glyph unicode="&#x30f3;" d="M262 1394h28l262 -132v-30q248 -58 450 -204l88 -190l-102 -88l-188 -30l-102 74v30l-74 28l-42 60h-74l-42 160l-118 88zM378 136q334 176 683 315t755 139l28 -16v-88q-304 -160 -609 -314t-639 -256l-58 30z" />
<glyph unicode="&#x30f4;" d="M234 926q44 58 28 146l-14 44l14 74h44l60 -30l14 -44h30v-30h130l278 16v44l-72 14q-146 306 -132 672h74l86 -58v-30h30l74 -116l88 -14l28 -132l-28 -250l14 -42l-30 -88q206 -30 418 -30t358 -160l58 -192q-30 -190 -160 -336q-118 -88 -250 -176l-58 -102 q-252 -196 -498 -394l-146 -74l-102 44l-14 58q58 190 182 351t270 309l308 306l14 88l-482 44l-336 -88l-16 -88l16 -116l-16 -44l16 -44l-30 -58h-58l-58 28q-162 206 -132 498zM306 984h44v44h-44v-44zM1448 1452l14 176h30l132 -146l44 -190l-30 -44l-44 -16l-74 44z M1814 1438v58q0 102 72 132q104 -146 88 -336l-28 -16z" />
<glyph unicode="&#x30f5;" d="M162 764q222 30 428 118l88 308l16 -30l44 -14l58 -192l-14 -72q236 0 398 -162q58 -116 44 -278q-30 -248 -132 -468q-60 -72 -162 -58q-60 88 -46 206l90 380l-44 102l-134 14q-88 -248 -220 -482l-60 -30l-74 -44l-28 104l74 320l-60 30l-118 -44l-88 74z" />
<glyph unicode="&#x30f6;" d="M248 442l88 338l-14 72l14 44h30l44 234h44l86 -190l-14 -58l74 -30l146 16q190 -30 380 -45t352 -117l14 -72q-176 -88 -366 -162q-58 -322 -292 -570l-88 -30l-30 102q88 294 176 572l-162 14l-72 -30l-44 -58h-44l-88 44l-102 -234l-58 -14z" />
<glyph unicode="&#x30f7;" />
<glyph unicode="&#x30f8;" />
<glyph unicode="&#x30f9;" />
<glyph unicode="&#x30fa;" />
<glyph unicode="&#x30fb;" d="M102 764l88 30q14 74 102 74q118 -30 204 -148l74 -116q-44 -102 -132 -146q-132 28 -234 146z" />
<glyph unicode="&#x30fc;" d="M262 706q250 132 572 118l190 -16l72 16q190 -30 395 -45t351 -117q-190 -44 -365 -139t-395 -95l-322 58l-44 -14l-44 14l-72 -14q-190 30 -322 162z" />
<glyph unicode="&#x30fd;" />
<glyph unicode="&#x30fe;" d="M236 1102h88q236 -264 479 -527t509 -513h-58q-340 44 -576 338l-324 394q-74 146 -118 308zM678 1262h88q164 -102 311 -226t309 -198v-44q-60 -74 -162 -58q-206 28 -354 204q-148 146 -192 322zM1150 1466l192 -42q192 -162 338 -352l16 -58l-16 -16q-192 16 -324 132 q-162 146 -206 336z" />
<glyph unicode="&#x3220;" />
<glyph unicode="&#x3221;" />
<glyph unicode="&#x3222;" />
<glyph unicode="&#x3223;" />
<glyph unicode="&#x3224;" />
<glyph unicode="&#x3225;" />
<glyph unicode="&#x3226;" />
<glyph unicode="&#x3227;" />
<glyph unicode="&#x3228;" />
<glyph unicode="&#x3229;" />
<glyph unicode="&#x322a;" />
<glyph unicode="&#x322b;" />
<glyph unicode="&#x322c;" />
<glyph unicode="&#x322d;" />
<glyph unicode="&#x322e;" />
<glyph unicode="&#x322f;" />
<glyph unicode="&#x3230;" />
<glyph unicode="&#x3231;" />
<glyph unicode="&#x3232;" />
<glyph unicode="&#x3233;" />
<glyph unicode="&#x3234;" />
<glyph unicode="&#x3235;" />
<glyph unicode="&#x3236;" />
<glyph unicode="&#x3237;" />
<glyph unicode="&#x3238;" />
<glyph unicode="&#x3239;" />
<glyph unicode="&#x323a;" />
<glyph unicode="&#x323b;" />
<glyph unicode="&#x323c;" />
<glyph unicode="&#x323d;" />
<glyph unicode="&#x323e;" />
<glyph unicode="&#x323f;" />
<glyph unicode="&#x3240;" />
<glyph unicode="&#x3241;" />
<glyph unicode="&#x3242;" />
<glyph unicode="&#x3243;" />
<glyph unicode="&#x3280;" />
<glyph unicode="&#x3281;" />
<glyph unicode="&#x3282;" />
<glyph unicode="&#x3283;" />
<glyph unicode="&#x3284;" />
<glyph unicode="&#x3285;" />
<glyph unicode="&#x3286;" />
<glyph unicode="&#x3287;" />
<glyph unicode="&#x3288;" />
<glyph unicode="&#x3289;" />
<glyph unicode="&#x328a;" />
<glyph unicode="&#x328b;" />
<glyph unicode="&#x328c;" />
<glyph unicode="&#x328d;" />
<glyph unicode="&#x328e;" />
<glyph unicode="&#x328f;" />
<glyph unicode="&#x3290;" />
<glyph unicode="&#x3291;" />
<glyph unicode="&#x3292;" />
<glyph unicode="&#x3293;" />
<glyph unicode="&#x3294;" />
<glyph unicode="&#x3295;" />
<glyph unicode="&#x3296;" />
<glyph unicode="&#x3297;" />
<glyph unicode="&#x3298;" />
<glyph unicode="&#x3299;" />
<glyph unicode="&#x329a;" />
<glyph unicode="&#x329b;" />
<glyph unicode="&#x329c;" />
<glyph unicode="&#x329d;" />
<glyph unicode="&#x329e;" />
<glyph unicode="&#x329f;" />
<glyph unicode="&#x32a0;" />
<glyph unicode="&#x32a1;" />
<glyph unicode="&#x32a2;" />
<glyph unicode="&#x32a3;" />
<glyph unicode="&#x32a4;" />
<glyph unicode="&#x32a5;" />
<glyph unicode="&#x32a6;" />
<glyph unicode="&#x32a7;" />
<glyph unicode="&#x32a8;" />
<glyph unicode="&#x32a9;" />
<glyph unicode="&#x32aa;" />
<glyph unicode="&#x32ab;" />
<glyph unicode="&#x32ac;" />
<glyph unicode="&#x32ad;" />
<glyph unicode="&#x32ae;" />
<glyph unicode="&#x32af;" />
<glyph unicode="&#x32b0;" />
<glyph unicode="&#x32c0;" />
<glyph unicode="&#x32c1;" />
<glyph unicode="&#x32c2;" />
<glyph unicode="&#x32c3;" />
<glyph unicode="&#x32c4;" />
<glyph unicode="&#x32c5;" />
<glyph unicode="&#x32c6;" />
<glyph unicode="&#x32c7;" />
<glyph unicode="&#x32c8;" />
<glyph unicode="&#x32c9;" />
<glyph unicode="&#x32ca;" />
<glyph unicode="&#x32cb;" />
<glyph unicode="&#x32d0;" />
<glyph unicode="&#x32d1;" />
<glyph unicode="&#x32d2;" />
<glyph unicode="&#x32d3;" />
<glyph unicode="&#x32d4;" />
<glyph unicode="&#x32d5;" />
<glyph unicode="&#x32d6;" />
<glyph unicode="&#x32d7;" />
<glyph unicode="&#x32d8;" />
<glyph unicode="&#x32d9;" />
<glyph unicode="&#x32da;" />
<glyph unicode="&#x32db;" />
<glyph unicode="&#x32dc;" />
<glyph unicode="&#x32dd;" />
<glyph unicode="&#x32de;" />
<glyph unicode="&#x32df;" />
<glyph unicode="&#x32e0;" />
<glyph unicode="&#x32e1;" />
<glyph unicode="&#x32e2;" />
<glyph unicode="&#x32e3;" />
<glyph unicode="&#x32e4;" />
<glyph unicode="&#x32e5;" />
<glyph unicode="&#x32e6;" />
<glyph unicode="&#x32e7;" />
<glyph unicode="&#x32e8;" />
<glyph unicode="&#x32e9;" />
<glyph unicode="&#x32ea;" />
<glyph unicode="&#x32eb;" />
<glyph unicode="&#x32ec;" />
<glyph unicode="&#x32ed;" />
<glyph unicode="&#x32ee;" />
<glyph unicode="&#x32ef;" />
<glyph unicode="&#x32f0;" />
<glyph unicode="&#x32f1;" />
<glyph unicode="&#x32f2;" />
<glyph unicode="&#x32f3;" />
<glyph unicode="&#x32f4;" />
<glyph unicode="&#x32f5;" />
<glyph unicode="&#x32f6;" />
<glyph unicode="&#x32f7;" />
<glyph unicode="&#x32f8;" />
<glyph unicode="&#x32f9;" />
<glyph unicode="&#x32fa;" />
<glyph unicode="&#x32fb;" />
<glyph unicode="&#x32fc;" />
<glyph unicode="&#x32fd;" />
<glyph unicode="&#x32fe;" />
<glyph unicode="&#x3300;" />
<glyph unicode="&#x3301;" />
<glyph unicode="&#x3302;" />
<glyph unicode="&#x3303;" />
<glyph unicode="&#x3304;" />
<glyph unicode="&#x3305;" />
<glyph unicode="&#x3306;" />
<glyph unicode="&#x3307;" />
<glyph unicode="&#x3308;" />
<glyph unicode="&#x3309;" />
<glyph unicode="&#x330a;" />
<glyph unicode="&#x330b;" />
<glyph unicode="&#x330c;" />
<glyph unicode="&#x330d;" />
<glyph unicode="&#x330e;" />
<glyph unicode="&#x330f;" />
<glyph unicode="&#x3310;" />
<glyph unicode="&#x3311;" />
<glyph unicode="&#x3312;" />
<glyph unicode="&#x3313;" />
<glyph unicode="&#x3314;" />
<glyph unicode="&#x3315;" />
<glyph unicode="&#x3316;" />
<glyph unicode="&#x3317;" />
<glyph unicode="&#x3318;" />
<glyph unicode="&#x3319;" />
<glyph unicode="&#x331a;" />
<glyph unicode="&#x331b;" />
<glyph unicode="&#x331c;" />
<glyph unicode="&#x331d;" />
<glyph unicode="&#x331e;" />
<glyph unicode="&#x331f;" />
<glyph unicode="&#x3320;" />
<glyph unicode="&#x3321;" />
<glyph unicode="&#x3322;" />
<glyph unicode="&#x3323;" />
<glyph unicode="&#x3324;" />
<glyph unicode="&#x3325;" />
<glyph unicode="&#x3326;" />
<glyph unicode="&#x3327;" />
<glyph unicode="&#x3328;" />
<glyph unicode="&#x3329;" />
<glyph unicode="&#x332a;" />
<glyph unicode="&#x332b;" />
<glyph unicode="&#x332c;" />
<glyph unicode="&#x332d;" />
<glyph unicode="&#x332e;" />
<glyph unicode="&#x332f;" />
<glyph unicode="&#x3330;" />
<glyph unicode="&#x3331;" />
<glyph unicode="&#x3332;" />
<glyph unicode="&#x3333;" />
<glyph unicode="&#x3334;" />
<glyph unicode="&#x3335;" />
<glyph unicode="&#x3336;" />
<glyph unicode="&#x3337;" />
<glyph unicode="&#x3338;" />
<glyph unicode="&#x3339;" />
<glyph unicode="&#x333a;" />
<glyph unicode="&#x333b;" />
<glyph unicode="&#x333c;" />
<glyph unicode="&#x333d;" />
<glyph unicode="&#x333e;" />
<glyph unicode="&#x333f;" />
<glyph unicode="&#x3340;" />
<glyph unicode="&#x3341;" />
<glyph unicode="&#x3342;" />
<glyph unicode="&#x3343;" />
<glyph unicode="&#x3344;" />
<glyph unicode="&#x3345;" />
<glyph unicode="&#x3346;" />
<glyph unicode="&#x3347;" />
<glyph unicode="&#x3348;" />
<glyph unicode="&#x3349;" />
<glyph unicode="&#x334a;" />
<glyph unicode="&#x334b;" />
<glyph unicode="&#x334c;" />
<glyph unicode="&#x334d;" />
<glyph unicode="&#x334e;" />
<glyph unicode="&#x334f;" />
<glyph unicode="&#x3350;" />
<glyph unicode="&#x3351;" />
<glyph unicode="&#x3352;" />
<glyph unicode="&#x3353;" />
<glyph unicode="&#x3354;" />
<glyph unicode="&#x3355;" />
<glyph unicode="&#x3356;" />
<glyph unicode="&#x3357;" />
<glyph unicode="&#x3358;" />
<glyph unicode="&#x3359;" />
<glyph unicode="&#x335a;" />
<glyph unicode="&#x335b;" />
<glyph unicode="&#x335c;" />
<glyph unicode="&#x335d;" />
<glyph unicode="&#x335e;" />
<glyph unicode="&#x335f;" />
<glyph unicode="&#x3360;" />
<glyph unicode="&#x3361;" />
<glyph unicode="&#x3362;" />
<glyph unicode="&#x3363;" />
<glyph unicode="&#x3364;" />
<glyph unicode="&#x3365;" />
<glyph unicode="&#x3366;" />
<glyph unicode="&#x3367;" />
<glyph unicode="&#x3368;" />
<glyph unicode="&#x3369;" />
<glyph unicode="&#x336a;" />
<glyph unicode="&#x336b;" />
<glyph unicode="&#x336c;" />
<glyph unicode="&#x336d;" />
<glyph unicode="&#x336e;" />
<glyph unicode="&#x336f;" />
<glyph unicode="&#x3370;" />
<glyph unicode="&#x3371;" />
<glyph unicode="&#x3372;" />
<glyph unicode="&#x3373;" />
<glyph unicode="&#x3374;" />
<glyph unicode="&#x3375;" />
<glyph unicode="&#x3376;" />
<glyph unicode="&#x337b;" />
<glyph unicode="&#x337c;" />
<glyph unicode="&#x337d;" />
<glyph unicode="&#x337e;" />
<glyph unicode="&#x337f;" />
<glyph unicode="&#x3380;" />
<glyph unicode="&#x3381;" />
<glyph unicode="&#x3382;" />
<glyph unicode="&#x3383;" />
<glyph unicode="&#x3384;" />
<glyph unicode="&#x3385;" />
<glyph unicode="&#x3386;" />
<glyph unicode="&#x3387;" />
<glyph unicode="&#x3388;" />
<glyph unicode="&#x3389;" />
<glyph unicode="&#x338a;" />
<glyph unicode="&#x338b;" />
<glyph unicode="&#x338c;" />
<glyph unicode="&#x338d;" />
<glyph unicode="&#x338e;" />
<glyph unicode="&#x338f;" />
<glyph unicode="&#x3390;" />
<glyph unicode="&#x3391;" />
<glyph unicode="&#x3392;" />
<glyph unicode="&#x3393;" />
<glyph unicode="&#x3394;" />
<glyph unicode="&#x3395;" />
<glyph unicode="&#x3396;" />
<glyph unicode="&#x3397;" />
<glyph unicode="&#x3398;" />
<glyph unicode="&#x3399;" />
<glyph unicode="&#x339a;" />
<glyph unicode="&#x339b;" />
<glyph unicode="&#x339c;" />
<glyph unicode="&#x339d;" />
<glyph unicode="&#x339e;" />
<glyph unicode="&#x339f;" />
<glyph unicode="&#x33a0;" />
<glyph unicode="&#x33a1;" />
<glyph unicode="&#x33a2;" />
<glyph unicode="&#x33a3;" />
<glyph unicode="&#x33a4;" />
<glyph unicode="&#x33a5;" />
<glyph unicode="&#x33a6;" />
<glyph unicode="&#x33a7;" />
<glyph unicode="&#x33a8;" />
<glyph unicode="&#x33a9;" />
<glyph unicode="&#x33aa;" />
<glyph unicode="&#x33ab;" />
<glyph unicode="&#x33ac;" />
<glyph unicode="&#x33ad;" />
<glyph unicode="&#x33ae;" />
<glyph unicode="&#x33af;" />
<glyph unicode="&#x33b0;" />
<glyph unicode="&#x33b1;" />
<glyph unicode="&#x33b2;" />
<glyph unicode="&#x33b3;" />
<glyph unicode="&#x33b4;" />
<glyph unicode="&#x33b5;" />
<glyph unicode="&#x33b6;" />
<glyph unicode="&#x33b7;" />
<glyph unicode="&#x33b8;" />
<glyph unicode="&#x33b9;" />
<glyph unicode="&#x33ba;" />
<glyph unicode="&#x33bb;" />
<glyph unicode="&#x33bc;" />
<glyph unicode="&#x33bd;" />
<glyph unicode="&#x33be;" />
<glyph unicode="&#x33bf;" />
<glyph unicode="&#x33c0;" />
<glyph unicode="&#x33c1;" />
<glyph unicode="&#x33c2;" />
<glyph unicode="&#x33c3;" />
<glyph unicode="&#x33c4;" />
<glyph unicode="&#x33c5;" />
<glyph unicode="&#x33c6;" />
<glyph unicode="&#x33c7;" />
<glyph unicode="&#x33c8;" />
<glyph unicode="&#x33c9;" />
<glyph unicode="&#x33ca;" />
<glyph unicode="&#x33cb;" />
<glyph unicode="&#x33cc;" />
<glyph unicode="&#x33cd;" />
<glyph unicode="&#x33ce;" />
<glyph unicode="&#x33cf;" />
<glyph unicode="&#x33d0;" />
<glyph unicode="&#x33d1;" />
<glyph unicode="&#x33d2;" />
<glyph unicode="&#x33d3;" />
<glyph unicode="&#x33d4;" />
<glyph unicode="&#x33d5;" />
<glyph unicode="&#x33d6;" />
<glyph unicode="&#x33d7;" />
<glyph unicode="&#x33d8;" />
<glyph unicode="&#x33d9;" />
<glyph unicode="&#x33da;" />
<glyph unicode="&#x33db;" />
<glyph unicode="&#x33dc;" />
<glyph unicode="&#x33dd;" />
<glyph unicode="&#x33e0;" />
<glyph unicode="&#x33e1;" />
<glyph unicode="&#x33e2;" />
<glyph unicode="&#x33e3;" />
<glyph unicode="&#x33e4;" />
<glyph unicode="&#x33e5;" />
<glyph unicode="&#x33e6;" />
<glyph unicode="&#x33e7;" />
<glyph unicode="&#x33e8;" />
<glyph unicode="&#x33e9;" />
<glyph unicode="&#x33ea;" />
<glyph unicode="&#x33eb;" />
<glyph unicode="&#x33ec;" />
<glyph unicode="&#x33ed;" />
<glyph unicode="&#x33ee;" />
<glyph unicode="&#x33ef;" />
<glyph unicode="&#x33f0;" />
<glyph unicode="&#x33f1;" />
<glyph unicode="&#x33f2;" />
<glyph unicode="&#x33f3;" />
<glyph unicode="&#x33f4;" />
<glyph unicode="&#x33f5;" />
<glyph unicode="&#x33f6;" />
<glyph unicode="&#x33f7;" />
<glyph unicode="&#x33f8;" />
<glyph unicode="&#x33f9;" />
<glyph unicode="&#x33fa;" />
<glyph unicode="&#x33fb;" />
<glyph unicode="&#x33fc;" />
<glyph unicode="&#x33fd;" />
<glyph unicode="&#x33fe;" />
<glyph unicode="&#x4e00;" d="M0 750q366 74 753 110t783 22q204 -14 366 -118l14 -58l-44 -58q-190 -176 -439 -227t-511 -37q-250 30 -498 96t-424 270z" />
<glyph unicode="&#x4e01;" d="M234 1452l512 58l204 -28l44 14q248 -58 512 -102t484 -176l14 -72l-14 -30q-368 -4 -732 44v-88l58 -380q0 -206 -29 -403t-117 -373l-248 -44q-118 58 -250 44l-102 -14v28q248 104 438 338l74 306q20 300 -30 600q-160 44 -336 30l-292 -30l-102 74z" />
<glyph unicode="&#x4e02;" />
<glyph unicode="&#x4e03;" d="M102 950q278 60 570 104q58 264 234 486l118 14l44 -206l-88 -310q220 -28 446 -50t432 -96v-60l-44 -102q-206 -74 -447 -74t-461 -44q-72 -178 -58 -398l30 -104q116 -88 262 -88l528 74v-30l-60 -88l-116 -74v-30q-162 -102 -366 -102q-292 58 -512 294 q-88 134 -102 296l14 264q-58 60 -160 44l-74 -14l-102 102l-44 118z" />
<glyph unicode="&#x4e04;" />
<glyph unicode="&#x4e05;" />
<glyph unicode="&#x4e07;" d="M262 1526l204 72h740q304 -14 552 -174l44 -118q-332 -34 -668 -30l-44 16l-72 -30q-44 -160 -44 -336q378 14 668 -190q130 -132 144 -322q-28 -206 -130 -366l-174 -102v28h-30v30h-86v-30h-174l-30 74l44 14q102 162 218 322l72 58v104l-116 116l-146 30 q-202 14 -362 -102q-58 -176 -138 -337t-182 -323l-86 -28q-88 58 -60 160q88 308 212 608t210 606q-290 16 -552 104z" />
<glyph unicode="&#x4e08;" />
<glyph unicode="&#x4e09;" d="M336 -26l44 60q204 58 424 65t438 7l470 -88l14 -58q-308 -58 -615 -95t-629 -37l-132 88zM336 1408q58 74 146 44l146 -14l440 44q306 -30 600 -118l58 -160l-88 -88l-716 74l-88 -16q-220 16 -424 58zM468 648v58q278 146 614 132q366 -14 672 -160l16 -60 q-190 -28 -373 -65t-389 -37l-42 14l-236 -58l-130 58z" />
<glyph unicode="&#x4e0a;" d="M306 150q250 0 440 58q-102 192 -117 426t-15 468q14 204 132 364l72 16l104 -190q-44 -74 -30 -176l30 -176h58q160 58 343 102t373 44l176 -72l14 -60l-58 -72q-204 -102 -431 -175t-447 -147l-14 -102l14 -44l-28 -88l14 -102l-14 -58l804 -132v-30 q-162 -116 -352 -146t-408 -14l-382 44l-58 -44q-132 146 -220 306z" />
<glyph unicode="&#x4e0b;" d="M218 1510l30 74h28v-44h44v44h160l72 -14q218 58 465 73t493 15l292 -104l28 -102q-232 -116 -508 -160l-58 14l-160 -14l-14 -278q188 -220 399 -439t443 -395h30v-30l-88 -28q-348 14 -624 218l-174 264h-58v-439t-88 -395l-58 -44q-72 118 -102 264v730l102 512 q-262 16 -494 74l-58 58v44l-88 58z" />
<glyph unicode="&#x4e0c;" />
<glyph unicode="&#x4e0d;" d="M102 1394q146 102 336 117t396 15q204 -30 409 -45t381 -117l28 -132l-72 -14l-118 30q-248 -44 -482 -88l-14 -206q42 -130 28 -276l-14 -60l14 -496q0 -176 -102 -294q-88 146 -102 308l14 190l-14 44q0 234 44 454h-30l-438 -424l-104 -44l-14 58q14 146 132 248 l74 30v28q204 132 394 308v132q-176 58 -366 44l-88 -14l-278 160zM1272 808q30 60 118 44l218 -146l146 -176l16 -116l-44 -30q-176 30 -308 146q-116 118 -146 278z" />
<glyph unicode="&#x4e0e;" />
<glyph unicode="&#x4e10;" />
<glyph unicode="&#x4e11;" />
<glyph unicode="&#x4e12;" />
<glyph unicode="&#x4e14;" />
<glyph unicode="&#x4e15;" />
<glyph unicode="&#x4e16;" d="M72 714v90q132 72 294 88l14 118l-30 280l44 118h88q74 -222 102 -472l206 -16l132 30v30l-16 132q0 192 102 354h44q74 -88 60 -206l-16 -148l16 -132h116l250 44l72 324h58q74 -148 74 -338q146 14 264 -44v-30q-118 -104 -278 -132q0 -296 -118 -532 q-132 -58 -292 -58l-176 74l-14 44h-30v30h-30q-72 162 -102 352l-44 16l-190 -30l-14 -192q14 -206 102 -368q308 -176 688 -148q-176 -132 -410 -132q-278 44 -482 266q-102 250 -118 530h-88l-160 -60zM1112 642q0 -208 160 -326l14 16q176 192 176 456h-116l-206 -44z " />
<glyph unicode="&#x4e17;" />
<glyph unicode="&#x4e18;" />
<glyph unicode="&#x4e19;" />
<glyph unicode="&#x4e1e;" />
<glyph unicode="&#x4e1f;" />
<glyph unicode="&#x4e21;" d="M88 1584l218 44l74 -14q220 58 468 44q234 -30 475 -37t431 -155l16 -44l-44 -60q-330 2 -644 -58l-14 -148l44 -102l102 -30l44 14q248 -28 438 -220q190 -222 146 -530q0 -206 -146 -368q-160 -46 -322 -74l-14 44l118 118q116 250 116 560l-14 118h-30l-72 118 q-148 102 -352 72l-30 -102l16 -148l-16 -220l16 -44h44l86 264l88 16l118 -74l14 -60q-102 -206 -176 -426l-130 -46l-30 60h-30q-88 -60 -190 -44q-176 44 -292 206l-74 206q16 132 104 222l44 14l28 -14v-222l-14 -74l160 -162h162l14 60q-116 250 -116 560l-148 14 q-160 -30 -306 -118l-44 14q-44 -220 -30 -470q16 -252 118 -472l-58 -14l-176 102q-88 178 -110 399t-8 441l88 280h74q44 -74 116 -58q220 72 454 88q44 88 30 192q-60 44 -148 28l-234 -14q-204 102 -408 206z" />
<glyph unicode="&#x4e23;" />
<glyph unicode="&#x4e24;" />
<glyph unicode="&#x4e26;" />
<glyph unicode="&#x4e28;" />
<glyph unicode="&#x4e2a;" />
<glyph unicode="&#x4e2b;" />
<glyph unicode="&#x4e2d;" d="M132 758q-16 280 102 502l58 14q278 -28 556 -44q44 222 146 412h58q74 -58 74 -162l-44 -220q336 14 600 -176q160 -164 116 -414l-174 -368l-190 -88q-44 58 -118 44l-308 -58q0 -266 -102 -502l-44 -14q-146 220 -116 516h-74q-146 -16 -262 -74l-220 250zM380 758 l44 -412l88 -14l262 74l60 574l-60 30l-44 -16l-292 30l-58 -44v-222zM1008 464q74 -44 162 -30l160 30l132 -30l16 16q72 206 86 442l-44 58q-190 60 -424 44q-44 -264 -88 -530z" />
<glyph unicode="&#x4e2e;" />
<glyph unicode="&#x4e2f;" />
<glyph unicode="&#x4e30;" />
<glyph unicode="&#x4e31;" />
<glyph unicode="&#x4e32;" />
<glyph unicode="&#x4e35;" />
<glyph unicode="&#x4e36;" />
<glyph unicode="&#x4e38;" d="M276 1146q306 72 624 130q30 176 88 352l58 14l102 -72v-104q-72 -86 -58 -218q144 -44 304 -30l88 30q188 -30 334 -176l14 -88q-72 -248 -225 -468t-137 -498q100 -116 260 -72l262 72v-44l-116 -130q-146 -118 -334 -104l-130 104l-74 44q-116 190 -86 438 q28 278 130 526q-72 74 -188 60l-44 -16l-58 30q-58 -176 -116 -351t-116 -351l100 -176l44 -14v-44h-72l-204 58l-130 -102l-72 -132q-102 -58 -204 -102l-14 88q144 234 246 468q-130 146 -174 336l102 14l188 -146q116 190 146 424h-132l-174 -44l-86 60 q-102 102 -146 234z" />
<glyph unicode="&#x4e39;" />
<glyph unicode="&#x4e3b;" d="M262 940l132 30l60 -16l72 30h674l306 -72l44 -118l-102 -30l-278 30l-88 -44l-14 -220q174 -14 322 -102l44 -102q-176 -58 -382 -58v-190l104 -44l262 14l396 -88v-44h-30v-28l-176 -30l-44 14q-234 -44 -475 -80t-489 -66l-44 14l-16 -14l-130 74l-60 130 q264 104 572 104v28q-74 74 -74 176l-102 14l-102 -28q-104 44 -132 160q132 102 306 118l30 218q-58 44 -132 30l-336 -44q-102 102 -118 234zM760 1540l74 74h44q88 -220 88 -468l-44 -16q-192 162 -162 410z" />
<glyph unicode="&#x4e3c;" />
<glyph unicode="&#x4e3f;" />
<glyph unicode="&#x4e40;" />
<glyph unicode="&#x4e41;" />
<glyph unicode="&#x4e42;" />
<glyph unicode="&#x4e43;" />
<glyph unicode="&#x4e44;" />
<glyph unicode="&#x4e45;" d="M248 750q74 190 169 373t227 343l44 16q102 -58 234 -58l72 14q132 -14 234 -118q118 -174 88 -424l-102 -322q190 -132 380 -234t380 -234l16 -44q-132 -6 -264 -14l-336 132l-16 44l-204 116l-30 88h-28q-88 -146 -206 -292q-176 -176 -410 -190l-28 14v44 q132 292 358 556t256 600l-44 58l-176 30l-160 -88q-102 -146 -183 -314t-139 -344l-74 -16q-88 104 -58 264z" />
<glyph unicode="&#x4e47;" />
<glyph unicode="&#x4e4b;" />
<glyph unicode="&#x4e4d;" />
<glyph unicode="&#x4e4e;" />
<glyph unicode="&#x4e4f;" />
<glyph unicode="&#x4e51;" />
<glyph unicode="&#x4e55;" />
<glyph unicode="&#x4e56;" />
<glyph unicode="&#x4e57;" d="M190 1146q248 14 468 86l88 -14l190 44l14 102q-102 60 -248 74l-102 146l160 14q292 -14 526 -160l16 -58l-44 -16l-146 44l-44 -116q160 -44 336 -30l248 14q146 0 234 -72l30 -58l-438 -30l-16 -58l16 -44l-30 -162q190 16 336 -72l14 -44l-146 -58v28h-28 q-44 -88 -176 -58q-74 -132 -118 -264h118l116 30v-44q-204 -146 -468 -162q0 -320 -88 -598q-58 292 -42 598h-44q-30 -86 -104 -160l-44 -14l-86 -146h-30v-30l-74 -74h-44v60q60 204 176 394q-176 -30 -278 74l-14 72l278 44v30q-74 88 -102 204l-44 16l-102 -60l-74 44 l-88 74v28l44 60l248 58v132l-380 58zM730 516q88 -88 220 -88l16 220q-44 58 -132 44l-88 -30zM730 912l132 -16l74 30l14 58l-14 102h-132l-58 -44zM1068 486l14 -86l190 -16l14 16l16 14l-16 72l16 118l-74 74h-132q-44 -88 -28 -192zM1068 912q72 -74 204 -30 q58 88 44 204l-88 30l-146 -30zM1302 122l102 28q264 -72 498 -204v-44l-234 -88l-88 14l-30 -14l-146 102q-30 118 -102 206z" />
<glyph unicode="&#x4e58;" />
<glyph unicode="&#x4e59;" />
<glyph unicode="&#x4e5a;" />
<glyph unicode="&#x4e5c;" />
<glyph unicode="&#x4e5d;" d="M190 1072l410 118q72 218 160 438l58 14q88 -190 104 -410l218 -14l264 30l74 -44l72 -74h44q88 -88 74 -218l-74 -176l-58 -44q-132 -264 -190 -556l14 -44h30v-30l146 -14l336 190l14 -44q-116 -176 -248 -350q-74 -74 -190 -60l-278 132q-146 190 -132 440l118 570 q-132 58 -294 72q-58 -248 -124 -482t-182 -454l-132 -132l-118 -28l-28 116q28 250 102 469t132 453q-176 -14 -308 88z" />
<glyph unicode="&#x4e5e;" />
<glyph unicode="&#x4e5f;" />
<glyph unicode="&#x4e62;" />
<glyph unicode="&#x4e63;" />
<glyph unicode="&#x4e68;" />
<glyph unicode="&#x4e69;" />
<glyph unicode="&#x4e71;" d="M234 970l102 14l118 -30l102 30q0 118 44 234l58 14v30l-264 74l-72 190l102 28q264 -58 482 -218l16 -104l-60 -14l-190 30v-30l30 -88l-14 -102q86 -58 190 -74v-42l-148 -60l-58 -278q176 -132 176 -336l-88 -248q-116 -118 -278 -118l-160 74v44l14 58 q-44 176 -30 366l30 146l264 30v130l-30 88l-204 16l-74 -30zM438 4q58 -44 132 -30l44 30q116 146 132 322l-88 132l-162 28q-86 -218 -58 -482zM1156 268q44 278 87 556t87 556l44 14q88 -248 60 -556l-74 -600l44 -116l74 -16q262 206 540 366q-116 -204 -248 -380 l-74 -58l-14 -44l-234 -74q-132 30 -220 132z" />
<glyph unicode="&#x4e73;" d="M204 282q58 74 162 44l44 -14q130 -16 234 72l102 176q-162 44 -352 30l-102 -16l-44 104q190 58 410 42q132 0 248 -72l16 -118l-104 -174q190 -60 382 -88q28 292 101 570t161 556l58 14l30 -132q-14 -292 -58 -570t-74 -570l44 -162h58q250 264 396 556l58 16l16 -44 q14 -322 -162 -556l-74 -30v-28q-102 -104 -248 -88l-132 58q-146 146 -160 366l-88 14q-160 -102 -352 -146q-44 -190 -130 -352l-148 -28l-28 14v30q146 146 160 350q-204 -14 -380 60zM204 1174h30l190 -366l-74 -14q-174 146 -146 380zM204 1424q264 102 600 72l220 -88 l14 -72l-248 -44l-44 14l-220 -44l-292 88zM540 1130l60 30q72 -118 72 -264h-28l-88 88zM906 896l60 190l42 16l16 -132q-16 -146 -88 -278z" />
<glyph unicode="&#x4e74;" />
<glyph unicode="&#x4e75;" />
<glyph unicode="&#x4e79;" />
<glyph unicode="&#x4e7e;" />
<glyph unicode="&#x4e7f;" />
<glyph unicode="&#x4e80;" />
<glyph unicode="&#x4e82;" />
<glyph unicode="&#x4e85;" />
<glyph unicode="&#x4e86;" />
<glyph unicode="&#x4e88;" d="M218 1452q294 102 616 132l44 -14l174 14q278 -14 498 -176l14 -58l44 -14l16 -118l-60 -116h-28l-44 -104q-88 -72 -206 -58v-44l132 -160q162 0 294 -102l28 -74h30l14 -58q0 -162 -116 -264q-190 -132 -410 -190l-44 14l-146 -44q-30 -160 -118 -292l-102 -30l-30 206 q88 264 118 556h-176l-306 -58l-60 72l30 58q220 74 454 103t468 73v44q-234 74 -454 162q-102 102 -132 248l14 30h44l366 -176l88 248q-176 58 -380 58l-410 -72l-14 -58l-162 28zM1068 428l44 -72l-30 -148h30l190 88q146 74 218 206q-86 44 -204 28l-248 -58v-44z" />
<glyph unicode="&#x4e89;" d="M204 984q74 322 352 570l190 118l58 -102q292 14 498 -146l44 -132h28v-88q-58 -102 -88 -220q192 14 322 -116q60 -104 104 -220l86 -58l44 -74q-102 -74 -218 -74l-16 -146l30 -116q-264 -74 -542 -118l-88 -408l-42 -16l-16 234l16 58l-16 118h-88l-234 -58l-102 72 v60q162 130 380 130q74 60 44 162l-58 14l-162 -28l-42 14l-88 -14q-74 42 -74 130q190 104 424 118l16 44l-88 88l-220 -74l-44 88l-58 14v60q204 130 468 130q116 132 132 322q-104 44 -220 44l-132 -58l-116 30v-30h-30l-248 -322l-148 -160h-44zM1096 340l44 -58 q162 18 322 0l16 14l14 88l-30 74l-72 14l-278 -30zM1112 678q146 -44 306 -30l16 14l14 88q-102 74 -234 44l-88 -30z" />
<glyph unicode="&#x4e8a;" />
<glyph unicode="&#x4e8b;" d="M248 332l674 132l14 104q-248 58 -512 88v30l160 14v30q-88 102 -88 236l16 44l-16 132l30 58h58l60 -14l292 104l14 58q-102 74 -248 44l-308 -30l-116 148v60l628 44v58l-14 104l58 14l132 -102v-46l-14 -58l556 -58l44 -104q-220 -60 -454 -44l-132 14l-30 -74l16 -44 q190 0 350 -88q60 -74 44 -176l-28 -74h-30l-30 -60q-102 -72 -248 -44l-30 16l-58 -30v-104h234l206 16l146 -134v-102l-16 -44l60 -74l-30 -60l-88 -44l-116 -162q-162 -74 -338 -118l-28 -162l14 -44q0 -74 -44 -102q-88 132 -72 294l-410 74l-16 58l396 74l14 74 q-58 74 -190 44q-234 -14 -454 -102zM644 730l262 -16l16 16l14 88l-248 14zM760 980h44l118 30l14 58h-30l-146 -44v-44zM1038 1010l234 -60l44 118q-116 44 -248 30zM1052 214h206l176 44l14 58q-102 46 -234 30l-162 -30v-102zM1052 508q190 -30 410 -30l30 90 q-132 44 -278 28l-44 -14l-118 14v-88z" />
<glyph unicode="&#x4e8c;" d="M218 282q264 74 564 88t592 14q294 0 528 -102l14 -58l-102 -88q-190 -88 -402 -117t-432 -59h-58q-338 -30 -586 132v44l-88 30zM262 1306v44q250 74 528 58q218 -58 453 -95t439 -139l14 -102q-234 -58 -482 -74q-190 30 -358 89t-374 59l-44 -16z" />
<glyph unicode="&#x4e8d;" />
<glyph unicode="&#x4e8e;" />
<glyph unicode="&#x4e91;" />
<glyph unicode="&#x4e92;" />
<glyph unicode="&#x4e94;" d="M192 34l236 28l44 -14l178 30l44 438l-60 14l-88 -14l-118 118v58q148 88 310 132l74 262q-296 30 -532 190l-14 60l44 58l516 30q236 -16 449 -60t405 -160l16 -44l-46 -14q-146 34 -294 28q-148 -44 -294 -72q-60 -132 -74 -294q250 -28 486 -130q132 -104 118 -264 l-88 -336q354 0 634 -132q-324 -146 -708 -146l-58 14l-208 -14q-250 14 -508 21t-448 169zM870 92q148 -30 324 -30q104 206 132 440l-352 28q-74 -204 -104 -438z" />
<glyph unicode="&#x4e95;" />
<glyph unicode="&#x4e96;" />
<glyph unicode="&#x4e97;" />
<glyph unicode="&#x4e98;" />
<glyph unicode="&#x4e99;" />
<glyph unicode="&#x4e9b;" />
<glyph unicode="&#x4e9c;" />
<glyph unicode="&#x4e9d;" />
<glyph unicode="&#x4e9e;" />
<glyph unicode="&#x4e9f;" />
<glyph unicode="&#x4ea0;" />
<glyph unicode="&#x4ea1;" d="M248 838q202 58 413 80t385 80q-232 278 -290 630h58q130 -30 232 -162q188 -204 204 -482q304 30 552 -102l14 -88l-232 -88h-596q-102 -264 -72 -600l72 -72q284 -26 566 -16l204 30l14 -44l-116 -116h-28l-60 -60q-232 -58 -492 -58q-132 30 -234 160 q-144 132 -130 338q4 212 30 424l-60 28l-318 -28z" />
<glyph unicode="&#x4ea2;" />
<glyph unicode="&#x4ea4;" d="M276 1238l88 14l42 -14q248 58 538 42v60q-116 130 -116 304l102 14l246 -378q334 -14 640 -86v-44q-262 -116 -574 -109t-602 -35l-74 14l-58 -44l-160 58zM306 468q42 188 188 348l146 58q86 -72 86 -174l-102 -116h-28l-14 -44l-44 -14q-58 -146 -190 -248 q-58 74 -42 190zM320 -200q262 86 464 318l16 44l-74 30q-102 102 -102 232h132l188 -88l174 248l74 14q42 -58 28 -144l-58 -218q190 -74 386 -139t370 -153l14 -42q-160 -102 -378 -74q-290 88 -566 190q-290 -218 -668 -218zM1380 860l44 14l436 -262l14 -58l-58 -14 l-392 190z" />
<glyph unicode="&#x4ea5;" />
<glyph unicode="&#x4ea6;" />
<glyph unicode="&#x4ea8;" />
<glyph unicode="&#x4eab;" />
<glyph unicode="&#x4eac;" d="M306 1276l494 44l116 -14v44q-74 132 -58 292l86 30l132 -132q0 -132 42 -234l582 -74l44 16l58 -16v-42l-116 -60h-770l-74 16l-42 -16l-88 16l-44 -16l-86 16l-204 -44q-72 72 -72 174zM320 34l72 248l58 14l132 -116l42 -102l-72 -118l58 -30v-28l-144 -58 q-118 72 -146 190zM582 824l86 234l58 14l58 -88h44l262 30q290 0 522 -146q58 -74 44 -190l-88 -162l16 -74l-190 -42l-42 14l-218 -30q14 -306 -44 -584l-58 -16l-30 16q-72 174 -72 394l14 44l-14 44l14 88h-130l-88 -14q-174 190 -144 468zM770 590q116 -44 248 -30 l376 30q58 88 44 204q-262 74 -566 58l-72 -44zM1482 252l58 44q204 -130 348 -322l16 -102l-74 -28l-202 116q-102 132 -146 292z" />
<glyph unicode="&#x4ead;" />
<glyph unicode="&#x4eae;" />
<glyph unicode="&#x4eaf;" />
<glyph unicode="&#x4eb0;" />
<glyph unicode="&#x4eb3;" />
<glyph unicode="&#x4eb6;" />
<glyph unicode="&#x4eb9;" />
<glyph unicode="&#x4eba;" d="M350 282q74 278 213 519t343 461l250 278l102 30q102 -74 102 -206q-132 -322 -278 -644l352 -320v-30q234 -146 438 -352l14 -44l-58 -14q-190 74 -388 161t-344 263l-130 132q-162 -190 -294 -394l-14 -44q-88 -88 -204 -104q-132 118 -104 308z" />
<glyph unicode="&#x4ec0;" />
<glyph unicode="&#x4ec1;" d="M190 428q88 264 234 505t292 491l58 14l88 -118q-28 -262 -160 -489t-308 -431h-28l-118 -148q-88 60 -58 176zM570 238q30 204 132 380l88 16l14 -104l-160 -642h-44q-44 160 -30 350zM966 268l72 28l88 -14l366 14q234 -14 438 -88v-28q-336 -88 -688 -118l-160 88 l-14 44l-88 30zM1052 970v44q176 72 396 58q176 -14 306 -118l16 -86l-88 -16q-44 60 -118 44l-364 -72q-104 58 -148 146z" />
<glyph unicode="&#x4ec2;" />
<glyph unicode="&#x4ec3;" />
<glyph unicode="&#x4ec4;" />
<glyph unicode="&#x4ec6;" />
<glyph unicode="&#x4ec7;" />
<glyph unicode="&#x4eca;" d="M190 764q28 234 234 396l410 322q28 72 116 88l118 58l116 -44l30 -88q220 -58 380 -234q160 -160 366 -264l30 -72l-162 -14q-204 58 -358 219t-358 189q-176 -146 -359 -292t-387 -248l-44 -60l-44 -14l-44 -44zM496 428q176 44 374 59t388 29q292 44 482 -146l30 -88 q-58 -204 -220 -366l-72 -14l-44 -74q-162 -102 -352 -116h-30l-28 14v44l204 248l132 278l-58 16l-60 -16l-58 16q-278 -30 -540 -88l-88 44zM730 940l192 14q218 -42 408 -190l16 -44h-30l-58 16l-44 -16q-248 60 -468 176z" />
<glyph unicode="&#x4ecb;" />
<glyph unicode="&#x4ecd;" />
<glyph unicode="&#x4ece;" />
<glyph unicode="&#x4ecf;" d="M102 720q88 250 220 484h28q88 160 234 306l132 30l58 -146q-146 -220 -321 -425t-337 -423zM176 106q42 190 108 366t170 336l72 16q44 -60 30 -132q-74 -190 -118 -410t-146 -394v28l-88 44zM730 180q104 278 250 540h28q176 294 382 572h88l58 -118 q-132 -292 -315 -555t-271 -571h102l528 118l28 276l-14 104q0 102 58 146l88 -58q88 -308 102 -630l-14 -58l14 -74l-88 -28l-116 86l-44 88l-44 16q-248 -118 -526 -146l-190 86z" />
<glyph unicode="&#x4ed0;" />
<glyph unicode="&#x4ed4;" />
<glyph unicode="&#x4ed5;" d="M146 568q58 206 183 390t255 360h30l132 192l88 16q72 -60 72 -148q-146 -148 -197 -332t-65 -390l28 -486q0 -178 -58 -296l-118 134l-28 250l14 44l-14 368h-44l-146 -250l-74 -14q-72 58 -58 162zM848 876l204 16l104 -16q44 296 146 576l72 14l44 -132l-28 -442 q336 -16 614 -104l-190 -88l-44 14l-396 -44l-28 -470l14 -60q176 14 336 -30v-28q-234 -208 -540 -222q-74 44 -162 60l-28 58l-44 58l14 60l234 44l14 338l-44 164l-72 14l-118 -14q-72 44 -72 146z" />
<glyph unicode="&#x4ed6;" d="M102 384q72 294 232 557t348 511l44 14l88 -58l28 -116q-188 -176 -290 -380v-704l44 -350q-102 44 -146 146q-58 190 -58 410l14 72l-14 74h-44q-144 -204 -202 -438h-30zM770 692l130 72q16 264 160 468h30l44 44l42 -130l-86 -278l86 -16l190 74q86 306 232 600l58 14 l30 -102q-102 -248 -176 -498q146 -28 276 -72l44 -162q0 -190 -144 -322l-204 -58l-14 74q116 72 174 204l14 132l-88 44l-130 -44l-130 -336h-44v160l30 118l-102 28l-102 -44l-30 -234q-14 -262 160 -438q102 -102 232 -118l408 132v-30q-102 -160 -262 -234l-188 -14 q-204 88 -378 264q-132 146 -132 351t-130 351z" />
<glyph unicode="&#x4ed7;" />
<glyph unicode="&#x4ed8;" d="M102 384q116 336 263 651t323 623h42l60 -176q-88 -308 -220 -593t-352 -533l-102 -74zM410 106q58 220 190 410l44 14l14 -130l-58 -162l14 -44q-30 -146 -88 -292l-72 -14q-60 102 -44 218zM862 1042q278 88 586 74v190l-14 102l58 146h44v30h28q104 -204 118 -438 q176 -30 336 -60v-44l-44 -58l-248 -72l-14 -60l28 -146l-14 -72q44 -250 44 -512l-118 -264q-88 -58 -190 -88v74q102 190 102 408l-86 644l-132 16q-220 14 -396 -60q-88 74 -88 190zM906 428l60 292h42q162 -234 148 -540q-60 -88 -162 -74q-102 132 -88 322z" />
<glyph unicode="&#x4ed9;" />
<glyph unicode="&#x4eda;" />
<glyph unicode="&#x4edb;" />
<glyph unicode="&#x4edd;" />
<glyph unicode="&#x4ede;" />
<glyph unicode="&#x4edf;" />
<glyph unicode="&#x4ee0;" />
<glyph unicode="&#x4ee1;" />
<glyph unicode="&#x4ee2;" />
<glyph unicode="&#x4ee3;" d="M28 502l88 248l60 44l28 88h30q102 234 292 424q58 74 146 58l58 -116l-218 -336q72 -220 44 -484l-44 -380l14 -248l-14 -16l-16 16l-14 -16l-132 132v206l44 614h-44l-14 -44h-30v-30h-28v-28h-30l-146 -234l-58 -16zM746 780l438 58q0 264 132 482h30v30h28l60 -30 l44 -130h-30l-14 -322q234 0 438 -104v-58l-410 -72l-14 -176q58 -292 292 -512l88 -88l-74 -30q-174 60 -306 190q-176 250 -264 542q-184 10 -366 0l-14 74l-30 14zM1594 1672h58l118 -102l88 -322h-30l-204 218z" />
<glyph unicode="&#x4ee4;" d="M218 926l60 116l438 322v30l132 72l118 132l14 60h88l102 -104q190 -116 387 -226t359 -286l30 -116h-60q-234 102 -453 256t-453 256q-176 -162 -373 -293t-373 -293zM380 634q256 -10 512 28q234 -14 453 -36t425 -110q72 -74 58 -190l-88 -146l-454 -250l-174 60v88 q278 58 496 278l16 44l-572 58q-28 -336 -102 -644q-88 160 -102 366l14 262q-116 44 -248 30l-58 -14l-132 28zM702 1160l88 14q306 -14 556 -176l14 -116l-44 -14l-102 44l-264 -16l-58 16l-58 -30l-118 132z" />
<glyph unicode="&#x4ee5;" d="M102 166q116 86 146 204q-88 234 -58 512l86 350l58 16l116 -102l58 -660h44q218 104 466 162l28 -14v-30l-58 -118q-306 -174 -582 -380l-130 -160l-86 58zM742 1292h42q160 -74 292 -234l130 -190h-116l-232 146q-58 132 -116 278zM886 -10q44 218 138 409t210 365h30 q130 234 232 484l58 14l116 -58l74 -190l-44 -30q-58 -248 -132 -482l276 -484h-86l-174 132l-88 146l-58 16l-262 -396q-116 -102 -260 -132q-44 88 -30 206z" />
<glyph unicode="&#x4ee8;" />
<glyph unicode="&#x4eed;" />
<glyph unicode="&#x4eee;" d="M116 706v44q88 204 198 387t212 373h30v-102q-60 -190 -155 -351t-211 -321zM262 150l16 58l-16 44q30 322 148 616h44l58 -190q-88 -192 -81 -440t-109 -410q-74 146 -60 322zM730 62v146l16 44l-16 118q74 220 74 461v489l-44 118l440 44l554 -118v-44l-468 -28 l-292 14l-14 -220l14 -102h102l338 30q130 -16 234 -102q72 -88 72 -220q-88 -234 -190 -468l336 -264v-44q-116 -58 -248 -44q-132 88 -278 146q-146 -160 -352 -160l16 88q160 102 234 278q-118 218 -132 482l58 30l190 -278l44 -16q118 148 118 352q-102 74 -250 58 l-292 -58q-14 -366 -146 -672z" />
<glyph unicode="&#x4eef;" />
<glyph unicode="&#x4ef0;" />
<glyph unicode="&#x4ef1;" />
<glyph unicode="&#x4ef2;" d="M102 692q44 262 138 497t240 453l116 16l28 -60q-58 -306 -217 -577t-275 -549q-44 102 -30 220zM276 136q30 350 174 628q74 -72 44 -190q-44 -350 -146 -658zM698 662l86 498l-14 44l14 28l116 74l88 -30l160 60l44 322h86l74 -132q-74 -60 -44 -162q144 -58 276 -174 q202 -206 188 -512q-44 -162 -116 -294l-72 -72l-58 -60l-74 -28l-28 58l14 74h-86l-74 -60q30 -234 -86 -408h-44l-72 380h-102l-132 -30l-58 30q-116 160 -86 394zM872 428l86 -14l132 44q102 292 72 628h-58l-28 -58h-58l-74 30q-58 -308 -72 -630zM1308 502l174 -16 q86 192 102 426l-190 204h-42q-74 -162 -44 -352l14 -72z" />
<glyph unicode="&#x4ef3;" />
<glyph unicode="&#x4ef5;" />
<glyph unicode="&#x4ef6;" d="M174 750q74 220 168 425t196 409l58 14q86 -102 58 -248q-72 -234 -167 -446t-283 -388q-44 118 -30 234zM392 48l160 498h30l28 -104q-58 -320 -204 -584zM814 998q0 264 72 512h58q58 -102 58 -262q132 -44 276 -58l58 306h44q58 -160 88 -336l218 -88l14 -146l-14 -30 h-30l-28 58l-146 30q-30 -220 -44 -454q160 -28 320 -44l14 -58q-144 -72 -320 -72l-28 -132l14 -322l-28 -74h-30q-146 220 -116 512l-276 30l-58 -14l-30 116l350 44l28 468q-102 58 -232 44q-58 -160 -88 -322l-72 -14q-102 132 -72 306z" />
<glyph unicode="&#x4ef7;" />
<glyph unicode="&#x4efb;" d="M14 546q102 248 212 482t228 468l42 14q88 -86 60 -234q-88 -234 -191 -453t-249 -423l-44 -30q-72 72 -58 176zM350 180l176 644h58q60 -60 44 -146q-44 -176 -73 -366t-145 -338q-74 88 -60 206zM818 1408h30q190 -28 388 -43t358 -117l44 -146l-30 -60h-28 q-74 44 -162 30q-58 -204 -44 -438q132 -44 278 -74v-30l-234 -102l-44 -102l16 -146l-16 -102l542 -30v-30q-190 -146 -438 -146l-162 16l-308 -74l-130 160v44l336 60v262l-88 30l-102 -44q-88 102 -102 248l44 16l116 -16l102 30l58 468l-146 14l-44 -14l-102 74 q-58 130 -132 262z" />
<glyph unicode="&#x4efc;" />
<glyph unicode="&#x4efd;" />
<glyph unicode="&#x4efe;" />
<glyph unicode="&#x4eff;" />
<glyph unicode="&#x4f00;" />
<glyph unicode="&#x4f01;" />
<glyph unicode="&#x4f02;" />
<glyph unicode="&#x4f03;" />
<glyph unicode="&#x4f08;" />
<glyph unicode="&#x4f09;" />
<glyph unicode="&#x4f0a;" />
<glyph unicode="&#x4f0b;" />
<glyph unicode="&#x4f0c;" />
<glyph unicode="&#x4f0d;" />
<glyph unicode="&#x4f0e;" />
<glyph unicode="&#x4f0f;" />
<glyph unicode="&#x4f10;" />
<glyph unicode="&#x4f11;" d="M14 736q102 234 190 475t234 461l102 44l88 -88v-162l-72 -292l58 -28q292 58 586 102l86 306h74q44 -130 44 -278q292 0 570 -58l30 -88q-102 -72 -234 -72l-44 14l-308 -58l-14 -352l628 -438l44 -102q-116 -44 -262 -30l-176 102v30l-278 176l-14 -294h-30v-58h-30 v-44l30 -116l-30 -148h-28l-132 118l-44 14l-30 74l16 58l44 30q-16 278 44 512h-44v-30l-294 -264h-28l-30 -58q-132 -102 -292 -102q-44 -220 -132 -396l-30 16q-44 146 -28 306l190 864h44q72 -146 44 -322l-44 -336h28q162 160 323 328t307 330l14 116q-72 44 -160 30 l-308 -88l-72 58l-74 162h-30q-130 -292 -262 -570l-132 -30l-118 88z" />
<glyph unicode="&#x4f12;" />
<glyph unicode="&#x4f15;" />
<glyph unicode="&#x4f16;" />
<glyph unicode="&#x4f17;" />
<glyph unicode="&#x4f19;" />
<glyph unicode="&#x4f1a;" d="M132 706v74q102 292 364 512l44 14l16 44l234 176v28q88 104 218 148l264 -264l570 -396l30 -102l-30 -44h-28q-206 102 -396 227t-380 271l-146 -190q204 -146 336 -336q-28 -60 -116 -44l-206 88l-58 116l-102 74q-264 -234 -556 -424zM336 486v74q322 58 644 88 t672 30q74 -44 74 -132q-352 -74 -718 -118l-190 -336l104 -30l380 88l58 234h58l146 -190l-28 -160l14 -146l-44 -104l-88 -28l-116 218l-44 16l-58 -30v-30l-366 -42l-206 146l-28 116l146 292h-74l-248 -28z" />
<glyph unicode="&#x4f1c;" />
<glyph unicode="&#x4f1d;" d="M132 634q58 262 160 504t204 476l44 14l60 -30l58 -248q-102 -248 -204 -498h-30q-44 -160 -132 -306h-30l-86 -250q-74 146 -44 338zM350 136q60 264 190 512l60 14l14 -102q-44 -190 -88 -373t-132 -359q-58 132 -44 308zM834 838q298 -2 600 0l58 14l176 -72l28 -88 q-190 -58 -366 -132q-160 -204 -248 -424l118 -30q190 60 380 88q0 190 102 292l102 -102l30 -482l-74 -58l-146 130q-176 -86 -394 -72l-176 44l-132 234l146 336l-58 14v60l-58 28l-74 74zM966 1496l58 14q218 -14 380 -160l58 -132q0 -72 -58 -88q-118 88 -278 74l-58 88 l-88 88z" />
<glyph unicode="&#x4f2e;" />
<glyph unicode="&#x4f2f;" />
<glyph unicode="&#x4f30;" />
<glyph unicode="&#x4f31;" />
<glyph unicode="&#x4f33;" />
<glyph unicode="&#x4f34;" />
<glyph unicode="&#x4f35;" />
<glyph unicode="&#x4f36;" />
<glyph unicode="&#x4f37;" />
<glyph unicode="&#x4f38;" />
<glyph unicode="&#x4f39;" />
<glyph unicode="&#x4f3a;" />
<glyph unicode="&#x4f3b;" />
<glyph unicode="&#x4f3c;" d="M-28 458v88q100 248 195 511t239 497h30l72 -14q88 -102 102 -248q-116 -250 -225 -506t-269 -474zM276 78q58 234 160 452l72 16q58 -44 44 -132q-58 -322 -188 -586q-102 102 -88 250zM784 326q58 204 87 431t131 417l58 16q58 -88 44 -206q-72 -264 -72 -542l72 -14 l334 88l14 -44q-218 -160 -450 -322l-86 -72l-88 174h-28zM1234 -40l30 44h30l14 58l72 132q174 248 290 512t190 556h44l42 14q74 -72 74 -190q-16 -306 -176 -570q-86 -74 -130 -176v-44q130 -174 218 -380h-102q-130 102 -174 250l-44 14l-102 -58l-130 -162l-116 -58 l-30 14v44zM1294 1014h28l88 -60l130 -292l44 -58l-30 -14q-130 58 -218 174z" />
<glyph unicode="&#x4f3d;" />
<glyph unicode="&#x4f3e;" />
<glyph unicode="&#x4f40;" />
<glyph unicode="&#x4f42;" />
<glyph unicode="&#x4f43;" />
<glyph unicode="&#x4f46;" />
<glyph unicode="&#x4f47;" />
<glyph unicode="&#x4f48;" />
<glyph unicode="&#x4f49;" />
<glyph unicode="&#x4f4b;" />
<glyph unicode="&#x4f4c;" />
<glyph unicode="&#x4f4d;" d="M0 662q46 234 185 439t287 409l132 60l104 -220q-118 -220 -243 -432t-303 -402l-88 -30q-74 74 -74 176zM60 546h44v44h-44v-44zM280 18q30 206 119 389t133 387l58 14v-88q-14 -248 -88 -460t-132 -446l-46 -14q-58 102 -44 218zM694 122q118 44 236 72q-18 250 28 498 l-102 88q-74 102 -74 218l132 16l340 -30v44l-46 204q16 148 104 264l44 14q44 -146 30 -320l-14 -206q234 -44 442 -146l14 -58l-280 -16v-28l14 -44l-28 -118l14 -72l-14 -88l14 -58l-30 -148h250l60 16l102 -30v-72q-176 -132 -426 -118l-178 30q-264 -44 -514 -104v-28 h-30q-88 102 -88 220zM1092 194l294 14q6 266 14 528q-132 44 -294 44z" />
<glyph unicode="&#x4f4e;" d="M160 706q58 206 183 388t257 358l44 14l44 -102l-148 -424l30 -72q-44 -264 -44 -549t-146 -519l-44 116q44 206 59 425t29 439h-44l-44 -88l-146 -118zM628 -54l278 58q308 -44 600 -102l88 14l44 -28v-30q-190 -88 -438 -74l-192 16l-248 -44l-102 102v44h-30v44z M672 428l44 162q74 174 118 357t116 359h30l28 74q278 190 616 218q72 -58 72 -160q-336 -58 -600 -308l-58 -234l132 -14l132 30l44 234h58q58 -104 88 -220l146 -30l44 16l132 -74v-58q-146 -44 -308 -74l-14 -102q28 -336 278 -586h-44q-146 44 -248 176 q-148 220 -192 498l-130 14l-88 -44l-60 16l-146 -410h60l130 28l16 -72l-250 -132q-174 132 -146 336z" />
<glyph unicode="&#x4f4f;" d="M132 486q72 264 240 484t330 454l88 86h44l28 -146l-190 -350l16 -44l72 -16v-102q-44 -292 -51 -592t-95 -578l-146 190v322l72 614h-28l-206 -278l-116 -116h-44zM848 62q190 104 424 104v58l-30 102h-72l-132 -44q-102 74 -102 176l292 72l14 294l-102 28l-102 -44 q-88 74 -72 176q190 58 394 58v60l-44 174q0 162 74 294l58 14q88 -102 58 -248l-28 -104l14 -72l-44 -132q220 14 380 -102l14 -44l-14 -30h-264l-130 16l-16 -294l44 -58l206 -74l14 -72h-44l-58 14q-60 -58 -132 -58l-30 -176q308 30 512 -102l-424 -102l-44 14 q-234 14 -438 -58q-118 44 -176 160z" />
<glyph unicode="&#x4f50;" />
<glyph unicode="&#x4f51;" />
<glyph unicode="&#x4f52;" />
<glyph unicode="&#x4f53;" d="M102 764l498 688l88 14l28 -102q-88 -146 -190 -292l-44 -14l-88 -132l-44 -14l-58 -88l-176 -132zM278 122q58 204 87 416t103 416h88l44 -102q-30 -248 -74 -497t-132 -483h-58q-74 102 -58 250zM658 224q116 176 248 344t264 344h-204l-88 -16l-104 206l44 14l162 -14 l306 28q-14 308 118 528l74 -30l58 -132q-44 -116 -44 -248l28 -146l410 -30v-102q-190 -74 -394 -74v-72l88 -88l306 -336l-44 -16q-190 102 -380 220l-28 -352q204 -28 364 -102l-262 -44l-74 16q-44 -148 -72 -308l-74 -30q-58 162 -88 352l-176 14l-72 -14l-58 102 q146 30 292 58l14 396l-44 14l-44 -28l-262 -352q-118 -102 -250 -160z" />
<glyph unicode="&#x4f54;" />
<glyph unicode="&#x4f55;" d="M-30 648v102q58 176 132 336l44 30l248 380l162 74q116 -118 88 -308q-118 -204 -228 -402t-240 -388q-118 58 -206 176zM278 18q28 352 218 630l44 14v-88q-14 -190 -80 -365t-154 -337zM688 414q0 248 190 350v-44q130 30 204 -86q160 -192 118 -454l-176 -264 l-118 -14l-28 14l-60 74l-44 14q-116 176 -86 410zM818 312l30 -88l160 -16l30 250l-44 58h-146zM878 1408q204 30 402 59t416 15l190 -58l44 -148l-366 -28v-44q132 -322 132 -702l-14 -44l14 -190q-14 -234 -132 -440l-44 -14q-86 146 -72 336l44 630l-58 410l-74 14 q-160 -14 -292 -88l-60 30q-102 116 -130 262z" />
<glyph unicode="&#x4f56;" />
<glyph unicode="&#x4f57;" />
<glyph unicode="&#x4f58;" />
<glyph unicode="&#x4f59;" d="M278 926v146l218 264l294 262l204 30l58 -74q338 -116 630 -364l44 -132l-74 -16q-218 60 -394 221t-410 161zM394 34l118 204l102 44l14 -88q-88 -132 -88 -306l162 -44v-30l-162 -14l-102 88q-58 58 -44 146zM410 560l570 58l14 206q-102 28 -220 58l-86 146l86 30 l192 -60l86 16l308 -102l14 -74h-44l-130 14l-74 -28l-14 -206q234 -28 438 -116l14 -60q-58 -58 -146 -42l-14 -44q204 -60 350 -220l60 -206l-44 -42l-132 -30l-74 44q-146 234 -204 498l-74 14l-86 -14q14 -308 -44 -572l-88 -28v28q-74 118 -44 264l14 278l-14 58 q-322 0 -600 74z" />
<glyph unicode="&#x4f5a;" />
<glyph unicode="&#x4f5b;" />
<glyph unicode="&#x4f5c;" d="M102 596v118q102 236 234 465t278 449l88 14l116 -234q-146 -236 -307 -457t-277 -457l-30 -16zM394 214l162 530l58 14q74 -72 44 -190q-44 -324 -190 -590l-14 58l-44 16zM848 714q44 222 154 428t212 412l44 16q72 -90 44 -208l-16 -58q264 -30 512 -104l30 -102 l-264 -44l-44 -296l30 -58q234 30 410 -74l30 -88q-264 0 -498 -104v-102q204 -118 410 -222l14 -58h-132l-306 74q-60 -134 -74 -296h-44q-118 118 -102 280q58 206 87 435t45 449l-44 16l-16 -44h-28l-74 28l-204 -324l-132 -58z" />
<glyph unicode="&#x4f5d;" />
<glyph unicode="&#x4f5e;" />
<glyph unicode="&#x4f5f;" />
<glyph unicode="&#x4f60;" />
<glyph unicode="&#x4f63;" />
<glyph unicode="&#x4f69;" />
<glyph unicode="&#x4f6a;" />
<glyph unicode="&#x4f6c;" />
<glyph unicode="&#x4f6e;" />
<glyph unicode="&#x4f6f;" />
<glyph unicode="&#x4f70;" />
<glyph unicode="&#x4f71;" />
<glyph unicode="&#x4f73;" />
<glyph unicode="&#x4f75;" />
<glyph unicode="&#x4f76;" />
<glyph unicode="&#x4f77;" />
<glyph unicode="&#x4f78;" />
<glyph unicode="&#x4f79;" />
<glyph unicode="&#x4f7a;" />
<glyph unicode="&#x4f7b;" />
<glyph unicode="&#x4f7c;" />
<glyph unicode="&#x4f7d;" />
<glyph unicode="&#x4f7e;" />
<glyph unicode="&#x4f7f;" d="M-16 574q104 250 234 484h30q102 248 264 468l102 28q74 -88 88 -204q-146 -190 -263 -380t-307 -366l-132 -88zM292 78q58 204 110 416t138 402l44 16q74 -60 60 -148q-74 -234 -125 -468t-109 -468h-44l-30 16q-58 102 -44 234zM760 678l74 292l72 14l16 -44h28 q88 58 206 74l14 88l-14 130q-88 -14 -148 74l-14 74l132 86l58 162h44q44 -102 74 -204l146 -88l44 -118l-30 -44h-28q-44 74 -118 58l-14 -160l28 -74q162 -44 278 -174q74 -74 60 -176l-16 -44l60 -44v-44q-206 -88 -410 -190l-30 -102q322 -162 688 -206v-28 q-146 -102 -322 -88q-204 58 -396 190l-190 -234q-86 14 -146 -44l-14 44q102 190 176 410q-118 28 -220 88q-118 130 -88 322zM950 546l74 -60l102 44q30 118 44 250l-58 28l-146 -130zM1316 590l102 -16l16 16l14 102l-88 72z" />
<glyph unicode="&#x4f81;" />
<glyph unicode="&#x4f82;" />
<glyph unicode="&#x4f83;" />
<glyph unicode="&#x4f84;" />
<glyph unicode="&#x4f85;" />
<glyph unicode="&#x4f86;" />
<glyph unicode="&#x4f88;" />
<glyph unicode="&#x4f89;" />
<glyph unicode="&#x4f8a;" />
<glyph unicode="&#x4f8b;" d="M88 714q102 222 212 443t240 427h30l118 -132l14 -104q-176 -280 -308 -590l-58 -44q-74 -118 -146 -236l-44 -14q-74 104 -58 250zM262 -52q16 310 148 560h28l30 -88q-132 -280 -132 -604l14 -44l-44 -44zM584 346q74 222 169 428t139 426l-88 60l-14 88h28 q234 -74 484 -132l14 -74h-44l-234 44q-58 -192 -88 -382q118 -30 220 -74q88 -118 58 -280q-44 -296 -204 -530l-102 -46q-44 90 -44 192q88 -14 130 60l30 118q-116 44 -220 118l-102 -222l-44 -14zM892 494q102 -88 220 -132v44l44 206l-30 58l-74 30l-130 -74zM1330 730 q44 324 176 574q44 -148 30 -310l-58 -500l-44 -44q-88 118 -104 280zM1624 228l44 398l-16 44q44 222 66 443t66 441h30q72 -206 80 -427t8 -457q-20 -184 0 -368q0 -236 -104 -442l-102 -44q-102 176 -72 412z" />
<glyph unicode="&#x4f8c;" />
<glyph unicode="&#x4f8d;" />
<glyph unicode="&#x4f8e;" />
<glyph unicode="&#x4f8f;" />
<glyph unicode="&#x4f90;" />
<glyph unicode="&#x4f91;" />
<glyph unicode="&#x4f92;" />
<glyph unicode="&#x4f93;" />
<glyph unicode="&#x4f94;" />
<glyph unicode="&#x4f96;" />
<glyph unicode="&#x4f97;" />
<glyph unicode="&#x4f98;" />
<glyph unicode="&#x4f99;" />
<glyph unicode="&#x4f9a;" />
<glyph unicode="&#x4f9b;" d="M72 486q88 264 198 535t168 549l58 14q88 -132 60 -308q-60 -248 -162 -482t-278 -424h-28v30zM278 4q28 292 132 542l28 -104q-14 -320 -146 -570zM526 720h118l72 -14q146 0 220 58q-58 118 -58 250h-148l-72 176l234 28q14 234 116 424l44 16q88 -148 74 -322 l-14 -118q116 -44 262 -44q74 132 74 308h44l88 -88l14 -118l-30 -72q104 -74 234 -88l74 -146l-14 -30h-30l-74 14l-204 -58l-58 -190q190 -44 350 -146l16 -58q-176 -88 -396 -74q-176 44 -358 44h-374l-86 -14q-60 72 -74 176zM790 92l132 146h58l58 -176l-132 -160h-72 q-74 72 -44 190zM1082 750q88 -58 204 -30l44 220q-88 58 -204 44zM1434 296h102l350 -204l74 -146q-88 -74 -206 -74q-58 74 -146 44q-116 176 -174 380z" />
<glyph unicode="&#x4f9d;" />
<glyph unicode="&#x4f9e;" />
<glyph unicode="&#x4f9f;" />
<glyph unicode="&#x4fa0;" />
</font>
</defs>
</svg>
